<svg id="Capa_1" enable-background="new 0 0 512 512" height="512" viewBox="0 0 512 512" width="512" xmlns="http://www.w3.org/2000/svg"><g><path d="m308.5 375.5v-89c0-28.949-23.551-52.5-52.5-52.5s-52.5 23.551-52.5 52.5v89c0 28.949 23.551 52.5 52.5 52.5s52.5-23.551 52.5-52.5zm-90 0v-89c0-20.678 16.822-37.5 37.5-37.5s37.5 16.822 37.5 37.5v89c0 20.678-16.822 37.5-37.5 37.5s-37.5-16.822-37.5-37.5z"/><path d="m429.255 348.064 1.154-1.154c4.25-4.25 6.59-9.9 6.59-15.91s-2.34-11.66-6.59-15.91l-1.155-1.154.907-1.357c3.339-4.998 4.532-10.996 3.36-16.89-1.173-5.895-4.57-10.979-9.568-14.319l-1.357-.907.625-1.508c2.3-5.552 2.3-11.668 0-17.221s-6.624-9.877-12.177-12.177l-1.508-.625.318-1.601c2.42-12.168-5.51-24.037-17.678-26.458l-1.601-.318v-1.633c0-12.407-10.093-22.5-22.5-22.5h-1.633l-.318-1.601c-1.173-5.894-4.57-10.979-9.567-14.318s-10.995-4.531-16.889-3.359l-1.602.318-.625-1.508c-2.3-5.553-6.625-9.877-12.177-12.177s-11.668-2.3-17.221 0l-1.508.625-.907-1.357c-1.196-1.79-2.624-3.365-4.226-4.717 24.559-7.414 47.106-20.857 65.837-39.588 29.832-29.83 46.261-69.336 46.261-111.24 0-4.142-3.358-7.5-7.5-7.5-41.904 0-81.41 16.429-111.241 46.259-18.051 18.051-31.193 39.642-38.759 63.166-7.566-23.523-20.708-45.115-38.759-63.166-29.831-29.83-69.337-46.259-111.241-46.259-4.142 0-7.5 3.358-7.5 7.5 0 41.904 16.429 81.41 46.259 111.241 18.734 18.734 41.287 32.179 65.851 39.592-1.59 1.335-3.029 2.901-4.24 4.712l-.907 1.357-1.509-.625c-11.462-4.749-24.649.715-29.397 12.177l-.625 1.508-1.601-.318c-12.17-2.418-24.037 5.511-26.458 17.678l-.318 1.601h-1.632c-12.407 0-22.5 10.093-22.5 22.5v1.632l-1.602.318c-12.168 2.42-20.098 14.289-17.678 26.457l.318 1.602-1.508.625c-11.462 4.749-16.924 17.936-12.177 29.398l.625 1.508-1.357.907c-10.315 6.892-13.1 20.892-6.208 31.208l.907 1.357-1.154 1.154c-4.25 4.25-6.59 9.9-6.59 15.91s2.34 11.661 6.59 15.91l1.154 1.154-.907 1.357c-6.893 10.316-4.108 24.316 6.208 31.208l1.358.907-.625 1.508c-2.3 5.552-2.3 11.668 0 17.22 2.3 5.553 6.625 9.877 12.177 12.177l1.508.625-.319 1.601c-2.42 12.168 5.51 24.037 17.679 26.458l1.601.318v1.632c0 12.407 10.093 22.5 22.5 22.5h1.633l.318 1.602c1.173 5.894 4.57 10.979 9.567 14.318s10.996 4.533 16.889 3.359l1.602-.318.625 1.508c4.748 11.463 17.936 16.924 29.398 12.177l1.508-.625.907 1.357c3.339 4.997 8.424 8.395 14.318 9.567 5.897 1.174 11.894-.021 16.89-3.359l1.358-.907 1.154 1.154c4.25 4.25 9.9 6.59 15.91 6.59s11.66-2.34 15.91-6.59l1.154-1.155 1.357.907c10.316 6.893 24.316 4.107 31.208-6.207l.907-1.358 1.508.625c11.463 4.748 24.65-.715 29.398-12.177l.625-1.508 1.601.318c12.171 2.42 24.037-5.51 26.458-17.678l.318-1.601h1.632c12.407 0 22.5-10.093 22.5-22.5v-1.633l1.602-.318c12.168-2.42 20.098-14.289 17.678-26.457l-.318-1.601 1.508-.625c11.462-4.749 16.924-17.936 12.177-29.398l-.625-1.508 1.357-.907c10.315-6.892 13.1-20.892 6.208-31.208zm-30.961-332.858c-3.879 72.455-62.133 130.708-134.588 134.588 3.879-72.455 62.133-130.709 134.588-134.588zm-284.588 0c72.455 3.879 130.708 62.133 134.588 134.588-72.455-3.879-130.709-62.133-134.588-134.588zm306.097 321.097-5.506 5.507c-2.53 2.53-2.92 6.495-.932 9.47l4.326 6.475c2.297 3.439 1.369 8.105-2.069 10.403l-6.475 4.326c-2.975 1.988-4.132 5.8-2.763 9.106l2.98 7.195c1.583 3.821-.238 8.217-4.059 9.799l-7.195 2.98c-3.306 1.369-5.184 4.883-4.486 8.392l1.519 7.638c.807 4.056-1.836 8.012-5.893 8.819l-7.638 1.52c-3.509.698-6.037 3.778-6.037 7.356v7.788c0 4.136-3.364 7.5-7.5 7.5h-7.787c-3.578 0-6.658 2.527-7.356 6.037l-1.52 7.638c-.391 1.965-1.523 3.66-3.189 4.773s-3.666 1.512-5.63 1.12l-7.638-1.519c-3.509-.699-7.023 1.181-8.392 4.486l-2.98 7.195c-1.582 3.821-5.979 5.642-9.799 4.059l-7.195-2.98c-3.306-1.368-7.119-.212-9.106 2.762l-4.327 6.475c-1.113 1.666-2.808 2.798-4.773 3.189-1.963.393-3.964-.006-5.63-1.12l-6.474-4.326c-2.976-1.988-6.939-1.598-9.47.932l-5.507 5.507c-1.417 1.417-3.3 2.197-5.303 2.197s-3.887-.78-5.303-2.197l-5.507-5.506c-1.45-1.449-3.37-2.196-5.306-2.196-1.442 0-2.894.415-4.164 1.264l-6.476 4.327c-1.666 1.113-3.665 1.511-5.63 1.12s-3.66-1.523-4.773-3.189l-4.327-6.475c-1.987-2.974-5.8-4.132-9.106-2.762l-7.194 2.98c-3.821 1.583-8.217-.238-9.799-4.059l-2.98-7.195c-1.369-3.306-4.883-5.186-8.392-4.486l-7.639 1.519c-1.963.392-3.964-.006-5.629-1.12-1.666-1.113-2.798-2.808-3.189-4.773l-1.52-7.638c-.698-3.509-3.778-6.037-7.356-6.037h-7.788c-4.136 0-7.5-3.364-7.5-7.5v-7.788c0-3.578-2.528-6.658-6.037-7.356l-7.637-1.519c-1.965-.391-3.66-1.523-4.773-3.189s-1.511-3.666-1.12-5.63l1.52-7.638c.698-3.509-1.18-7.023-4.486-8.393l-7.195-2.98c-1.851-.767-3.292-2.208-4.059-4.059s-.767-3.889 0-5.74l2.98-7.195c1.369-3.306.212-7.118-2.762-9.106l-6.475-4.327c-3.439-2.298-4.367-6.964-2.07-10.403l4.327-6.475c1.988-2.975 1.598-6.94-.933-9.47l-5.506-5.506c-2.924-2.924-2.924-7.683 0-10.607l5.506-5.506c2.53-2.53 2.921-6.495.933-9.47l-4.326-6.475c-2.297-3.439-1.369-8.105 2.069-10.403l6.475-4.327c2.975-1.988 4.131-5.8 2.762-9.106l-2.98-7.194c-1.583-3.821.238-8.217 4.059-9.799l7.195-2.98c3.306-1.369 5.184-4.883 4.486-8.392l-1.519-7.639c-.391-1.965.007-3.964 1.12-5.63s2.808-2.798 4.772-3.189l7.638-1.519c3.509-.698 6.037-3.778 6.037-7.356v-7.788c0-4.136 3.364-7.5 7.5-7.5h7.787c3.578 0 6.658-2.527 7.356-6.037l1.52-7.638c.391-1.965 1.523-3.66 3.189-4.773 1.667-1.113 3.665-1.511 5.63-1.12l7.638 1.52c3.51.697 7.023-1.18 8.393-4.486l2.98-7.195c1.583-3.821 5.979-5.642 9.799-4.059l7.195 2.98c3.305 1.368 7.118.212 9.106-2.762l4.327-6.475c2.298-3.438 6.964-4.367 10.403-2.07l6.475 4.327c2.976 1.988 6.941 1.598 9.47-.933l5.507-5.506c2.925-2.925 7.683-2.924 10.606 0l5.507 5.507c2.531 2.531 6.496 2.921 9.47.933l6.475-4.327c3.438-2.298 8.105-1.369 10.403 2.07l4.327 6.475c1.988 2.975 5.802 4.132 9.106 2.762l7.194-2.98c1.852-.767 3.89-.767 5.74 0 1.851.767 3.292 2.208 4.059 4.059l2.98 7.195c1.369 3.305 4.88 5.186 8.392 4.486l7.639-1.519c1.967-.391 3.965.006 5.629 1.12 1.666 1.113 2.798 2.808 3.189 4.773l1.52 7.638c.698 3.509 3.778 6.037 7.356 6.037h7.788c4.136 0 7.5 3.364 7.5 7.5v7.788c0 3.578 2.527 6.658 6.037 7.356l7.638 1.52c4.056.807 6.7 4.763 5.893 8.819l-1.52 7.638c-.698 3.509 1.18 7.023 4.486 8.393l7.195 2.98c1.851.767 3.292 2.208 4.059 4.059s.767 3.889 0 5.74l-2.98 7.195c-1.369 3.306-.212 7.119 2.763 9.106l6.475 4.326c3.439 2.298 4.367 6.964 2.07 10.403l-4.327 6.475c-1.988 2.975-1.598 6.94.932 9.47l5.507 5.507c2.923 2.919 2.923 7.677-.002 10.601z"/><path d="m256 189c-32.559 0-63.191 10.728-88.586 31.024-3.235 2.586-3.762 7.306-1.176 10.542 2.586 3.235 7.306 3.762 10.542 1.176 22.707-18.149 50.101-27.742 79.22-27.742 70.028 0 127 56.972 127 127s-56.972 127-127 127-127-56.972-127-127c0-29.119 9.593-56.513 27.742-79.221 2.586-3.236 2.059-7.955-1.176-10.542-3.235-2.585-7.955-2.059-10.542 1.176-20.296 25.396-31.024 56.028-31.024 88.587 0 78.299 63.701 142 142 142s142-63.701 142-142-63.701-142-142-142z"/></g></svg>