<svg id="Capa_1" enable-background="new 0 0 512 512" height="512" viewBox="0 0 512 512" width="512" xmlns="http://www.w3.org/2000/svg"><g><path d="m365.5 263c64.238 0 116.5-52.262 116.5-116.5s-52.262-116.5-116.5-116.5-116.5 52.262-116.5 116.5 52.262 116.5 116.5 116.5zm25.355-214.794c-5.019 2.846-9.346 6.837-12.645 11.774-5.564 8.329-7.554 18.326-5.6 28.15.162.813.358 1.613.57 2.406-2.513-.343-5.074-.536-7.68-.536s-5.167.193-7.681.536c.212-.794.408-1.593.57-2.406 1.954-9.824-.034-19.821-5.599-28.15-3.362-5.031-7.746-8.971-12.686-11.763 8.12-2.099 16.63-3.217 25.396-3.217 8.751 0 17.248 1.114 25.355 3.206zm-25.355 56.794c22.883 0 41.5 18.617 41.5 41.5s-18.617 41.5-41.5 41.5-41.5-18.617-41.5-41.5 18.617-41.5 41.5-41.5zm-55.709-43.301c10.244-6.337 23.783-3.479 30.527 6.615 3.339 4.997 4.532 10.995 3.36 16.89-1.173 5.895-4.57 10.979-9.567 14.318-.149.099-.286.209-.426.316-14.891 10.185-24.685 27.299-24.685 46.662 0 31.154 25.346 56.5 56.5 56.5s56.5-25.346 56.5-56.5c0-19.357-9.789-36.467-24.673-46.653-.143-.111-.285-.223-.438-.326-4.997-3.338-8.395-8.423-9.567-14.318s.021-11.893 3.36-16.89 8.423-8.395 14.317-9.567c5.626-1.118 11.33-.061 16.181 2.934 27.578 18.165 45.82 49.4 45.82 84.82 0 55.967-45.533 101.5-101.5 101.5s-101.5-45.533-101.5-101.5c0-35.408 18.229-66.634 45.791-84.801z"/><path d="m146.5 219c-80.78 0-146.5 65.72-146.5 146.5s65.72 146.5 146.5 146.5 146.5-65.72 146.5-146.5-65.72-146.5-146.5-146.5zm0 278c-72.509 0-131.5-58.991-131.5-131.5s58.991-131.5 131.5-131.5 131.5 58.991 131.5 131.5-58.991 131.5-131.5 131.5z"/><path d="m146.5 249c-64.238 0-116.5 52.262-116.5 116.5s52.262 116.5 116.5 116.5 116.5-52.262 116.5-116.5-52.262-116.5-116.5-116.5zm25.38 18.213c-4.935 2.792-9.311 6.74-12.67 11.768-5.565 8.328-7.553 18.325-5.599 28.149.162.813.358 1.613.57 2.406-2.514-.343-5.074-.536-7.681-.536-2.606 0-5.167.193-7.68.536.212-.793.408-1.593.57-2.406 1.954-9.824-.035-19.821-5.6-28.15-3.36-5.029-7.738-8.974-12.674-11.766 8.116-2.097 16.622-3.214 25.384-3.214 8.761 0 17.265 1.116 25.38 3.213zm-25.38 56.787c22.883 0 41.5 18.617 41.5 41.5s-18.617 41.5-41.5 41.5-41.5-18.617-41.5-41.5 18.617-41.5 41.5-41.5zm0 143c-55.967 0-101.5-45.533-101.5-101.5 0-35.407 18.228-66.632 45.788-84.799 10.244-6.34 23.785-3.481 30.53 6.613 3.339 4.997 4.532 10.995 3.359 16.89s-4.57 10.979-9.567 14.318c-.055.037-.101.082-.152.123-15.045 10.162-24.958 27.372-24.958 46.855 0 31.154 25.346 56.5 56.5 56.5s56.5-25.346 56.5-56.5c0-19.356-9.788-36.464-24.669-46.651-.144-.112-.287-.225-.441-.328-4.997-3.338-8.395-8.423-9.567-14.318s.021-11.893 3.359-16.89c6.746-10.095 20.286-12.953 30.531-6.613 27.56 18.169 45.787 49.393 45.787 84.8 0 55.967-45.533 101.5-101.5 101.5z"/><path d="m365.5 0c-33.301 0-65.905 11.486-91.808 32.341-3.226 2.598-3.735 7.319-1.138 10.545 2.599 3.226 7.317 3.736 10.546 1.138 23.583-18.987 52.076-29.024 82.4-29.024 72.51 0 131.5 58.991 131.5 131.5s-58.99 131.5-131.5 131.5-131.5-58.991-131.5-131.5c0-30.324 10.037-58.817 29.025-82.4 2.598-3.226 2.088-7.948-1.138-10.545-3.229-2.598-7.949-2.088-10.546 1.138-20.855 25.901-32.341 58.506-32.341 91.807 0 80.78 65.72 146.5 146.5 146.5s146.5-65.72 146.5-146.5-65.72-146.5-146.5-146.5z"/></g></svg>