<svg id="Capa_1" enable-background="new 0 0 512 512" height="512" viewBox="0 0 512 512" width="512" xmlns="http://www.w3.org/2000/svg"><g><path d="m499 265.75c0-4.142-3.357-7.5-7.5-7.5-35.617 0-66.918 18.816-84.5 47.025v-28.065c8.729-3.096 15-11.433 15-21.21s-6.271-18.114-15-21.21v-27.322c51.375-3.847 92-46.877 92-99.219 0-4.142-3.357-7.5-7.5-7.5-35.617 0-66.918 18.816-84.5 47.025v-74.064c8.729-3.096 15-11.433 15-21.21s-6.271-18.114-15-21.21v-23.79c0-4.142-3.357-7.5-7.5-7.5h-113.5c-4.143 0-7.5 3.358-7.5 7.5v23.79c-8.729 3.096-15 11.433-15 21.21s6.271 18.114 15 21.21v161.08c-8.729 3.096-15 11.433-15 21.21 0 9.778 6.27 18.12 15 21.215v161.075c-8.729 3.096-15 11.432-15 21.21s6.271 18.114 15 21.21v23.79c0 4.142 3.357 7.5 7.5 7.5h113.5c4.143 0 7.5-3.358 7.5-7.5v-23.79c8.729-3.096 15-11.432 15-21.21s-6.271-18.114-15-21.21v-28.065c17.582 28.21 48.883 47.025 84.5 47.025 4.143 0 7.5-3.358 7.5-7.5 0-41.453-25.478-77.066-61.6-92 36.122-14.934 61.6-50.547 61.6-92zm-15.362-149.637c-3.738 40.333-35.942 72.536-76.275 76.274 3.738-40.333 35.942-72.536 76.275-76.274zm-91.638 117.387h-98.5v-158.5h98.5zm0-218.5v15h-98.5v-15zm-106 30h113.5c4.136 0 7.5 3.364 7.5 7.5s-3.364 7.5-7.5 7.5h-113.5c-4.136 0-7.5-3.364-7.5-7.5s3.364-7.5 7.5-7.5zm7.5 452v-15h98.5v15zm106-30h-113.5c-4.136 0-7.5-3.364-7.5-7.5s3.364-7.5 7.5-7.5h113.5c4.136 0 7.5 3.364 7.5 7.5s-3.364 7.5-7.5 7.5zm-7.5-30h-98.5v-166c0-4.142-3.357-7.5-7.5-7.5-4.136 0-7.5-3.364-7.5-7.5s3.364-7.5 7.5-7.5h113.5c4.136 0 7.5 3.364 7.5 7.5s-3.364 7.5-7.5 7.5h-83.5c-4.143 0-7.5 3.358-7.5 7.5s3.357 7.5 7.5 7.5h76zm91.638 4.887c-40.333-3.738-72.537-35.941-76.275-76.274 40.332 3.738 72.536 35.941 76.275 76.274zm-76.276-92c3.738-40.333 35.942-72.536 76.275-76.274-3.738 40.333-35.942 72.536-76.275 76.274z"/><path d="m248.5 52.5c0-9.777-6.271-18.114-15-21.21v-23.79c0-4.142-3.357-7.5-7.5-7.5h-113.5c-4.143 0-7.5 3.358-7.5 7.5v23.79c-8.729 3.096-15 11.433-15 21.21s6.271 18.114 15 21.21v28.065c-17.582-28.209-48.883-47.025-84.5-47.025-4.143 0-7.5 3.358-7.5 7.5 0 41.453 25.478 77.066 61.6 92-36.122 14.934-61.6 50.547-61.6 92 0 4.142 3.357 7.5 7.5 7.5 35.617 0 66.918-18.816 84.5-47.025v28.065c-8.729 3.096-15 11.433-15 21.21s6.271 18.114 15 21.21v27.322c-51.375 3.847-92 46.877-92 99.219 0 4.142 3.357 7.5 7.5 7.5 35.617 0 66.918-18.816 84.5-47.025v74.065c-8.729 3.096-15 11.432-15 21.21s6.271 18.114 15 21.21v23.79c0 4.142 3.357 7.5 7.5 7.5h113.5c4.143 0 7.5-3.358 7.5-7.5v-23.79c8.729-3.096 15-11.432 15-21.21s-6.271-18.114-15-21.21v-161.081c8.729-3.096 15-11.433 15-21.21s-6.271-18.114-15-21.21v-161.08c8.729-3.096 15-11.433 15-21.21zm-220.138 185.887c3.738-40.333 35.942-72.536 76.275-76.274-3.738 40.333-35.942 72.536-76.275 76.274zm0-168.274c40.333 3.738 72.537 35.941 76.275 76.274-40.332-3.738-72.536-35.941-76.275-76.274zm0 325.774c3.738-40.333 35.942-72.536 76.275-76.274-3.738 40.333-35.942 72.536-76.275 76.274zm190.138-380.887v15h-98.5v-15zm-106 30h113.5c4.136 0 7.5 3.364 7.5 7.5s-3.364 7.5-7.5 7.5h-113.5c-4.136 0-7.5-3.364-7.5-7.5s3.364-7.5 7.5-7.5zm7.5 30h98.5v158.5h-98.5zm0 203.5h98.5v158.5h-98.5zm0 218.5v-15h98.5v15zm106-30h-113.5c-4.136 0-7.5-3.364-7.5-7.5s3.364-7.5 7.5-7.5h113.5c4.136 0 7.5 3.364 7.5 7.5s-3.364 7.5-7.5 7.5zm0-203.5h-113.5c-4.136 0-7.5-3.364-7.5-7.5s3.364-7.5 7.5-7.5h113.5c4.136 0 7.5 3.364 7.5 7.5s-3.364 7.5-7.5 7.5z"/></g></svg>