<svg id="Capa_1" enable-background="new 0 0 512.038 512.038" height="512" viewBox="0 0 512.038 512.038" width="512" xmlns="http://www.w3.org/2000/svg"><g><path d="m504.736 239.879c8.286-17.433 9.566-37.139 3.604-55.487-5.961-18.347-18.58-33.537-35.53-42.771-5.959-3.247-10.48-8.893-12.74-15.923-6.615-20.358-23.862-35.086-45.011-38.436-11.1-1.758-22.145-.194-31.951 4.194 1.145-10.685-.779-21.677-5.884-31.695-9.722-19.078-29.057-30.929-50.485-30.929h-.098c-7.322 0-14.052-2.554-18.958-7.197-14.021-13.266-32.366-20.573-51.658-20.573s-37.637 7.307-51.657 20.574c-4.907 4.644-11.637 7.197-18.983 7.197h-.097c-21.405 0-40.742 11.852-50.464 30.93-5.103 10.014-7.028 21.002-5.886 31.684-9.808-4.39-20.856-5.956-31.96-4.199-21.148 3.35-38.395 18.077-45.018 38.458-2.252 7.006-6.773 12.653-12.732 15.899-16.951 9.234-29.569 24.424-35.53 42.771-5.962 18.348-4.682 38.053 3.604 55.487 2.912 6.128 3.252 13.354.948 20.37-6.615 20.357-1.319 42.41 13.821 57.551 7.948 7.949 17.807 13.169 28.32 15.383-7.21 7.972-12.116 17.998-13.875 29.106-3.35 21.148 5.327 42.101 22.663 54.696 5.969 4.308 9.941 10.353 11.188 17.023 3.543 18.974 14.09 35.668 29.698 47.008 15.608 11.339 34.746 16.213 53.885 13.718 6.729-.873 13.708 1.035 19.667 5.393 9.901 7.194 21.533 10.856 33.245 10.856 8.772 0 17.59-2.054 25.76-6.216 10.015-5.102 18.031-12.86 23.385-22.173 5.354 9.317 13.372 17.078 23.39 22.182 8.168 4.162 16.981 6.215 25.753 6.215 11.716 0 23.355-3.666 33.269-10.868 5.941-4.345 12.921-6.256 19.647-5.379 19.144 2.494 38.278-2.38 53.885-13.718 15.608-11.34 26.155-28.035 29.698-47.009 1.246-6.669 5.22-12.715 11.206-17.037 17.317-12.582 25.995-33.536 22.646-54.685-1.758-11.104-6.661-21.127-13.867-29.098 10.517-2.212 20.379-7.432 28.33-15.384 15.141-15.141 20.437-37.192 13.815-57.572-2.295-6.99-1.955-14.217.957-20.346zm-356.547-173.306c7.256-14.239 21.124-22.74 37.076-22.74 11.198.044 21.674-3.979 29.413-11.302 11.223-10.621 25.906-16.469 41.347-16.469s30.125 5.849 41.348 16.469c7.706 7.292 18.095 11.302 29.245 11.301h.145c15.974 0 29.842 8.5 37.097 22.739 7.237 14.204 5.97 30.376-3.391 43.262l-35.439 48.781c-1.559-36.724-31.912-66.125-69.013-66.125-37.105 0-67.46 29.407-69.012 66.138l-35.442-48.779c-9.345-12.898-10.612-29.071-3.374-43.275zm46.613 173.814c-3.585-5.612-3.374-12.718.537-18.103 3.913-5.386 10.608-7.78 17.053-6.106 2.167.565 4.479.128 6.294-1.191 1.814-1.318 2.944-3.379 3.078-5.618.399-6.648 4.746-12.273 11.075-14.33 6.334-2.056 13.155-.061 17.384 5.083 1.425 1.732 3.55 2.736 5.793 2.736s4.368-1.004 5.793-2.736c4.23-5.144 11.055-7.139 17.384-5.083 6.329 2.057 10.677 7.681 11.076 14.33.134 2.239 1.264 4.3 3.078 5.618 1.814 1.319 4.124 1.756 6.294 1.191 6.451-1.676 13.14.723 17.052 6.106 3.912 5.384 4.123 12.49.538 18.103-1.208 1.89-1.506 4.222-.813 6.355s2.305 3.844 4.393 4.664c6.199 2.434 10.205 8.306 10.205 14.962s-4.006 12.528-10.205 14.962c-2.088.82-3.699 2.53-4.393 4.664s-.396 4.464.812 6.355c3.586 5.613 3.375 12.719-.537 18.103s-10.605 7.781-17.051 6.106c-2.168-.563-4.48-.127-6.295 1.191s-2.944 3.38-3.078 5.619c-.399 6.649-4.747 12.273-11.076 14.33-6.328 2.056-13.153.062-17.384-5.083-1.425-1.732-3.55-2.736-5.793-2.736s-4.368 1.004-5.793 2.736c-4.23 5.143-11.052 7.139-17.384 5.083-6.329-2.056-10.676-7.681-11.075-14.33-.134-2.239-1.264-4.3-3.078-5.618-1.813-1.319-4.123-1.755-6.294-1.191-6.445 1.676-13.141-.721-17.052-6.106-3.912-5.385-4.123-12.491-.538-18.103 1.208-1.89 1.506-4.222.813-6.355s-2.305-3.844-4.393-4.664c-6.2-2.434-10.206-8.306-10.206-14.962s4.006-12.528 10.206-14.962c2.088-.819 3.699-2.531 4.393-4.664s.395-4.466-.813-6.356zm105.247-47.389c-3.782-5.647-9.402-10.01-16.221-12.225-9.654-3.137-19.901-1.399-27.812 4.354-7.91-5.754-18.157-7.491-27.812-4.354-6.817 2.215-12.436 6.576-16.218 12.221-6.58-9.198-10.058-20.047-10.058-31.417 0-29.824 24.264-54.087 54.087-54.087 29.824 0 54.088 24.264 54.088 54.087.001 11.374-3.477 22.225-10.054 31.421zm-149.385 126.355c6.685-9.2 15.875-15.934 26.603-19.509-.26 6.791 1.723 13.623 5.937 19.424 5.963 8.208 15.266 12.825 25.042 12.824 3.035 9.305 10.305 16.733 19.958 19.87 6.817 2.216 13.927 1.99 20.304-.355-.084 11.309-3.646 22.131-10.329 31.329-8.492 11.688-21.027 19.37-35.297 21.63-14.271 2.262-28.565-1.172-40.253-9.664s-19.369-21.027-21.63-35.296c-2.258-14.269 1.173-28.565 9.665-40.253zm112.855 32.24c3.386 1.246 6.972 1.914 10.62 1.914 3.224 0 6.488-.504 9.688-1.544 9.654-3.136 16.924-10.564 19.941-19.87 9.792 0 19.096-4.618 25.059-12.824 4.214-5.799 6.196-12.63 5.937-19.42 10.731 3.575 19.922 10.308 26.604 19.504 8.492 11.688 11.924 25.983 9.664 40.253-2.261 14.27-9.942 26.805-21.63 35.297s-25.986 11.927-40.253 9.664c-14.27-2.26-26.805-9.941-35.297-21.63-6.683-9.2-10.247-20.02-10.333-31.344zm75.882-66.021c4.202-5.341 6.615-12.034 6.615-19.204 0-10.151-4.818-19.36-12.735-25.105 3.028-9.301 1.514-19.583-4.453-27.796-4.213-5.799-10.098-9.795-16.635-11.647 6.717-9.101 15.96-15.761 26.772-19.274 13.743-4.465 28.397-3.31 41.27 3.248 12.872 6.559 22.42 17.738 26.885 31.478 4.464 13.741 3.311 28.397-3.248 41.27s-17.738 22.42-31.479 26.885c-10.818 3.514-22.211 3.56-32.992.145zm-316.892-20.682c3.503-10.669 2.914-21.844-1.66-31.466-6.632-13.956-7.657-29.728-2.886-44.413s14.872-26.842 28.44-34.234c9.356-5.098 16.401-13.792 19.83-24.458 4.937-15.192 17.307-25.755 33.091-28.255 15.746-2.495 30.734 3.709 40.096 16.594l35.431 48.763c-29.394-8.189-60.726 3.817-77.033 29.86-2.198 3.511-1.135 8.139 2.376 10.337s8.14 1.135 10.337-2.376c13.178-21.044 38.892-30.376 62.538-22.695 10.817 3.515 20.062 10.175 26.775 19.273-6.539 1.852-12.425 5.848-16.64 11.649-5.967 8.213-7.481 18.495-4.453 27.795-7.917 5.745-12.735 14.954-12.735 25.105 0 7.169 2.412 13.86 6.612 19.201-10.781 3.415-22.174 3.371-32.988-.143-23.644-7.683-38.963-30.348-37.254-55.119.285-4.132-2.834-7.713-6.966-7.999-4.15-.28-7.714 2.833-7.999 6.966-2.114 30.658 16.182 58.791 44.783 69.44l-57.325 18.628c-15.153 4.901-30.929 1.107-42.201-10.166-11.3-11.3-15.099-27.117-10.169-42.287zm203.305 226.496c-14.24 7.254-30.459 5.979-43.36-3.396-9.063-6.628-19.872-9.521-30.44-8.146-15.316 1.996-30.638-1.903-43.131-10.98-12.492-9.076-20.934-22.438-23.771-37.626-1.956-10.474-8.048-19.86-17.134-26.419-12.923-9.389-19.146-24.417-16.646-40.201 2.493-15.745 13.025-28.083 28.172-33.006l57.34-18.633c-9.604 14.456-13.39 31.727-10.659 48.973 2.888 18.227 12.699 34.238 27.629 45.085 14.93 10.848 33.189 15.232 51.416 12.344 17.25-2.732 32.509-11.675 43.291-25.281l.001 60.291c-.023 15.928-8.504 29.758-22.708 36.995zm218.244-86.57c-9.105 6.573-15.196 15.959-17.152 26.432-2.837 15.188-11.278 28.551-23.771 37.627s-27.81 12.975-43.131 10.98c-10.564-1.376-21.374 1.516-30.42 8.131-12.923 9.389-29.139 10.663-43.377 3.409-14.204-7.237-22.685-21.066-22.686-36.993l-.001-60.291c10.781 13.601 26.036 22.539 43.283 25.271 3.66.58 7.319.866 10.955.866 14.469 0 28.529-4.542 40.461-13.21 14.93-10.847 24.741-26.859 27.629-45.085 2.732-17.251-1.058-34.526-10.667-48.984l57.341 18.629c15.141 4.944 25.672 17.283 28.165 33.029 2.499 15.784-3.725 30.813-16.629 40.189zm45.464-139.932c4.936 15.192 1.137 31.008-10.163 42.308-11.271 11.273-27.044 15.064-42.192 10.143l-57.34-18.629c16.266-6.05 29.482-17.798 37.41-33.355 8.378-16.442 9.852-35.163 4.148-52.714-5.702-17.551-17.898-31.831-34.341-40.208-15.563-7.93-33.167-9.664-49.883-4.993l35.437-48.778c9.38-12.873 24.37-19.07 40.115-16.581 15.784 2.501 28.155 13.064 33.084 28.234 3.437 10.69 10.481 19.385 19.838 24.482 13.568 7.392 23.669 19.55 28.44 34.234 4.771 14.685 3.746 30.458-2.887 44.414-4.572 9.623-5.162 20.798-1.666 31.443z"/><path d="m256.016 288.868c12.406 0 22.5-10.093 22.5-22.5s-10.094-22.5-22.5-22.5-22.5 10.093-22.5 22.5 10.094 22.5 22.5 22.5zm0-30c4.136 0 7.5 3.364 7.5 7.5s-3.364 7.5-7.5 7.5-7.5-3.364-7.5-7.5 3.364-7.5 7.5-7.5z"/><path d="m256.016 318.868c28.948 0 52.5-23.551 52.5-52.5s-23.552-52.5-52.5-52.5-52.5 23.551-52.5 52.5 23.552 52.5 52.5 52.5zm0-90c20.678 0 37.5 16.822 37.5 37.5s-16.822 37.5-37.5 37.5-37.5-16.822-37.5-37.5 16.822-37.5 37.5-37.5z"/></g></svg>