<svg id="Capa_1" enable-background="new 0 0 512 512" height="512" viewBox="0 0 512 512" width="512" xmlns="http://www.w3.org/2000/svg"><g><path d="m504.715 376.883c-9.389-.269-18.352-4.48-24.591-11.552-1.423-1.614-3.472-2.539-5.624-2.539s-4.201.925-5.625 2.539c-6.484 7.351-15.812 11.567-25.59 11.567s-19.105-4.216-25.59-11.567c-1.424-1.614-3.472-2.539-5.625-2.539s-4.201.925-5.625 2.539c-6.484 7.351-15.811 11.567-25.59 11.567-9.778 0-19.105-4.216-25.589-11.567-1.424-1.614-3.472-2.539-5.625-2.539s-4.201.924-5.625 2.539c-6.484 7.351-15.812 11.567-25.59 11.567-9.779 0-19.106-4.216-25.59-11.567-1.424-1.614-3.472-2.539-5.625-2.539s-4.201.924-5.625 2.539c-6.484 7.351-15.812 11.567-25.59 11.567s-19.105-4.216-25.59-11.567c-1.424-1.614-3.472-2.539-5.625-2.539s-4.201.925-5.625 2.539c-6.484 7.351-15.812 11.567-25.59 11.567s-19.105-4.216-25.59-11.567c-1.424-1.614-3.472-2.539-5.625-2.539s-4.201.925-5.625 2.539c-6.484 7.351-15.811 11.567-25.589 11.567-9.779 0-19.106-4.216-25.59-11.567-1.424-1.614-3.472-2.539-5.625-2.539s-4.201.924-5.625 2.539c-6.484 7.351-15.812 11.567-25.59 11.567s-19.105-4.216-25.59-11.567c-1.424-1.614-3.472-2.539-5.625-2.539-2.152 0-4.201.924-5.624 2.539-6.239 7.072-15.203 11.283-24.591 11.552-4.049.117-7.277 3.439-7.277 7.497v120.12c0 4.142 3.358 7.5 7.5 7.5h497c4.142 0 7.5-3.358 7.5-7.5v-120.12c0-4.058-3.228-7.38-7.285-7.497zm-7.715 120.117h-482v-105.885c8.245-1.498 16.013-5.1 22.496-10.428 8.737 7.195 19.761 11.211 31.218 11.211 11.455 0 22.478-4.015 31.214-11.208 8.736 7.192 19.759 11.208 31.214 11.208s22.478-4.015 31.214-11.208c8.736 7.192 19.759 11.208 31.214 11.208s22.478-4.015 31.214-11.208c8.736 7.192 19.759 11.208 31.214 11.208s22.478-4.015 31.214-11.208c8.736 7.192 19.759 11.208 31.214 11.208s22.478-4.015 31.214-11.208c8.736 7.192 19.758 11.208 31.214 11.208s22.479-4.015 31.214-11.208c8.736 7.192 19.759 11.208 31.214 11.208 11.457 0 22.481-4.016 31.218-11.211 6.483 5.328 14.251 8.93 22.496 10.428v105.885z"/><path d="m7.5 347.792h169.86c14.023 0 27.207-5.461 37.123-15.377l21.214-21.213c5.422-5.423 12.633-8.41 20.303-8.41s14.88 2.986 20.303 8.41l21.213 21.213c9.916 9.916 23.1 15.377 37.123 15.377h169.861c4.142 0 7.5-3.358 7.5-7.5 0-28.949-23.551-52.5-52.5-52.5h-125.376c77.783-31.114 132.876-107.24 132.876-196 0-4.142-3.358-7.5-7.5-7.5-24.292 0-48.008 4.097-70.654 12.181-1.18-23.433-6.304-47.051-15.783-69.937-.761-1.838-2.221-3.298-4.059-4.059s-3.902-.761-5.74 0c-22.442 9.296-42.785 22.156-60.614 38.292-10.057-21.198-23.83-41.057-41.346-58.573-2.929-2.929-7.678-2.929-10.606 0-17.516 17.516-31.288 37.375-41.346 58.573-17.829-16.136-38.172-28.996-60.614-38.292-3.826-1.585-8.214.231-9.799 4.059-9.282 22.408-14.532 46.08-15.737 69.953-22.662-8.095-46.394-12.197-70.702-12.197-4.142 0-7.5 3.358-7.5 7.5 0 88.759 55.093 164.886 132.876 196h-125.376c-28.949 0-52.5 23.551-52.5 52.5 0 4.142 3.358 7.5 7.5 7.5zm488.747-15h-161.607c-10.017 0-19.434-3.901-26.517-10.983l-19.017-19.017h170.394c18.109 0 33.262 12.905 36.747 30zm-203.233-48.518c59.032-38.284 94.267-103.364 96.03-171.871 20.114-7.784 41.187-12.136 62.809-12.965-3.546 92.012-70.827 167.946-158.839 184.836zm68.981-244.877c17.161 46.368 16.199 96.798-2.879 142.855-15.247 36.81-40.657 67.406-73.176 88.755 39.923-57.969 47.584-131.608 22.988-195.596 15.605-14.889 33.409-26.975 53.067-36.014zm-105.995-21.082c69.353 74.912 69.353 191.251 0 266.163-69.353-74.912-69.353-191.252 0-266.163zm-195.853 81.123c21.636.829 42.723 5.186 62.849 12.98.517 20.583 4.039 41.139 10.608 60.991 1.042 3.151 3.973 5.146 7.119 5.146.781 0 1.575-.123 2.357-.382 3.933-1.301 6.065-5.544 4.764-9.476-13.961-42.19-13.147-87.807 2.164-129.298 19.657 9.039 37.46 21.124 53.064 36.012-24.582 63.949-16.944 137.537 22.916 195.49-28.381-18.741-51.601-44.707-67.082-75.5-1.86-3.7-6.368-5.193-10.069-3.332-3.701 1.86-5.193 6.369-3.332 10.069 16.908 33.633 42.398 61.911 73.563 82.152-88.052-16.859-155.374-92.812-158.921-184.852zm-7.647 203.354h170.394l-19.017 19.017c-7.083 7.083-16.5 10.983-26.517 10.983h-161.607c3.485-17.095 18.638-30 36.747-30z"/></g></svg>