<svg id="Capa_1" enable-background="new 0 0 512 512" height="512" viewBox="0 0 512 512" width="512" xmlns="http://www.w3.org/2000/svg"><g><path d="m489.5 392h-31.755c-3.484-17.096-18.635-30-36.745-30-5.173 0-10.286 1.075-15 3.133-4.714-2.058-9.827-3.133-15-3.133s-10.286 1.075-15 3.133c-4.714-2.058-9.827-3.133-15-3.133s-10.286 1.075-15 3.133c-4.714-2.058-9.827-3.133-15-3.133s-10.286 1.075-15 3.133c-4.714-2.058-9.827-3.133-15-3.133s-10.286 1.075-15 3.133c-4.714-2.058-9.827-3.133-15-3.133s-10.286 1.075-15 3.133c-4.713-2.058-9.827-3.133-15-3.133s-10.286 1.075-15 3.133c-4.714-2.058-9.827-3.133-15-3.133s-10.286 1.075-15 3.133c-4.714-2.058-9.827-3.133-15-3.133s-10.286 1.075-15 3.133c-2.096-.915-4.273-1.624-6.497-2.142 2.869-9.141 11.553-15.991 21.497-15.991h15c50.46 0 93.444-40.704 97.229-90.384 31.597-3.38 56.737-28.654 59.922-60.308 15.048-2.918 26.906-14.859 29.708-29.948 15.637-2.904 27.896-15.534 30.233-31.36h69.486c8.26 0 16.197-3.597 21.779-9.87 5.733-6.443 8.442-15.098 7.431-23.745-1.76-15.042-14.566-26.385-29.788-26.385h-24.751c-4.547-17.501-19.178-30-36.249-30h-23.034c-3.651-25.409-25.564-45-51.966-45h-180c-26.402 0-48.315 19.591-51.966 45h-23.034c-17.072 0-31.703 12.499-36.249 30h-24.751c-15.223 0-28.029 11.343-29.789 26.385-1.012 8.647 1.697 17.302 7.43 23.746 5.582 6.272 13.52 9.87 21.779 9.87h69.487c2.337 15.826 14.596 28.456 30.233 31.36 2.802 15.087 14.657 27.026 29.703 29.947 3.134 31.148 27.536 56.098 58.421 60.109-3.139 8.747-11.863 15.583-21.264 15.583h-15c-50.57 0-93.626 40.881-97.248 90.709-14.79 2.909-26.49 14.535-29.498 29.291h-31.754c-12.407 0-22.5 10.093-22.5 22.5s10.093 22.5 22.5 22.5h9.437l14.675 48.388c4.824 15.917 19.246 26.612 35.888 26.612h347c16.641 0 31.063-10.694 35.888-26.611l14.674-48.389h9.438c12.406 0 22.5-10.093 22.5-22.5s-10.094-22.5-22.5-22.5zm-136-211.29v-45.71h15v24.5c0 9.777-6.271 18.114-15 21.21zm30-30v-15.71h14.317c-1.845 7.315-7.281 13.215-14.317 15.71zm-364.652-35.551c-2.933-3.296-4.26-7.568-3.738-12.031.875-7.484 7.277-13.128 14.89-13.128h31c3.843 0 7.064-2.905 7.46-6.728 1.373-13.267 11.062-23.272 22.54-23.272h30c4.142 0 7.5-3.358 7.5-7.5 0-20.678 16.822-37.5 37.5-37.5h180c20.678 0 37.5 16.822 37.5 37.5 0 4.142 3.357 7.5 7.5 7.5h30c11.477 0 21.167 10.005 22.54 23.272.396 3.823 3.617 6.728 7.46 6.728h31c7.613 0 14.015 5.644 14.891 13.127.521 4.463-.806 8.736-3.738 12.031-2.737 3.077-6.592 4.841-10.573 4.841h-453.16c-3.981.001-7.835-1.764-10.572-4.84zm274.652 19.841h15v54.5c0 9.778-6.27 18.12-15 21.215zm-75 75.71c-8.729-3.096-15-11.432-15-21.21v-54.5h15zm-104.317-75.71h14.317v15.71c-7.036-2.495-12.472-8.394-14.317-15.71zm29.317 24.5v-24.5h15v45.71c-8.729-3.096-15-11.432-15-21.21zm30 30v-54.5h15v54.5c0 18.11 12.904 33.261 30 36.745v15.21c-25.407-3.651-45-25.553-45-51.955zm7.5 97.5h15c19.977 0 37.5-17.523 37.5-37.5v-114.5h15v54.5c0 4.142 3.358 7.5 7.5 7.5 4.143 0 7.5-3.358 7.5-7.5v-54.5h15v84.5c0 4.142 3.357 7.5 7.5 7.5 20.678 0 37.5-16.822 37.5-37.5v-54.5h15v54.5c0 28.949-23.552 52.5-52.5 52.5-4.143 0-7.5 3.358-7.5 7.5 0 44.72-37.78 82.5-82.5 82.5h-15c-17.991 0-33.501 13.456-36.831 30.641-2.807.521-5.551 1.349-8.169 2.492-2.268-.99-4.629-1.746-7.044-2.271 3.381-25.459 25.831-45.862 52.044-45.862h15c36.589 0 67.5-30.911 67.5-67.5v-30c0-4.142-3.357-7.5-7.5-7.5-4.142 0-7.5 3.358-7.5 7.5v30c0 28.458-24.042 52.5-52.5 52.5h-15c-34.297 0-63.605 27.16-67.142 60.698-2.698.524-5.336 1.334-7.858 2.435-2.314-1.01-4.726-1.781-7.193-2.306 3.53-41.739 39.719-75.827 82.193-75.827zm-90 90c3.947 0 7.835 1.042 11.243 3.015 2.324 1.345 5.189 1.345 7.514 0 3.408-1.973 7.296-3.015 11.243-3.015s7.835 1.042 11.243 3.015c2.324 1.345 5.189 1.345 7.514 0 3.408-1.973 7.296-3.015 11.243-3.015s7.835 1.042 11.243 3.015c2.324 1.345 5.189 1.345 7.514 0 3.408-1.973 7.296-3.015 11.243-3.015s7.835 1.042 11.243 3.015c2.324 1.345 5.189 1.345 7.514 0 3.408-1.973 7.296-3.015 11.243-3.015s7.835 1.042 11.243 3.015c2.324 1.345 5.189 1.345 7.514 0 3.408-1.973 7.296-3.015 11.243-3.015s7.835 1.042 11.243 3.015c2.323 1.345 5.189 1.344 7.513 0 3.409-1.973 7.297-3.015 11.244-3.015s7.835 1.042 11.244 3.015c2.322 1.345 5.189 1.345 7.512 0 3.409-1.973 7.297-3.015 11.244-3.015s7.835 1.042 11.244 3.015c2.322 1.345 5.189 1.345 7.512 0 3.409-1.973 7.297-3.015 11.244-3.015s7.835 1.042 11.244 3.015c2.322 1.345 5.189 1.345 7.512 0 3.409-1.973 7.297-3.015 11.244-3.015s7.835 1.042 11.244 3.015c2.322 1.345 5.189 1.345 7.512 0 3.409-1.973 7.297-3.015 11.244-3.015s7.835 1.042 11.244 3.015c2.322 1.345 5.189 1.345 7.512 0 3.409-1.973 7.297-3.015 11.244-3.015 9.777 0 18.114 6.271 21.21 15h-372.42c3.096-8.729 11.432-15 21.21-15zm360.033 104.037c-2.848 9.399-11.704 15.963-21.533 15.963h-347c-9.83 0-18.685-6.564-21.533-15.964l-13.355-44.036h416.776zm38.467-59.037h-467c-4.136 0-7.5-3.364-7.5-7.5s3.364-7.5 7.5-7.5h467c4.136 0 7.5 3.364 7.5 7.5s-3.364 7.5-7.5 7.5z"/></g></svg>