<svg id="Capa_1" enable-background="new 0 0 512 512" height="512" viewBox="0 0 512 512" width="512" xmlns="http://www.w3.org/2000/svg"><g><path d="m464.445 157.245c28.815-13.413 47.555-42.29 47.555-74.745 0-45.491-37.01-82.5-82.5-82.5-33.589 0-61.518 24.664-66.649 56.831-1.362-.733-2.723-1.468-4.099-2.172-31.998-16.363-66.568-24.659-102.752-24.659s-70.754 8.296-102.752 24.659c-1.376.704-2.737 1.439-4.099 2.172-5.131-32.167-33.06-56.831-66.649-56.831-45.49 0-82.5 37.009-82.5 82.5 0 32.455 18.74 61.332 47.555 74.745l-8.451 11.268c-25.582 34.112-39.104 74.737-39.104 117.487 0 77.703 45.971 148.146 117.115 179.461l75.495 33.249c20.036 8.819 41.363 13.29 63.39 13.29s43.354-4.471 63.391-13.291l75.493-33.248c71.145-31.315 117.116-101.758 117.116-179.461 0-42.75-13.522-83.375-39.104-117.486zm-34.945-142.245c37.22 0 67.5 30.28 67.5 67.5 0 27.625-16.592 52.083-41.797 62.422l-18.292-24.39c-16.387-21.85-36.833-40.708-59.852-55.368 1.227-27.868 24.276-50.164 52.441-50.164zm-414.5 67.5c0-37.22 30.28-67.5 67.5-67.5 28.165 0 51.214 22.296 52.441 50.164-23.018 14.66-43.465 33.518-59.852 55.368l-18.292 24.39c-25.205-10.339-41.797-34.797-41.797-62.422zm373.84 369.234-75.493 33.248c-18.119 7.975-37.413 12.018-57.347 12.018s-39.228-4.043-57.346-12.018l-75.495-33.249c-65.704-28.921-108.159-93.975-108.159-165.733 0-39.479 12.484-76.992 36.104-108.486l35.984-47.982c40.29-53.721 101.856-84.532 168.912-84.532s128.622 30.811 168.911 84.532l35.984 47.982c23.621 31.494 36.105 69.007 36.105 108.486 0 71.758-42.455 136.812-108.16 165.734z"/><path d="m226 147c4.143 0 7.5-3.358 7.5-7.5v-15c0-4.142-3.357-7.5-7.5-7.5s-7.5 3.358-7.5 7.5v15c0 4.142 3.357 7.5 7.5 7.5z"/><path d="m256 192c4.143 0 7.5-3.358 7.5-7.5v-15c0-4.142-3.357-7.5-7.5-7.5s-7.5 3.358-7.5 7.5v15c0 4.142 3.357 7.5 7.5 7.5z"/><path d="m286 147c4.143 0 7.5-3.358 7.5-7.5v-15c0-4.142-3.357-7.5-7.5-7.5s-7.5 3.358-7.5 7.5v15c0 4.142 3.357 7.5 7.5 7.5z"/><path d="m271 347h-30c-20.678 0-37.5 16.822-37.5 37.5 0 3.228 2.065 6.094 5.128 7.115l39.872 13.291v9.594c0 12.407-10.094 22.5-22.5 22.5-4.143 0-7.5 3.358-7.5 7.5s3.357 7.5 7.5 7.5c12.253 0 23.152-5.907 30-15.023 6.848 9.116 17.747 15.023 30 15.023 4.143 0 7.5-3.358 7.5-7.5s-3.357-7.5-7.5-7.5c-12.406 0-22.5-10.093-22.5-22.5v-9.594l39.872-13.291c3.063-1.021 5.128-3.887 5.128-7.115 0-20.678-16.822-37.5-37.5-37.5zm-15 44.594-36.893-12.297c2.354-9.907 11.277-17.297 21.893-17.297h30c10.616 0 19.539 7.39 21.893 17.297z"/><path d="m233.5 294.5v-35c0-28.949-23.552-52.5-52.5-52.5-13.527 0-26.38 5.144-36.189 14.484l-25.338 24.137c-13.525 12.878-20.973 30.236-20.973 48.879 0 12.065 3.236 23.921 9.36 34.285 2.107 3.567 6.707 4.75 10.272 2.642 3.565-2.107 4.749-6.706 2.642-10.272-4.759-8.055-7.274-17.272-7.274-26.655 0-14.497 5.795-27.998 16.317-38.017l25.338-24.137c7.007-6.672 16.186-10.346 25.845-10.346 20.678 0 37.5 16.822 37.5 37.5v35c0 28.949-23.552 52.5-52.5 52.5-9.384 0-18.601-2.515-26.654-7.274-3.567-2.107-8.166-.923-10.272 2.642-2.107 3.566-.925 8.166 2.642 10.272 10.362 6.124 22.218 9.36 34.284 9.36 37.22 0 67.5-30.28 67.5-67.5z"/><path d="m367.188 221.483c-9.808-9.339-22.661-14.483-36.188-14.483-28.948 0-52.5 23.551-52.5 52.5v35c0 37.22 30.28 67.5 67.5 67.5s67.5-30.28 67.5-67.5c0-18.642-7.448-36-20.972-48.877zm-21.188 125.517c-28.948 0-52.5-23.551-52.5-52.5v-35c0-20.678 16.822-37.5 37.5-37.5 9.659 0 18.838 3.674 25.844 10.345l25.339 24.138c10.522 10.02 16.317 23.521 16.317 38.017 0 28.949-23.552 52.5-52.5 52.5z"/><path d="m203.5 259.5c0-12.407-10.094-22.5-22.5-22.5s-22.5 10.093-22.5 22.5 10.094 22.5 22.5 22.5 22.5-10.093 22.5-22.5zm-30 0c0-4.136 3.364-7.5 7.5-7.5s7.5 3.364 7.5 7.5-3.364 7.5-7.5 7.5-7.5-3.364-7.5-7.5z"/><path d="m331 237c-12.406 0-22.5 10.093-22.5 22.5s10.094 22.5 22.5 22.5 22.5-10.093 22.5-22.5-10.094-22.5-22.5-22.5zm0 30c-4.136 0-7.5-3.364-7.5-7.5s3.364-7.5 7.5-7.5 7.5 3.364 7.5 7.5-3.364 7.5-7.5 7.5z"/></g></svg>