<svg id="Capa_1" enable-background="new 0 0 512 512" height="512" viewBox="0 0 512 512" width="512" xmlns="http://www.w3.org/2000/svg"><g><path d="m504.5 300h-76v-105h52.5c4.143 0 7.5-3.358 7.5-7.5s-3.357-7.5-7.5-7.5c-28.948 0-52.5-23.551-52.5-52.5 0-4.142-3.357-7.5-7.5-7.5h-52.5v-30h52.5c4.143 0 7.5-3.358 7.5-7.5s-3.357-7.5-7.5-7.5c-28.948 0-52.5-23.551-52.5-52.5v-15c0-4.142-3.357-7.5-7.5-7.5s-7.5 3.358-7.5 7.5v7.5h-195v-7.5c0-4.142-3.357-7.5-7.5-7.5s-7.5 3.358-7.5 7.5v15c0 28.949-23.552 52.5-52.5 52.5-4.143 0-7.5 3.358-7.5 7.5s3.357 7.5 7.5 7.5h52.5v30h-52.5c-4.143 0-7.5 3.358-7.5 7.5 0 28.949-23.552 52.5-52.5 52.5-4.143 0-7.5 3.358-7.5 7.5s3.357 7.5 7.5 7.5h52.5v105h-76c-4.143 0-7.5 3.358-7.5 7.5v197c0 4.142 3.357 7.5 7.5 7.5h497c4.143 0 7.5-3.358 7.5-7.5v-197c0-4.142-3.357-7.5-7.5-7.5zm-106 0v-60h15v60zm-70 0v-60h55v60zm-30 0v-60h15v60zm-70 0v-60h55v60zm-30 0v-60h15v60zm-70 0v-60h55v60zm225-180h-67.5v-30h67.5zm-112.5 0v-30h30v30zm-82.918-90h195.836c2.012 18.118 11.221 34.097 24.7 45h-245.236c13.479-10.903 22.688-26.882 24.7-45zm.418 60h67.5v30h-67.5zm-60.414 45h315.828c2.012 18.118 11.226 34.098 24.704 45h-365.236c13.478-10.902 22.692-26.882 24.704-45zm315.414 60v30h-315v-30zm-315 45h15v60h-15zm-30 202v-15h85v15zm55 15v40h-25v-40zm75-45v-15h115v15zm85 15v70h-55v-70zm75 15v-15h85v15zm55 15v40h-25v-40zm83.5 40h-68.5v-40h22.5c4.143 0 7.5-3.358 7.5-7.5v-30c0-4.142-3.357-7.5-7.5-7.5h-100c-4.143 0-7.5 3.358-7.5 7.5v30c0 4.142 3.357 7.5 7.5 7.5h22.5v40h-75v-70h22.5c4.143 0 7.5-3.358 7.5-7.5v-30c0-4.142-3.357-7.5-7.5-7.5h-130c-4.143 0-7.5 3.358-7.5 7.5v30c0 4.142 3.357 7.5 7.5 7.5h22.5v70h-75v-40h22.5c4.143 0 7.5-3.358 7.5-7.5v-30c0-4.142-3.357-7.5-7.5-7.5h-100c-4.143 0-7.5 3.358-7.5 7.5v30c0 4.142 3.357 7.5 7.5 7.5h22.5v40h-68.5v-182h153.5v44.5c0 4.142 3.357 7.5 7.5 7.5h15c4.143 0 7.5-3.358 7.5-7.5s-3.357-7.5-7.5-7.5h-7.5v-37h145v37h-107.5c-4.143 0-7.5 3.358-7.5 7.5s3.357 7.5 7.5 7.5h115c4.143 0 7.5-3.358 7.5-7.5v-44.5h153.5z"/></g></svg>