<svg id="Capa_1" enable-background="new 0 0 512 512" height="512" viewBox="0 0 512 512" width="512" xmlns="http://www.w3.org/2000/svg"><g><path d="m241 150h30c4.142 0 7.5-3.358 7.5-7.5v-30c0-12.407-10.093-22.5-22.5-22.5s-22.5 10.093-22.5 22.5v30c0 4.142 3.358 7.5 7.5 7.5zm7.5-37.5c0-4.136 3.364-7.5 7.5-7.5s7.5 3.364 7.5 7.5v22.5h-15z"/><path d="m301 150h30c4.142 0 7.5-3.358 7.5-7.5v-30c0-12.407-10.093-22.5-22.5-22.5s-22.5 10.093-22.5 22.5v30c0 4.142 3.358 7.5 7.5 7.5zm7.5-37.5c0-4.136 3.364-7.5 7.5-7.5s7.5 3.364 7.5 7.5v22.5h-15z"/><path d="m218.5 142.5v-30c0-12.407-10.093-22.5-22.5-22.5s-22.5 10.093-22.5 22.5v30c0 4.142 3.358 7.5 7.5 7.5h30c4.142 0 7.5-3.358 7.5-7.5zm-15-7.5h-15v-22.5c0-4.136 3.364-7.5 7.5-7.5s7.5 3.364 7.5 7.5z"/><path d="m504.5 135h-136v-127.5c0-4.142-3.358-7.5-7.5-7.5h-30c-4.142 0-7.5 3.358-7.5 7.5v22.5h-15v-22.5c0-4.142-3.358-7.5-7.5-7.5h-30c-4.142 0-7.5 3.358-7.5 7.5v22.5h-15v-22.5c0-4.142-3.358-7.5-7.5-7.5h-30c-4.142 0-7.5 3.358-7.5 7.5v22.5h-15v-22.5c0-4.142-3.358-7.5-7.5-7.5h-30c-4.142 0-7.5 3.358-7.5 7.5v127.5h-135.917c-4.142 0-7.499 3.357-7.5 7.498l-.013 59.031c-.041.319-.07.641-.07.971 0 .329.028.65.069.968l-.069 301.03c0 1.99.79 3.898 2.196 5.305 1.407 1.406 3.315 2.197 5.304 2.197h497c4.142 0 7.5-3.358 7.5-7.5v-362c0-4.142-3.358-7.5-7.5-7.5zm-7.5 15v45h-128.5v-45zm-481.932 60h128.432v118.589c-34.962-6.707-76.267-11.165-128.457-11.558zm143.432-30h22.5c4.142 0 7.5-3.358 7.5-7.5s-3.358-7.5-7.5-7.5h-22.5v-90h195v90h-142.5c-4.142 0-7.5 3.358-7.5 7.5s3.358 7.5 7.5 7.5h142.5v151.682c-37.563 8.291-67.871 19.115-97.5 29.842-29.629-10.727-59.937-21.551-97.5-29.842zm338.5 152.032v74.936c-105.061-.804-165.11-18.463-218.822-37.468 53.712-19.005 113.761-36.664 218.822-37.468zm-128.5-3.443v-118.589h128.5v107.031c-52.21.391-93.528 4.85-128.5 11.558zm-195-313.589v22.5c0 4.142 3.358 7.5 7.5 7.5h30c4.142 0 7.5-3.358 7.5-7.5v-22.5h15v22.5c0 4.142 3.358 7.5 7.5 7.5h30c4.142 0 7.5-3.358 7.5-7.5v-22.5h15v22.5c0 4.142 3.358 7.5 7.5 7.5h30c4.142 0 7.5-3.358 7.5-7.5v-22.5h15v45h-195v-45zm-30 135v45h-128.429l.01-45zm-128.498 347 .038-164.968c117.97.907 179.18 23.07 238.406 44.519 60.451 21.894 122.929 44.515 243.554 45.417v75.032z"/><path d="m226 422.006c-4.142 0-7.5 3.358-7.5 7.5v15c0 4.142 3.358 7.5 7.5 7.5s7.5-3.358 7.5-7.5v-15c0-4.142-3.358-7.5-7.5-7.5z"/><path d="m37.5 437.006c-4.142 0-7.5 3.358-7.5 7.5v15c0 4.142 3.358 7.5 7.5 7.5s7.5-3.358 7.5-7.5v-15c0-4.142-3.358-7.5-7.5-7.5z"/><path d="m67.5 452.006c-4.142 0-7.5 3.358-7.5 7.5v15c0 4.142 3.358 7.5 7.5 7.5s7.5-3.358 7.5-7.5v-15c0-4.142-3.358-7.5-7.5-7.5z"/><path d="m195.986 437.006c-4.142 0-7.5 3.358-7.5 7.5v15c0 4.142 3.358 7.5 7.5 7.5s7.5-3.358 7.5-7.5v-15c0-4.142-3.358-7.5-7.5-7.5z"/><path d="m166 422.006c-4.142 0-7.5 3.358-7.5 7.5v15c0 4.142 3.358 7.5 7.5 7.5s7.5-3.358 7.5-7.5v-15c0-4.142-3.358-7.5-7.5-7.5z"/><path d="m474.5 437.006c-4.142 0-7.5 3.358-7.5 7.5v15c0 4.142 3.358 7.5 7.5 7.5s7.5-3.358 7.5-7.5v-15c0-4.142-3.358-7.5-7.5-7.5z"/><path d="m444.5 452.006c-4.142 0-7.5 3.358-7.5 7.5v15c0 4.142 3.358 7.5 7.5 7.5s7.5-3.358 7.5-7.5v-15c0-4.142-3.358-7.5-7.5-7.5z"/></g></svg>