<svg id="Capa_1" enable-background="new 0 0 512 512" height="512" viewBox="0 0 512 512" width="512" xmlns="http://www.w3.org/2000/svg"><g><path d="m437.02 74.98c-48.353-48.351-112.64-74.98-181.02-74.98s-132.667 26.629-181.02 74.98c-48.351 48.353-74.98 112.64-74.98 181.02s26.629 132.667 74.98 181.02c48.353 48.351 112.64 74.98 181.02 74.98s132.667-26.629 181.02-74.98c48.351-48.353 74.98-112.64 74.98-181.02s-26.629-132.667-74.98-181.02zm-181.02 422.02c-132.888 0-241-108.112-241-241s108.112-241 241-241 241 108.112 241 241-108.112 241-241 241z"/><path d="m415.806 96.194c-42.685-42.686-99.439-66.194-159.806-66.194-54.612 0-107.335 19.748-148.458 55.605-3.122 2.722-3.446 7.46-.724 10.582 2.722 3.123 7.46 3.445 10.582.724 38.391-33.475 87.613-51.911 138.6-51.911 116.346 0 211 94.654 211 211s-94.654 211-211 211-211-94.654-211-211c0-50.987 18.436-100.209 51.911-138.6 2.722-3.122 2.398-7.86-.724-10.582-3.121-2.721-7.859-2.398-10.582.724-35.857 41.123-55.605 93.846-55.605 148.458 0 60.367 23.508 117.121 66.194 159.806s99.439 66.194 159.806 66.194 117.121-23.508 159.806-66.194 66.194-99.439 66.194-159.806-23.508-117.121-66.194-159.806z"/><path d="m256 437c99.804 0 181-81.196 181-181s-81.196-181-181-181-181 81.196-181 181 81.196 181 181 181zm0-347c91.533 0 166 74.467 166 166s-74.467 166-166 166-166-74.467-166-166 74.467-166 166-166z"/><path d="m256 390.5c62.584 0 113.5-50.916 113.5-113.5 0-38.11-13.564-77.655-37.215-108.497-22.57-29.432-51.088-47.003-76.285-47.003s-53.715 17.571-76.285 47.003c-23.651 30.842-37.215 70.387-37.215 108.497 0 62.584 50.916 113.5 113.5 113.5zm-64.382-212.869c19.456-25.37 44.125-41.131 64.382-41.131s44.926 15.761 64.382 41.131c21.682 28.275 34.118 64.494 34.118 99.369 0 54.313-44.187 98.5-98.5 98.5s-98.5-44.187-98.5-98.5c0-34.875 12.436-71.094 34.118-99.369z"/><path d="m256 360.5c46.042 0 83.5-37.458 83.5-83.5s-37.458-83.5-83.5-83.5-83.5 37.458-83.5 83.5 37.458 83.5 83.5 83.5zm0-152c37.771 0 68.5 30.729 68.5 68.5s-30.729 68.5-68.5 68.5-68.5-30.729-68.5-68.5 30.729-68.5 68.5-68.5z"/></g></svg>