<svg id="Capa_1" enable-background="new 0 0 512.739 512.739" height="512" viewBox="0 0 512.739 512.739" width="512" xmlns="http://www.w3.org/2000/svg"><g><path d="m151 128.869c4.143 0 7.5-3.358 7.5-7.5 0-36.212 15.176-55.351 27.371-70.731 10.234-12.907 17.629-22.232 17.629-42.769 0-4.142-3.357-7.5-7.5-7.5s-7.5 3.358-7.5 7.5c0 15.311-4.807 21.373-14.385 33.452-12.191 15.376-30.615 38.611-30.615 80.048 0 4.143 3.357 7.5 7.5 7.5z"/><path d="m173.5 121.369c0 4.142 3.357 7.5 7.5 7.5s7.5-3.358 7.5-7.5c0-25.762 10.141-38.551 20.877-52.09 11.307-14.26 24.123-30.422 24.123-61.41 0-4.142-3.357-7.5-7.5-7.5s-7.5 3.358-7.5 7.5c0 25.762-10.141 38.551-20.877 52.09-11.307 14.261-24.123 30.423-24.123 61.41z"/><path d="m505.239 316.631c-85.519 0-157.9 57.321-180.739 135.562-4.047-13.863-9.656-27.065-16.611-39.411l24.078-260.722c.194-2.1-.505-4.185-1.926-5.743s-3.433-2.446-5.542-2.446h-316.999c-2.109 0-4.121.888-5.542 2.446-1.421 1.559-2.12 3.643-1.926 5.743l30.134 326.294c1.792 19.392 17.842 34.016 37.334 34.016h197c6.4 0 12.601-1.626 18.138-4.698 13.468 3.07 27.478 4.698 41.862 4.698 103.796 0 188.239-84.443 188.239-188.239 0-4.142-3.357-7.5-7.5-7.5zm-41.205 19.961c-23.91 14.578-48.119 33.818-70.687 56.386-22.574 22.573-41.812 46.786-56.39 70.701 15.301-62.488 64.591-111.781 127.077-127.087zm-312.388-.91c63.42 29.342 131.962 97.884 161.303 161.304-86.336-5.715-155.589-74.968-161.303-161.304zm104.007 57.296c-22.569-22.568-46.778-41.809-70.688-56.386 62.486 15.306 111.775 64.598 127.077 127.086-14.579-23.915-33.817-48.127-56.389-70.7zm-188.153 104.391c-11.694 0-21.323-8.769-22.398-20.396l-29.378-318.104h300.551l-21.577 233.645c-4.22-5.655-8.753-11.063-13.568-16.205l15.169-164.25c.194-2.1-.505-4.185-1.926-5.744-1.421-1.558-3.433-2.446-5.542-2.446-17.088 0-26.073 4.389-34.001 8.261-7.402 3.616-13.796 6.739-27.417 6.739s-20.015-3.123-27.417-6.739c-7.928-3.872-16.913-8.261-34.001-8.261-17.087 0-26.072 4.389-33.999 8.261-7.402 3.616-13.796 6.739-27.416 6.739-13.619 0-20.012-3.123-27.414-6.739-7.927-3.873-16.911-8.261-33.998-8.261-2.109 0-4.121.888-5.542 2.446-1.421 1.559-2.12 3.643-1.926 5.743l18.791 203.5c.358 3.89 3.628 6.811 7.459 6.811.23 0 .464-.011.698-.032 4.125-.381 7.159-4.033 6.778-8.158l-17.991-194.856c8.312.992 13.429 3.492 19.147 6.285 7.927 3.873 16.911 8.261 33.998 8.261 17.088 0 26.073-4.389 34-8.261 7.402-3.616 13.796-6.739 27.415-6.739 13.621 0 20.015 3.123 27.417 6.739 7.928 3.872 16.913 8.261 34.001 8.261s26.073-4.389 34.001-8.261c5.72-2.794 10.837-5.294 19.15-6.286l-13.264 143.641c-33.084-28.839-76.305-46.332-123.538-46.332-4.143 0-7.5 3.358-7.5 7.5 0 57.295 25.738 108.685 66.251 143.239h-128.174l-2.142-23.189c-.38-4.125-4.026-7.157-8.157-6.779-4.125.381-7.16 4.033-6.778 8.158l2.771 30c.355 3.859 3.593 6.811 7.468 6.811h155.155c8.921 5.762 18.358 10.791 28.225 15h-183.381zm268.55-.384c29.342-63.42 97.884-131.962 161.305-161.304-5.714 86.336-74.967 155.59-161.305 161.304z"/></g></svg>