<svg id="Capa_1" enable-background="new 0 0 512 512" height="512" viewBox="0 0 512 512" width="512" xmlns="http://www.w3.org/2000/svg"><g><circle cx="350.25" cy="181" r="7.5"/><path d="m474.5 267.75h-64.25c-12.254 0-23.153 5.909-30 15.026-2.14-2.85-4.676-5.386-7.526-7.526 9.117-6.847 15.026-17.746 15.026-30v-64.25c0-20.678-16.822-37.5-37.5-37.5h-64.25c-12.254 0-23.153 5.909-30 15.026-6.847-9.117-17.746-15.026-30-15.026h-64.25c-20.678 0-37.5 16.822-37.5 37.5v64.25c0 12.254 5.909 23.153 15.026 30-2.85 2.14-5.386 4.676-7.526 7.526-6.847-9.117-17.746-15.026-30-15.026h-64.25c-20.678 0-37.5 16.822-37.5 37.5v64.25c0 20.678 16.822 37.5 37.5 37.5h64.25c12.254 0 23.153-5.909 30-15.026 6.847 9.117 17.746 15.026 30 15.026h64.25c12.254 0 23.153-5.909 30-15.026 6.847 9.117 17.746 15.026 30 15.026h64.25c12.254 0 23.153-5.909 30-15.026 6.847 9.117 17.746 15.026 30 15.026h64.25c20.678 0 37.5-16.822 37.5-37.5v-64.25c0-20.678-16.822-37.5-37.5-37.5zm-188.5-109.25h64.25c12.406 0 22.5 10.093 22.5 22.5v64.25c0 12.407-10.094 22.5-22.5 22.5h-64.25c-12.406 0-22.5-10.093-22.5-22.5v-64.25c0-12.407 10.094-22.5 22.5-22.5zm-30 124.276c-2.14-2.85-4.676-5.386-7.526-7.526 2.85-2.14 5.386-4.676 7.526-7.526 2.14 2.85 4.676 5.386 7.526 7.526-2.85 2.14-5.386 4.676-7.526 7.526zm-116.75-37.526v-64.25c0-12.407 10.094-22.5 22.5-22.5h64.25c12.406 0 22.5 10.093 22.5 22.5v64.25c0 12.407-10.094 22.5-22.5 22.5h-64.25c-12.406 0-22.5-10.093-22.5-22.5zm-37.5 146.75h-64.25c-12.406 0-22.5-10.093-22.5-22.5v-64.25c0-12.407 10.094-22.5 22.5-22.5h64.25c12.406 0 22.5 10.093 22.5 22.5v64.25c0 12.407-10.094 22.5-22.5 22.5zm124.25 0h-64.25c-12.406 0-22.5-10.093-22.5-22.5v-64.25c0-12.407 10.094-22.5 22.5-22.5h64.25c12.406 0 22.5 10.093 22.5 22.5v64.25c0 12.407-10.094 22.5-22.5 22.5zm124.25 0h-64.25c-12.406 0-22.5-10.093-22.5-22.5v-64.25c0-12.407 10.094-22.5 22.5-22.5h64.25c12.406 0 22.5 10.093 22.5 22.5v64.25c0 12.407-10.094 22.5-22.5 22.5zm146.75-22.5c0 12.407-10.094 22.5-22.5 22.5h-64.25c-12.406 0-22.5-10.093-22.5-22.5v-64.25c0-12.407 10.094-22.5 22.5-22.5h64.25c12.406 0 22.5 10.093 22.5 22.5z"/><path d="m489.5 422h-467c-12.406 0-22.5 10.093-22.5 22.5s10.094 22.5 22.5 22.5h8.034c3.65 25.409 25.563 45 51.966 45h347c26.402 0 48.315-19.591 51.966-45h8.034c12.406 0 22.5-10.093 22.5-22.5s-10.094-22.5-22.5-22.5zm0 30h-422c-4.143 0-7.5 3.358-7.5 7.5s3.357 7.5 7.5 7.5h398.747c-3.485 17.095-18.638 30-36.747 30h-347c-20.678 0-37.5-16.822-37.5-37.5 0-4.142-3.357-7.5-7.5-7.5h-15c-4.136 0-7.5-3.364-7.5-7.5s3.364-7.5 7.5-7.5h467c4.136 0 7.5 3.364 7.5 7.5s-3.364 7.5-7.5 7.5z"/><circle cx="37.5" cy="369.5" r="7.5"/><circle cx="67.5" cy="339.5" r="7.5"/><path d="m278.5 121c0 4.142 3.357 7.5 7.5 7.5s7.5-3.358 7.5-7.5c0-15.311 4.807-21.373 14.385-33.452 12.191-15.375 30.615-38.61 30.615-80.048 0-4.142-3.357-7.5-7.5-7.5s-7.5 3.358-7.5 7.5c0 36.212-15.176 55.351-27.371 70.731-10.234 12.907-17.629 22.233-17.629 42.769z"/><path d="m226 128.5c4.143 0 7.5-3.358 7.5-7.5 0-36.212 15.176-55.351 27.371-70.731 10.234-12.907 17.629-22.233 17.629-42.769 0-4.142-3.357-7.5-7.5-7.5s-7.5 3.358-7.5 7.5c0 15.311-4.807 21.373-14.385 33.452-12.191 15.375-30.615 38.611-30.615 80.048 0 4.142 3.357 7.5 7.5 7.5z"/><path d="m248.5 121c0 4.142 3.357 7.5 7.5 7.5s7.5-3.358 7.5-7.5c0-25.762 10.141-38.551 20.877-52.09 11.307-14.26 24.123-30.422 24.123-61.41 0-4.142-3.357-7.5-7.5-7.5s-7.5 3.358-7.5 7.5c0 25.762-10.141 38.551-20.877 52.09-11.307 14.26-24.123 30.422-24.123 61.41z"/></g></svg>