<svg id="Capa_1" enable-background="new 0 0 512 512" height="512" viewBox="0 0 512 512" width="512" xmlns="http://www.w3.org/2000/svg"><g><path d="m22.5 248.5c4.142 0 7.5-3.358 7.5-7.5 0-15.206 1.52-30.063 4.397-44.436 19.846 5.269 34.103 23.315 34.103 44.436 0 4.142 3.358 7.5 7.5 7.5s7.5-3.358 7.5-7.5c0-28.159-19.113-52.204-45.659-59.046 1.312-4.844 2.775-9.625 4.397-14.335 32.952 8.796 56.262 38.702 56.262 73.381 0 4.142 3.358 7.5 7.5 7.5s7.5-3.358 7.5-7.5c0-40.998-27.216-76.421-65.889-87.452 1.969-4.674 4.099-9.264 6.367-13.773 44.163 13.667 74.522 54.459 74.522 101.225 0 4.142 3.358 7.5 7.5 7.5s7.5-3.358 7.5-7.5c0-52.36-33.34-98.174-82.196-114.632 2.617-4.428 5.378-8.761 8.282-12.989 53.413 19.652 88.914 70.248 88.914 127.621 0 4.142 3.358 7.5 7.5 7.5s7.5-3.358 7.5-7.5c0-32.582-10.215-63.608-29.542-89.724-16.832-22.745-39.21-40.005-65.147-50.4 3.264-4.118 6.664-8.124 10.201-12.003 60.61 26.469 99.488 85.617 99.488 152.127 0 4.142 3.358 7.5 7.5 7.5s7.5-3.358 7.5-7.5c0-36.872-11.021-72.349-31.871-102.596-18.205-26.41-42.772-47.284-71.487-60.917 3.909-3.728 7.953-7.317 12.12-10.761 65.656 33.81 106.238 100.141 106.238 174.274 0 4.142 3.358 7.5 7.5 7.5s7.5-3.358 7.5-7.5c0-40.38-11.445-79.626-33.097-113.496-18.874-29.523-44.69-53.784-75.109-70.777 4.555-3.241 9.238-6.312 14.034-9.215 67.453 40.826 109.172 114.547 109.172 193.488 0 4.142 3.358 7.5 7.5 7.5s7.5-3.358 7.5-7.5c0-15.469-1.492-30.833-4.402-45.884 23.924 1.6 42.902 21.562 42.902 45.884 0 4.142 3.358 7.5 7.5 7.5s7.5-3.358 7.5-7.5c0-33.636-27.364-61-61-61-.107 0-.22.009-.328.01-1.303-4.993-2.763-9.943-4.383-14.84 1.579-.101 3.153-.17 4.711-.17 41.907 0 76 34.093 76 76 0 4.142 3.358 7.5 7.5 7.5s7.5-3.358 7.5-7.5c0-50.178-40.822-91-91-91-3.323 0-6.689.214-10.06.592-1.956-4.838-4.068-9.616-6.339-14.323 5.413-.842 10.899-1.269 16.399-1.269 58.449 0 106 47.551 106 106 0 4.142 3.358 7.5 7.5 7.5s7.5-3.358 7.5-7.5c0-66.72-54.28-121-121-121-7.967 0-15.91.795-23.693 2.342-.673-1.188-1.356-2.37-2.049-3.547-1.999-3.39-4.104-6.71-6.262-9.992 10.441-2.522 21.165-3.803 32.004-3.803 74.991 0 136 61.009 136 136 0 4.142 3.358 7.5 7.5 7.5s7.5-3.358 7.5-7.5c0-83.262-67.738-151-151-151-14.016 0-27.863 1.925-41.244 5.718-3.262-4.308-6.662-8.504-10.201-12.58 16.554-5.399 33.809-8.138 51.445-8.138 91.533 0 166 74.467 166 166 0 4.142 3.358 7.5 7.5 7.5s7.5-3.358 7.5-7.5c0-99.804-81.196-181-181-181-21.543 0-42.572 3.747-62.591 11.133-3.907-3.93-7.939-7.735-12.107-11.39 23.651-9.784 48.722-14.743 74.698-14.743 108.075 0 196 87.925 196 196 0 4.142 3.358 7.5 7.5 7.5s7.5-3.358 7.5-7.5c0-116.346-94.654-211-211-211-30.659 0-60.153 6.425-87.75 19.078-4.533-3.449-9.199-6.727-13.974-9.852 30.593-15.486 65.155-24.226 101.724-24.226 124.617 0 226 101.383 226 226 0 4.142 3.358 7.5 7.5 7.5s7.5-3.358 7.5-7.5c0-64.374-25.068-124.894-70.587-170.413-45.519-45.519-106.039-70.587-170.413-70.587s-124.894 25.068-170.413 70.587-70.587 106.039-70.587 170.413c0 4.142 3.358 7.5 7.5 7.5z"/><path d="m504.5 263.5h-497c-4.142 0-7.5 3.358-7.5 7.5v23.5c0 85.169 57.085 157.247 135 180.009v14.991c0 12.407 10.093 22.5 22.5 22.5h197c12.407 0 22.5-10.093 22.5-22.5v-14.991c77.915-22.761 135-94.839 135-180.009v-23.5c0-4.142-3.358-7.5-7.5-7.5zm-7.5 15v15h-482v-15zm-481.429 30h480.859c-.409 5.065-1.041 10.067-1.88 15h-477.099c-.839-4.933-1.472-9.935-1.88-15zm308.929 158.5h-107c-4.142 0-7.5 3.358-7.5 7.5s3.358 7.5 7.5 7.5h107c12.839 0 25.38-1.3 37.5-3.77v11.27c0 4.136-3.364 7.5-7.5 7.5h-197c-4.136 0-7.5-3.364-7.5-7.5v-11.27c12.12 2.47 24.661 3.77 37.5 3.77 4.142 0 7.5-3.358 7.5-7.5s-3.358-7.5-7.5-7.5c-79.915 0-147.303-54.628-166.805-128.5h470.609c-19.501 73.872-86.889 128.5-166.804 128.5z"/></g></svg>