<svg id="Capa_1" enable-background="new 0 0 512 512" height="512" viewBox="0 0 512 512" width="512" xmlns="http://www.w3.org/2000/svg"><g><path d="m22.5 248.5c4.142 0 7.5-3.358 7.5-7.5 0-6.349 2.574-12.221 7.248-16.535 2.796-2.581 3.216-6.847.978-9.924-3.742-5.143-5.121-11.404-3.882-17.631 1.238-6.227 4.908-11.484 10.334-14.803 3.246-1.986 4.49-6.088 2.895-9.543-2.667-5.774-2.798-12.185-.368-18.05 2.43-5.866 7.055-10.306 13.024-12.503 3.571-1.315 5.592-5.095 4.701-8.795-1.49-6.183-.367-12.496 3.16-17.774 3.528-5.279 8.93-8.732 15.213-9.722 3.759-.593 6.478-3.906 6.326-7.708-.254-6.355 2.078-12.328 6.567-16.817s10.468-6.821 16.817-6.567c3.778.131 7.115-2.567 7.708-6.326.991-6.283 4.443-11.686 9.722-15.213s11.591-4.65 17.774-3.16c3.696.889 7.48-1.129 8.795-4.701 2.197-5.969 6.637-10.594 12.503-13.024 5.866-2.429 12.276-2.299 18.05.368 3.454 1.595 7.556.352 9.543-2.895 3.319-5.426 8.576-9.096 14.803-10.334 6.227-1.239 12.489.141 17.631 3.882 3.077 2.238 7.342 1.819 9.924-.978 4.313-4.673 10.185-7.247 16.534-7.247s12.221 2.574 16.535 7.248c2.582 2.797 6.848 3.215 9.924.978 5.143-3.742 11.403-5.121 17.631-3.882 6.227 1.238 11.484 4.908 14.803 10.334 1.987 3.247 6.088 4.492 9.543 2.895 5.774-2.667 12.185-2.798 18.05-.368 5.866 2.43 10.306 7.055 12.503 13.024 1.315 3.571 5.097 5.589 8.795 4.701 6.182-1.49 12.495-.367 17.774 3.16s8.731 8.93 9.722 15.213c.593 3.759 3.936 6.464 7.708 6.326 6.357-.251 12.327 2.078 16.817 6.567 4.489 4.489 6.821 10.461 6.567 16.817-.152 3.802 2.567 7.116 6.326 7.708 6.283.991 11.686 4.443 15.213 9.722s4.65 11.591 3.16 17.774c-.891 3.7 1.129 7.48 4.701 8.795 5.969 2.197 10.594 6.637 13.024 12.503 2.43 5.865 2.299 12.275-.368 18.05-1.596 3.455-.352 7.557 2.895 9.543 5.426 3.319 9.096 8.576 10.334 14.803 1.239 6.227-.14 12.488-3.882 17.631-2.239 3.077-1.819 7.343.978 9.924 4.673 4.313 7.247 10.185 7.247 16.534 0 4.142 3.358 7.5 7.5 7.5s7.5-3.358 7.5-7.5c0-8.34-2.813-16.433-7.863-22.962 3.679-7.389 4.859-15.875 3.232-24.055s-5.965-15.568-12.191-20.987c2.167-7.965 1.669-16.518-1.522-24.223s-8.888-14.105-16.052-18.206c.571-8.234-1.586-16.525-6.22-23.46-4.633-6.934-11.468-12.1-19.294-14.724-1.046-8.188-4.779-15.899-10.677-21.796-5.897-5.897-13.609-9.63-21.796-10.677-2.624-7.826-7.79-14.661-14.724-19.294-6.936-4.634-15.225-6.792-23.46-6.22-4.1-7.164-10.5-12.86-18.206-16.052-7.706-3.191-16.257-3.688-24.223-1.522-5.418-6.227-12.807-10.564-20.986-12.191s-16.666-.448-24.055 3.232c-6.53-5.05-14.623-7.863-22.963-7.863s-16.433 2.813-22.962 7.863c-7.39-3.68-15.878-4.859-24.055-3.232-8.18 1.627-15.568 5.964-20.987 12.191-7.966-2.167-16.518-1.669-24.223 1.522s-14.105 8.888-18.206 16.052c-8.229-.571-16.526 1.586-23.46 6.22-6.934 4.633-12.1 11.468-14.724 19.294-8.187 1.047-15.9 4.78-21.796 10.677-5.897 5.897-9.63 13.608-10.677 21.796-7.826 2.623-14.661 7.789-19.294 14.724-4.634 6.935-6.791 15.226-6.22 23.46-7.164 4.1-12.86 10.5-16.052 18.206s-3.689 16.258-1.522 24.223c-6.227 5.418-10.564 12.807-12.191 20.986-1.627 8.18-.447 16.666 3.232 24.055-5.05 6.53-7.863 14.623-7.863 22.963 0 4.142 3.358 7.5 7.5 7.5z"/><ellipse cx="81.849" cy="168.864" rx="7.5" ry="7.5" transform="matrix(.982 -.189 .189 .982 -30.398 18.482)"/><circle cx="256" cy="52.5" r="7.5"/><circle cx="286" cy="82.5" r="7.5"/><path d="m383.986 102.407c-2.929 2.929-2.929 7.678 0 10.607s7.678 2.929 10.607 0 2.929-7.678 0-10.607-7.678-2.929-10.607 0z"/><path d="m504.5 263.5h-497c-4.142 0-7.5 3.358-7.5 7.5v23.5c0 85.169 57.085 157.247 135 180.009v14.991c0 12.407 10.093 22.5 22.5 22.5h197c12.407 0 22.5-10.093 22.5-22.5v-14.991c77.915-22.761 135-94.839 135-180.009v-23.5c0-4.142-3.358-7.5-7.5-7.5zm-7.5 15v15h-482v-15zm-481.429 30h480.859c-.409 5.065-1.041 10.067-1.88 15h-477.099c-.839-4.933-1.472-9.935-1.88-15zm308.929 158.5h-107c-4.142 0-7.5 3.358-7.5 7.5s3.358 7.5 7.5 7.5h107c12.839 0 25.38-1.3 37.5-3.77v11.27c0 4.136-3.364 7.5-7.5 7.5h-197c-4.136 0-7.5-3.364-7.5-7.5v-11.27c12.12 2.47 24.661 3.77 37.5 3.77 4.142 0 7.5-3.358 7.5-7.5s-3.358-7.5-7.5-7.5c-79.915 0-147.303-54.628-166.805-128.5h470.609c-19.501 73.872-86.889 128.5-166.804 128.5z"/></g></svg>