<svg id="Capa_1" enable-background="new 0 0 512 512" height="512" viewBox="0 0 512 512" width="512" xmlns="http://www.w3.org/2000/svg"><g><path d="m509.742 467.301-216.617-211.739 212.467-217.362c8.571-8.771 8.491-22.96-.179-31.629s-22.858-8.749-31.629-.177c0 0-217.784 212.88-217.784 212.88l-217.784-212.881c-8.772-8.572-22.96-8.492-31.63.177-8.669 8.67-8.748 22.858-.176 31.63l212.466 217.361-216.619 211.74c-1.433 1.401-2.246 3.317-2.257 5.32-.011 2.004.78 3.929 2.197 5.346l31.82 31.82c1.407 1.407 3.314 2.197 5.303 2.197 2.046-.012 3.962-.824 5.363-2.257l237.957-243.439 211.193 206.437-21.092 21.091-190.402-194.788c-2.896-2.962-7.645-3.016-10.605-.121-2.963 2.896-3.017 7.644-.121 10.606l195.705 200.213c1.4 1.433 3.316 2.246 5.32 2.257 2.031 0 3.939-.79 5.347-2.197l31.819-31.82c1.417-1.417 2.208-3.342 2.196-5.346-.012-2.002-.824-3.918-2.258-5.319zm-492.605-439.585c-2.856-2.923-2.832-7.651.056-10.538 2.887-2.889 7.615-2.914 10.538-.057l217.54 212.64-15.668 15.315zm22.122 466.101-21.092-21.092 466.102-455.604c2.923-2.855 7.652-2.832 10.538.056 2.889 2.888 2.913 7.616.058 10.538z"/></g></svg>