<svg id="Capa_1" enable-background="new 0 0 512.002 512.002" height="512" viewBox="0 0 512.002 512.002" width="512" xmlns="http://www.w3.org/2000/svg"><g><path d="m489.501 75.002h-29.597c1.477-14.19 7.121-27.269 16.288-37.412 4.03-4.458 6.083-10.22 5.78-16.223-.303-6.002-2.926-11.527-7.384-15.557-4.46-4.031-10.249-6.089-16.223-5.779-6.002.303-11.527 2.925-15.558 7.384-16.628 18.398-26.448 42.165-28.066 67.587h-317.482c-1.618-25.424-11.438-49.191-28.066-67.588-4.03-4.458-9.556-7.081-15.558-7.384-5.999-.31-11.764 1.749-16.223 5.779-4.458 4.03-7.081 9.555-7.384 15.557-.303 6.003 1.75 11.764 5.78 16.222 9.167 10.142 14.811 23.221 16.288 37.413h-29.595c-12.406 0-22.5 10.093-22.5 22.5s10.094 22.5 22.5 22.5c20.678 0 37.5 16.822 37.5 37.5 0 5.02-.977 9.893-2.902 14.488l-8.57 20.467c-7.317 17.458-11.027 35.978-11.027 55.045 0 44.47 20.481 84.243 52.5 110.396v110.39c-8.73 3.095-15 11.437-15 21.215 0 12.407 10.094 22.5 22.5 22.5h30c20.678 0 37.5-16.822 37.5-37.5v-85.289c4.931.518 9.934.789 15 .789h38.5v99.5c0 12.407 10.094 22.5 22.5 22.5h30c12.406 0 22.5-10.093 22.5-22.5v-99.5h38.5c5.066 0 10.069-.271 15-.789v85.289c0 20.678 16.822 37.5 37.5 37.5h30c12.406 0 22.5-10.093 22.5-22.5 0-9.778-6.27-18.12-15-21.215v-110.39c32.019-26.152 52.5-65.925 52.5-110.396 0-19.067-3.71-37.587-11.026-55.043l-8.572-20.471c-1.925-4.593-2.901-9.466-2.901-14.486 0-20.678 16.822-37.5 37.5-37.5 12.406 0 22.5-10.093 22.5-22.5s-10.096-22.499-22.502-22.499zm-35.564-57.529c1.343-1.486 3.185-2.361 5.186-2.462 1.99-.104 3.921.583 5.407 1.927s2.36 3.185 2.462 5.186c.101 2-.584 3.92-1.928 5.407-11.652 12.892-18.699 29.529-20.239 47.471h-15.029c1.586-21.684 10.002-41.887 24.141-57.529zm-407.001 10.057c-1.343-1.486-2.027-3.406-1.927-5.406.102-2.001.976-3.843 2.462-5.186 1.485-1.342 3.404-2.022 5.407-1.927 2.001.101 3.843.976 5.187 2.462 14.139 15.641 22.555 35.845 24.14 57.529h-15.029c-1.54-17.943-8.587-34.581-20.24-47.472zm12.257 92.472h174.308v30h-159.044c-1.678-11.676-7.21-22.118-15.264-30zm90.808 354.5c0 12.407-10.094 22.5-22.5 22.5h-30c-4.136 0-7.5-3.364-7.5-7.5 0-4.135 3.364-7.5 7.5-7.5 4.143 0 7.5-3.358 7.5-7.5v-105.887c13.643 8.479 28.814 14.717 45 18.199zm128.5 15c0 4.136-3.364 7.5-7.5 7.5h-30c-4.136 0-7.5-3.364-7.5-7.5v-99.5h45zm136-7.5c4.136 0 7.5 3.365 7.5 7.5 0 4.136-3.364 7.5-7.5 7.5h-30c-12.406 0-22.5-10.093-22.5-22.5v-87.688c16.186-3.482 31.357-9.72 45-18.199v105.887c0 4.142 3.357 7.5 7.5 7.5zm-82.5-107h-152c-54.159 0-100.533-33.947-118.978-81.678 5.672 4.947 12.31 9.564 19.877 13.768 26.594 14.774 61.788 22.911 99.102 22.911h152c37.313 0 72.508-8.137 99.102-22.911 7.566-4.203 14.205-8.82 19.877-13.768-18.447 47.73-64.821 81.678-118.98 81.678zm127.5-127.5c0 17.187-12.673 33.693-35.683 46.477-24.402 13.557-57.011 21.023-91.817 21.023h-152c-34.807 0-67.415-7.466-91.817-21.023-23.01-12.784-35.683-29.29-35.683-46.477 0-17.065 3.317-33.635 9.862-49.249l8.57-20.466c1.727-4.12 2.902-8.399 3.53-12.785h159.037v82.5c0 4.142 3.357 7.5 7.5 7.5s7.5-3.358 7.5-7.5v-127.5h15v157.5c0 4.136-3.364 7.5-7.5 7.5s-7.5-3.364-7.5-7.5c0-4.142-3.357-7.5-7.5-7.5s-7.5 3.358-7.5 7.5c0 12.407 10.094 22.5 22.5 22.5s22.5-10.093 22.5-22.5v-112.5h159.037c.627 4.386 1.803 8.664 3.529 12.782l8.572 20.471c6.545 15.612 9.863 32.181 9.863 49.247zm-21.956-97.5h-159.044v-30h174.308c-8.054 7.882-13.586 18.324-15.264 30zm51.956-45h-467c-4.136 0-7.5-3.364-7.5-7.5s3.364-7.5 7.5-7.5h467c4.136 0 7.5 3.364 7.5 7.5s-3.364 7.5-7.5 7.5z"/></g></svg>