<svg id="Capa_1" enable-background="new 0 0 512 512" height="512" viewBox="0 0 512 512" width="512" xmlns="http://www.w3.org/2000/svg"><g><path d="m468.248 96.747 11.528-11.528c2.989 1.429 6.274 2.208 9.685 2.208 6.01 0 11.66-2.341 15.91-6.59 8.771-8.773 8.771-23.047 0-31.82 1.63-11.59-2.241-23.455-10.607-31.82-8.366-8.367-20.232-12.238-31.813-10.599-4.256-4.257-9.907-6.598-15.916-6.598s-11.66 2.341-15.91 6.59c-6.91 6.911-8.352 17.228-4.375 25.588l-32.748 32.748-37.123-37.123c-8.772-8.772-23.048-8.771-31.82 0-8.772 8.772-8.772 23.047 0 31.819l37.124 37.124-10.606 10.606-37.124-37.122c-4.25-4.25-9.9-6.59-15.91-6.59s-11.66 2.341-15.909 6.59c-4.25 4.25-6.591 9.9-6.591 15.911 0 6.01 2.341 11.66 6.59 15.91l37.123 37.123-28.869 28.869c-30.413-20.195-66.085-31.043-103.426-31.043-50.083 0-97.168 19.503-132.583 54.917-73.105 73.106-73.105 192.059 0 265.165 35.415 35.414 82.5 54.918 132.583 54.918s97.169-19.503 132.583-54.917 54.917-82.499 54.917-132.582c0-37.341-10.847-73.012-31.042-103.425l50.082-50.082 37.123 37.122c4.25 4.25 9.9 6.59 15.91 6.59s11.66-2.341 15.909-6.59c4.25-4.25 6.591-9.9 6.591-15.91s-2.341-11.661-6.59-15.91l-37.123-37.123 10.606-10.606 37.123 37.123c4.387 4.386 10.148 6.58 15.91 6.58s11.523-2.193 15.91-6.58c8.771-8.773 8.771-23.047 0-31.82zm0-21.214-95.459 95.459-31.819-31.819 95.459-95.459zm-26.516-58.336c1.416-1.417 3.3-2.197 5.303-2.197s3.887.78 5.304 2.197l2.846 2.845c1.893 1.893 4.653 2.633 7.236 1.943 7.751-2.07 16.08.161 21.737 5.818s7.887 13.987 5.819 21.738c-.69 2.586.05 5.344 1.942 7.237l2.845 2.845c2.925 2.924 2.925 7.683 0 10.607-1.416 1.417-3.3 2.197-5.303 2.197s-3.887-.78-5.303-2.197l-42.427-42.426c-2.924-2.925-2.924-7.683.001-10.607zm-106.066 31.82c-2.925-2.924-2.925-7.682-.001-10.606 2.924-2.923 7.682-2.926 10.607 0l37.123 37.123-10.606 10.606zm-42.427 42.426c-1.416-1.417-2.196-3.3-2.196-5.303s.78-3.887 2.197-5.304c1.416-1.417 3.3-2.197 5.303-2.197s3.887.78 5.303 2.197l37.124 37.123-10.606 10.607zm16.198 355.033c-32.58 32.581-75.898 50.524-121.976 50.524-46.076 0-89.395-17.943-121.976-50.524-67.258-67.257-67.258-176.694 0-243.952 32.582-32.581 75.9-50.524 121.976-50.524 46.077 0 89.396 17.943 121.976 50.524 32.582 32.581 50.524 75.899 50.524 121.976 0 46.076-17.942 89.395-50.524 121.976zm10.607-254.559c-5.359-5.359-10.99-10.348-16.854-14.966l27.171-27.172 31.819 31.819-27.172 27.172c-4.616-5.863-9.604-11.493-14.964-16.853zm132.294-5.014c1.416 1.417 2.196 3.3 2.196 5.303s-.78 3.886-2.197 5.303c-1.416 1.417-3.3 2.197-5.303 2.197s-3.887-.78-5.303-2.197l-37.124-37.123 10.607-10.607zm42.426-31.82c-2.924 2.924-7.682 2.924-10.605 0l-37.123-37.123 10.606-10.606 37.123 37.122c2.924 2.924 2.924 7.683-.001 10.607z"/><path d="m194.848 167.174c-38.985-1.818-77.009 10.746-107.072 35.378-3.204 2.625-3.674 7.351-1.049 10.555 2.627 3.205 7.354 3.672 10.555 1.048 56.83-46.563 138.917-42.443 190.942 9.582 5.37 5.371 10.316 11.168 14.753 17.29-42.761 47.261-42.761 119.686 0 166.947-4.437 6.122-9.383 11.919-14.753 17.29-26.914 26.913-62.699 41.736-100.763 41.736-38.063 0-73.848-14.823-100.762-41.737-52.026-52.026-56.146-134.113-9.582-190.942 2.625-3.204 2.155-7.93-1.049-10.555-3.203-2.625-7.928-2.157-10.555 1.048-24.632 30.063-37.196 68.089-35.378 107.073 1.83 39.25 18.151 76.178 45.956 103.983 29.749 29.747 69.301 46.13 111.37 46.13 42.07 0 81.622-16.383 111.37-46.131 7.487-7.488 14.229-15.73 20.037-24.498 1.971-2.973 1.573-6.923-.948-9.445-42.689-42.693-42.689-112.159 0-154.852 2.521-2.522 2.919-6.472.948-9.445-5.809-8.768-12.55-17.01-20.037-24.498-27.805-27.805-64.734-44.127-103.983-45.957z"/><path d="m182.159 404.049c2.929-2.929 2.929-7.678 0-10.606l-63.64-63.64c-1.407-1.407-3.314-2.197-5.304-2.197s-3.896.79-5.304 2.197c-20.469 20.47-20.469 53.776 0 74.246 9.916 9.916 23.1 15.377 37.123 15.377 14.025 0 27.209-5.461 37.125-15.377zm-68.41-57.803 51.973 51.973c-6.083 4.04-13.218 6.208-20.687 6.208-10.017 0-19.434-3.9-26.516-10.983-12.806-12.806-14.394-32.646-4.77-47.198z"/></g></svg>