<svg id="Capa_1" enable-background="new 0 0 512 512" height="512" viewBox="0 0 512 512" width="512" xmlns="http://www.w3.org/2000/svg"><g><path d="m509.803 477.987-221.983-221.983 79.712-79.712c9.089 1.284 18.346-.837 25.957-5.848l27.068 27.068c4.386 4.387 10.148 6.58 15.91 6.58s11.524-2.193 15.91-6.58c4.25-4.25 6.59-9.899 6.59-15.91s-2.34-11.66-6.59-15.91l-26.517-26.517 10.607-10.607 26.517 26.517c4.386 4.387 10.148 6.58 15.91 6.58s11.524-2.193 15.91-6.58c8.773-8.773 8.773-23.047 0-31.82l-27.068-27.068c5.012-7.61 7.133-16.867 5.848-25.957l31.827-31.828c8.773-8.772 8.773-23.047 0-31.819-8.772-8.773-23.047-8.772-31.819 0l-31.829 31.827c-11.583-1.638-23.446 2.233-31.812 10.6l-5.303 5.303-15.91-15.91c-2.929-2.929-7.678-2.929-10.606 0-2.929 2.929-2.929 7.678 0 10.606l15.91 15.91-31.82 31.82-15.91-15.91c-2.929-2.929-7.678-2.929-10.606 0-2.929 2.929-2.929 7.678 0 10.606l15.91 15.91-5.303 5.303c-8.366 8.366-12.237 20.23-10.6 31.812l-79.713 79.714-200.771-200.77c-14.621-14.621-38.412-14.622-53.033 0-1.406 1.406-2.196 3.313-2.196 5.303s.79 3.897 2.197 5.303l243.197 243.197-55.24 55.24-10.607-10.607 39.33-39.33c2.929-2.929 2.929-7.678 0-10.606-2.928-2.929-7.677-2.929-10.606 0l-39.33 39.33-15.91-15.91c-1.895-1.895-4.657-2.634-7.244-1.941l-86.934 23.294c-2.588.694-4.61 2.715-5.304 5.304l-13.788 51.458c-10.59-.625-21.141 3.264-28.777 10.9-14.621 14.621-14.621 38.411 0 53.033l63.64 63.64c7.311 7.311 16.914 10.966 26.517 10.966s19.206-3.655 26.516-10.966c7.636-7.636 11.524-18.187 10.899-28.777l51.459-13.788c2.588-.694 4.61-2.715 5.304-5.304l23.293-86.934c.693-2.588-.047-5.35-1.941-7.244l-15.91-15.91 55.24-55.24 200.77 200.77c2.929 2.929 7.678 2.929 10.606 0l15.91-15.91 15.91 15.91c1.464 1.464 3.384 2.197 5.303 2.197s3.839-.732 5.303-2.197c2.929-2.931 2.929-7.68 0-10.608zm-392.754 12.427c-8.772 8.772-23.046 8.772-31.82 0l-63.64-63.64c-8.772-8.773-8.772-23.047 0-31.82 3.829-3.829 8.881-6.081 14.15-6.5l-5.485 20.469c-.693 2.588.047 5.35 1.941 7.244l63.639 63.64c1.425 1.425 3.34 2.197 5.304 2.197.647 0 1.299-.083 1.94-.255l20.469-5.485c-.417 5.268-2.669 10.321-6.498 14.15zm64.9-45.328-78.569 21.052-57.515-57.516 21.052-78.568 78.569-21.052 57.515 57.516zm116.478-220.902-10.607-10.607 10.607-10.607 10.607 10.607zm143.344-47.885c1.417 1.417 2.196 3.3 2.196 5.303s-.78 3.887-2.196 5.303c-2.924 2.924-7.682 2.925-10.607 0l-26.517-26.517 10.607-10.607zm42.426-31.82c-2.924 2.924-7.682 2.925-10.607 0l-26.517-26.517 10.607-10.607 26.517 26.517c2.924 2.925 2.924 7.683 0 10.607zm-135.041 7.762c1.893-1.893 2.633-4.651 1.943-7.237-2.068-7.751.161-16.08 5.818-21.738l63.64-63.64c5.657-5.657 13.987-7.888 21.738-5.818 2.587.691 5.345-.05 7.237-1.943l34.665-34.665c2.924-2.924 7.682-2.924 10.606 0s2.924 7.682 0 10.606l-34.665 34.665c-1.893 1.893-2.633 4.651-1.943 7.237 2.068 7.751-.161 16.08-5.818 21.738l-63.64 63.64c-5.657 5.657-13.985 7.89-21.738 5.818-2.585-.688-5.344.051-7.237 1.943l-40.123 40.123-10.607-10.607zm-71.943 71.942 10.607 10.607-10.607 10.607-10.607-10.607zm-232.59-190.163 200.77 200.77-10.606 10.607-215.771-215.772c8.361-3.984 18.692-2.52 25.607 4.395zm200.77 221.983 10.607-10.606 10.607 10.607-10.607 10.606zm31.82 10.607 164.181 164.181c-3.118 4.715-5.058 9.985-5.822 15.391l-168.965-168.965zm184.861 206.074-5.308-5.308c-6.906-6.911-8.347-17.225-4.37-25.583l20.285 20.285z"/></g></svg>