<svg id="Capa_1" enable-background="new 0 0 512 512" height="512" viewBox="0 0 512 512" width="512" xmlns="http://www.w3.org/2000/svg"><g><circle cx="340.098" cy="171.902" r="7.5"/><circle cx="297.671" cy="214.329" r="7.5"/><circle cx="255.245" cy="256.755" r="7.5"/><path d="m509.803 34.017-10.606-10.607 5.303-5.303c2.929-2.929 2.929-7.678 0-10.606-2.929-2.929-7.678-2.929-10.606 0l-5.303 5.303-10.608-10.607c-2.929-2.929-7.678-2.929-10.606 0-2.929 2.929-2.929 7.678 0 10.606l10.607 10.607-31.82 31.82-5.303-5.303c-2.929-2.929-7.678-2.929-10.606 0l-31.82 31.82c-2.929 2.929-2.929 7.678 0 10.606 2.929 2.929 7.678 2.929 10.606 0l5.303-5.303 10.607 10.607-21.213 21.213-15.91-15.91c-4.25-4.25-9.9-6.59-15.91-6.59s-11.66 2.34-15.91 6.59c-7.369 7.369-12.929 16.355-16.236 26.19-9.835 3.307-18.822 8.867-26.19 16.236-7.369 7.369-12.929 16.355-16.236 26.19-9.834 3.308-18.821 8.868-26.19 16.236-7.369 7.369-12.929 16.355-16.236 26.189-9.834 3.308-18.821 8.868-26.19 16.237s-12.929 16.355-16.236 26.19c-9.835 3.307-18.822 8.868-26.19 16.236l-35.613 35.613c-21.525 21.525-47.946 35.46-74.397 39.239-25.654 3.666-48.201-2.737-63.489-18.025-2.929-2.929-7.678-2.929-10.606 0-1.467 1.465-2.199 3.384-2.199 5.303s.732 3.839 2.197 5.303l169.706 169.706c1.464 1.464 3.384 2.197 5.303 2.197s3.839-.732 5.303-2.197 2.197-3.384 2.197-5.303-.732-3.839-2.197-5.303c-15.289-15.289-21.69-37.836-18.025-63.489 3.778-26.451 17.714-52.872 39.239-74.397l35.613-35.613c7.369-7.369 12.929-16.355 16.236-26.19 9.834-3.308 18.821-8.868 26.19-16.236s12.929-16.355 16.237-26.19c9.834-3.307 18.821-8.867 26.189-16.236 7.369-7.369 12.929-16.355 16.236-26.19 9.835-3.307 18.822-8.867 26.19-16.236 7.369-7.369 12.929-16.355 16.236-26.19 9.834-3.308 18.821-8.868 26.19-16.236 4.25-4.25 6.59-9.9 6.59-15.91 0-3.411-.779-6.696-2.208-9.685l48.651-48.651c2.929-2.929 2.929-7.678 0-10.606l-5.303-5.303 31.82-31.82 10.607 10.607c1.464 1.464 3.384 2.197 5.303 2.197s3.839-.732 5.303-2.197c2.929-2.932 2.929-7.681 0-10.609zm-316.687 316.688c-23.805 23.805-39.247 53.24-43.482 82.882-1.655 11.586-1.535 22.682.281 33.016l-104.518-104.518c10.332 1.814 21.431 1.935 33.016.281 29.643-4.235 59.078-19.677 82.882-43.482l5.304-5.303 31.82 31.82zm205.318-205.319c-6.514 6.514-14.652 11.21-23.534 13.58-2.594.692-4.62 2.719-5.313 5.313-2.37 8.882-7.066 17.02-13.58 23.534s-14.652 11.209-23.534 13.58c-2.594.692-4.621 2.719-5.313 5.313-2.37 8.882-7.066 17.021-13.58 23.534-6.514 6.514-14.652 11.21-23.533 13.58-2.594.692-4.621 2.719-5.313 5.313-2.37 8.882-7.066 17.02-13.58 23.534s-14.652 11.21-23.534 13.58c-2.594.692-4.62 2.719-5.313 5.313-2.37 8.882-7.065 17.02-13.58 23.533l-19.703 19.703-31.82-31.82 19.703-19.703c6.514-6.514 14.651-11.209 23.533-13.58 2.594-.692 4.621-2.718 5.313-5.313 2.37-8.882 7.066-17.02 13.58-23.534s14.652-11.21 23.534-13.58c2.594-.692 4.62-2.719 5.313-5.313 2.37-8.881 7.065-17.019 13.58-23.533 6.514-6.514 14.652-11.21 23.534-13.58 2.594-.692 4.62-2.719 5.313-5.313 2.37-8.882 7.066-17.02 13.58-23.534s14.652-11.209 23.534-13.58c2.594-.692 4.621-2.719 5.313-5.313 2.37-8.882 7.066-17.021 13.58-23.534 2.925-2.924 7.683-2.924 10.606 0l21.213 21.213c2.925 2.925 2.925 7.682.001 10.607zm37.123-58.336-10.607-10.607 10.607-10.607 10.607 10.607z"/></g></svg>