<svg id="Capa_1" enable-background="new 0 0 512.001 512.001" height="512" viewBox="0 0 512.001 512.001" width="512" xmlns="http://www.w3.org/2000/svg"><g><path d="m108.263 403.738c4.386 4.386 10.148 6.58 15.91 6.58s11.523-2.193 15.91-6.58c8.773-8.773 8.773-23.047 0-31.82s-23.048-8.773-31.82 0c-8.773 8.773-8.773 23.047 0 31.82zm10.607-21.213c1.462-1.462 3.383-2.193 5.303-2.193 1.921 0 3.841.731 5.304 2.193 2.924 2.924 2.924 7.683 0 10.607s-7.681 2.925-10.607 0c-2.925-2.925-2.925-7.683 0-10.607z"/><path d="m177.206 357.284c5.762 0 11.523-2.193 15.91-6.58 4.25-4.25 6.59-9.9 6.59-15.91s-2.341-11.661-6.59-15.91c-8.772-8.772-23.047-8.772-31.819 0-4.25 4.25-6.59 9.9-6.59 15.91s2.34 11.66 6.59 15.91c4.386 4.387 10.147 6.58 15.909 6.58zm-5.303-27.792c1.417-1.417 3.3-2.197 5.303-2.197s3.887.78 5.303 2.197c1.417 1.416 2.197 3.299 2.197 5.303 0 2.003-.78 3.887-2.197 5.303s-3.3 2.197-5.303 2.197-3.887-.78-5.303-2.197-2.197-3.3-2.197-5.303.78-3.887 2.197-5.303z"/><path d="m230.239 304.251c5.762 0 11.524-2.193 15.91-6.579 8.773-8.773 8.773-23.047 0-31.82-8.772-8.773-23.047-8.774-31.82 0-8.773 8.773-8.773 23.047 0 31.82 4.387 4.386 10.148 6.579 15.91 6.579zm-5.303-27.792c1.462-1.462 3.383-2.193 5.304-2.193 1.92 0 3.841.731 5.303 2.193 2.924 2.924 2.924 7.683 0 10.606-2.924 2.925-7.683 2.925-10.607 0-2.925-2.924-2.925-7.682 0-10.606z"/><path d="m334.794 199.695c5.763 0 11.524-2.193 15.911-6.579 8.771-8.772 8.772-23.046-.001-31.82-8.771-8.771-23.047-8.772-31.819 0-8.773 8.773-8.772 23.048 0 31.82 4.386 4.386 10.148 6.579 15.909 6.579zm-5.303-27.791c2.925-2.924 7.683-2.925 10.607 0s2.925 7.682.001 10.606c-2.925 2.923-7.683 2.925-10.607 0-2.925-2.925-2.925-7.683-.001-10.606z"/><path d="m509.804 44.624-42.427-42.426c-1.498-1.499-3.556-2.297-5.678-2.188-2.116.105-4.089 1.102-5.431 2.742l-42.481 51.922-4.746-4.746c-1.407-1.407-3.314-2.197-5.304-2.197s-3.896.79-5.304 2.197l-15.909 15.91-10.606-10.606c-2.931-2.93-7.679-2.928-10.607 0l-359.114 359.113c-1.407 1.406-2.197 3.314-2.197 5.303s.79 3.897 2.197 5.303l84.853 84.853c1.464 1.464 3.384 2.197 5.303 2.197s3.839-.732 5.303-2.197l359.115-359.114c2.929-2.929 2.929-7.678 0-10.606l-10.607-10.607 15.91-15.91c1.406-1.406 2.196-3.314 2.196-5.303s-.79-3.897-2.196-5.303l-4.747-4.747 51.922-42.482c1.641-1.342 2.636-3.315 2.741-5.431.107-2.117-.688-4.179-2.186-5.677zm-185.616 68.943 74.247 74.246-263.655 263.655-74.246-74.246zm-231.834 380.327-74.247-74.246 10.607-10.607 26.517 26.517c1.464 1.464 3.384 2.197 5.303 2.197s3.839-.732 5.303-2.197c2.929-2.929 2.929-7.678 0-10.606l-26.517-26.517 10.607-10.607 74.246 74.246-10.607 10.607-26.516-26.517c-2.929-2.929-7.678-2.929-10.606 0-2.929 2.929-2.929 7.678 0 10.606l26.517 26.517zm337.9-337.901-26.517-26.516c-2.93-2.929-7.678-2.929-10.607 0s-2.929 7.678 0 10.606l26.517 26.517-10.606 10.606-74.247-74.246 10.607-10.607 26.516 26.516c1.465 1.465 3.384 2.197 5.304 2.197 1.919 0 3.839-.732 5.304-2.197 2.929-2.929 2.929-7.678 0-10.606l-26.516-26.517 10.606-10.606 74.246 74.246zm5.304-37.123-42.426-42.426 10.606-10.607 42.427 42.427zm11.111-31.316-22.221-22.221 38.183-46.668 30.707 30.706z"/></g></svg>