<svg id="Capa_1" enable-background="new 0 0 512 512" height="512" viewBox="0 0 512 512" width="512" xmlns="http://www.w3.org/2000/svg"><g><path d="m489.5 227c12.406 0 22.5-10.093 22.5-22.5s-10.094-22.5-22.5-22.5h-27.029v-120h27.029c12.406 0 22.5-10.093 22.5-22.5s-10.094-22.5-22.5-22.5h-166c-7.964 0-10.21-1.132-16.881-4.492-9.889-4.981-24.834-12.508-50.619-12.508s-40.73 7.527-50.621 12.509c-6.669 3.359-8.915 4.491-16.879 4.491h-166c-12.406 0-22.5 10.093-22.5 22.5s10.094 22.5 22.5 22.5h19.971v120h-19.971c-12.406 0-22.5 10.093-22.5 22.5s10.094 22.5 22.5 22.5h19.971v120h-19.971c-12.406 0-22.5 10.093-22.5 22.5s10.094 22.5 22.5 22.5h19.971v112.5c0 4.142 3.357 7.5 7.5 7.5h30c4.143 0 7.5-3.358 7.5-7.5v-112.5h56.029v15.637c-21.254 3.582-37.5 22.106-37.5 44.363 0 24.813 20.187 45 45 45s45-20.187 45-45c0-22.257-16.246-40.781-37.5-44.363v-15.637h90v15.637c-21.254 3.582-37.5 22.106-37.5 44.363 0 24.813 20.187 45 45 45s45-20.187 45-45c0-22.257-16.246-40.781-37.5-44.363v-15.637h90v15.637c-21.254 3.582-37.5 22.106-37.5 44.363 0 24.813 20.187 45 45 45s45-20.187 45-45c0-22.257-16.246-40.781-37.5-44.363v-15.637h48.971v112.5c0 4.142 3.357 7.5 7.5 7.5h30c4.143 0 7.5-3.358 7.5-7.5v-112.5h27.029c12.406 0 22.5-10.093 22.5-22.5s-10.094-22.5-22.5-22.5h-27.029v-120zm-308.5 225c0 16.542-13.458 30-30 30s-30-13.458-30-30 13.458-30 30-30 30 13.458 30 30zm105 0c0 16.542-13.458 30-30 30s-30-13.458-30-30 13.458-30 30-30 30 13.458 30 30zm105 0c0 16.542-13.458 30-30 30s-30-13.458-30-30 13.458-30 30-30 30 13.458 30 30zm56.471-270h-15v-120h15zm-360 0v-120h56.029v15.637c-21.254 3.582-37.5 22.106-37.5 44.363 0 24.813 20.187 45 45 45s45-20.187 45-45c0-22.257-16.246-40.781-37.5-44.363v-15.637h30c18.657 0 28.468-4.942 37.124-9.302 6.707-3.378 12.672-6.377 22.876-7.358v32.297c-21.254 3.582-37.5 22.106-37.5 44.363 0 24.813 20.187 45 45 45s45-20.187 45-45c0-22.257-16.246-40.781-37.5-44.363v-32.297c10.204.981 16.169 3.98 22.876 7.358 8.656 4.36 18.467 9.302 37.124 9.302h30v15.637c-21.254 3.582-37.5 22.106-37.5 44.363 0 24.813 20.187 45 45 45s45-20.187 45-45c0-22.257-16.246-40.781-37.5-44.363v-15.637h48.971v120zm63.529-90c16.542 0 30 13.458 30 30s-13.458 30-30 30-30-13.458-30-30 13.458-30 30-30zm105 0c16.542 0 30 13.458 30 30s-13.458 30-30 30-30-13.458-30-30 13.458-30 30-30zm105 0c16.542 0 30 13.458 30 30s-13.458 30-30 30-30-13.458-30-30 13.458-30 30-30zm-346-52.5c0-4.136 3.364-7.5 7.5-7.5h166c11.528 0 16.341-2.424 23.629-6.095 9.645-4.859 21.65-10.905 43.871-10.905s34.226 6.046 43.873 10.906c7.286 3.67 12.099 6.094 23.627 6.094h166c4.136 0 7.5 3.364 7.5 7.5s-3.364 7.5-7.5 7.5h-166c-15.093 0-22.175-3.567-30.376-7.698-8.656-4.36-18.467-9.302-37.124-9.302s-28.468 4.942-37.124 9.302c-8.201 4.131-15.283 7.698-30.376 7.698h-166c-4.136 0-7.5-3.364-7.5-7.5zm42.471 22.5h15v120h-15zm-42.471 142.5c0-4.136 3.364-7.5 7.5-7.5h467c4.136 0 7.5 3.364 7.5 7.5s-3.364 7.5-7.5 7.5h-308.5c-4.143 0-7.5 3.358-7.5 7.5s3.357 7.5 7.5 7.5h67.5v15.637c-21.254 3.582-37.5 22.106-37.5 44.363 0 24.813 20.187 45 45 45s45-20.187 45-45c0-22.257-16.246-40.781-37.5-44.363v-15.637h90v15.637c-21.254 3.582-37.5 22.106-37.5 44.363 0 24.813 20.187 45 45 45s45-20.187 45-45c0-22.257-16.246-40.781-37.5-44.363v-15.637h48.971v120h-330v-120h56.029v15.637c-21.254 3.582-37.5 22.106-37.5 44.363 0 24.813 20.187 45 45 45s45-20.187 45-45c0-22.257-16.246-40.781-37.5-44.363v-23.137c0-4.142-3.357-7.5-7.5-7.5h-128.5c-4.136 0-7.5-3.364-7.5-7.5zm346 52.5c16.542 0 30 13.458 30 30s-13.458 30-30 30-30-13.458-30-30 13.458-30 30-30zm-105 0c16.542 0 30 13.458 30 30s-13.458 30-30 30-30-13.458-30-30 13.458-30 30-30zm-105 0c16.542 0 30 13.458 30 30s-13.458 30-30 30-30-13.458-30-30 13.458-30 30-30zm-93.529-30h15v120h-15zm15 270h-15v-105h15zm375 0h-15v-105h15zm49.529-127.5c0 4.136-3.364 7.5-7.5 7.5h-467c-4.136 0-7.5-3.364-7.5-7.5s3.364-7.5 7.5-7.5h467c4.136 0 7.5 3.364 7.5 7.5zm-49.529-22.5h-15v-120h15z"/></g></svg>