<svg id="Capa_1" enable-background="new 0 0 512 512" height="512" viewBox="0 0 512 512" width="512" xmlns="http://www.w3.org/2000/svg"><g><circle cx="97.5" cy="82.5" r="7.5"/><circle cx="414.5" cy="82.5" r="7.5"/><circle cx="323.929" cy="82.5" r="7.5"/><circle cx="233.357" cy="82.5" r="7.5"/><circle cx="142.786" cy="82.5" r="7.5"/><circle cx="369.214" cy="82.5" r="7.5"/><circle cx="278.643" cy="82.5" r="7.5"/><circle cx="188.071" cy="82.5" r="7.5"/><path d="m474.5 45c-4.143 0-7.5 3.358-7.5 7.5v30c0 77.956-30.257 118.588-56.954 154.438-25.78 34.621-48.046 64.52-48.046 127.562v52.5h-212v-52.5c0-63.042-22.266-92.941-48.048-127.563-26.695-35.849-56.952-76.481-56.952-154.437v-30c0-4.142-3.357-7.5-7.5-7.5-20.678 0-37.5 16.822-37.5 37.5 0 92.872 36.519 141.911 65.861 181.315 23.569 31.648 39.139 52.556 39.139 100.685v140c0 4.142 3.357 7.5 7.5 7.5h30c4.143 0 7.5-3.358 7.5-7.5v-42.5h212v42.5c0 4.142 3.357 7.5 7.5 7.5h30c4.143 0 7.5-3.358 7.5-7.5v-140c0-48.128 15.57-69.037 39.14-100.687 29.342-39.402 65.86-88.44 65.86-181.313 0-20.678-16.822-37.5-37.5-37.5zm-339.5 452h-15v-132.5c0-53.101-18.582-78.053-42.107-109.644-28.021-37.627-62.893-84.456-62.893-172.356 0-9.778 6.27-18.12 15-21.215v21.215c0 82.928 31.835 125.678 59.923 163.397 25.184 33.819 45.077 60.532 45.077 118.603zm15-50v-15h212v15zm284.108-192.146c-23.526 31.593-42.108 56.546-42.108 109.646v132.5h-15v-132.5c0-58.071 19.893-84.784 45.078-118.604 28.087-37.718 59.922-80.468 59.922-163.396v-21.215c8.73 3.095 15 11.437 15 21.215 0 87.901-34.871 134.728-62.892 172.354z"/><path d="m165 364.5v30c0 4.142 3.357 7.5 7.5 7.5h167c4.143 0 7.5-3.358 7.5-7.5v-30c0-68.014 24.78-101.291 51.016-136.521 26.54-35.64 53.984-72.493 53.984-145.479v-30c0-28.949-23.552-52.5-52.5-52.5h-287c-28.948 0-52.5 23.551-52.5 52.5v30c0 72.986 27.444 109.839 53.984 145.479 26.236 35.23 51.016 68.507 51.016 136.521zm-52.5-349.5h287c18.11 0 33.261 12.904 36.745 30h-360.49c3.484-17.096 18.635-30 36.745-30zm-37.5 45h362v22.5c0 68.014-24.78 101.291-51.016 136.521-25.614 34.396-52.062 69.933-53.877 137.979h-99.607c-4.143 0-7.5 3.358-7.5 7.5s3.357 7.5 7.5 7.5h99.5v15h-152v-15h22.5c4.143 0 7.5-3.358 7.5-7.5s-3.357-7.5-7.5-7.5h-22.607c-1.815-68.046-28.264-103.583-53.877-137.979-26.236-35.23-51.016-68.507-51.016-136.521z"/></g></svg>