<svg id="Capa_1" enable-background="new 0 0 511.912 511.912" height="512" viewBox="0 0 511.912 511.912" width="512" xmlns="http://www.w3.org/2000/svg"><g><path d="m399.175 335.476 66.68-66.68c61.409-61.41 61.409-161.33 0-222.74-61.409-61.408-161.329-61.408-222.738 0l-66.68 66.681c-13.08 13.08-33.493 14.449-48.12 4.127 6.442-11.434 4.81-26.223-4.913-35.947-11.697-11.695-30.73-11.695-42.426 0-11.697 11.697-11.697 30.73 0 42.427 5.666 5.667 13.2 8.787 21.213 8.787 5.603 0 10.968-1.53 15.628-4.385 9.417 7.29 20.756 10.95 32.102 10.95 13.444 0 26.888-5.117 37.123-15.352l19.279-19.279c-16.679 46.538-10.806 99.406 17.617 141.482l-215.167 215.166c-11.697 11.697-11.697 30.73 0 42.428 5.849 5.848 13.531 8.771 21.213 8.771s15.364-2.924 21.213-8.771l215.167-215.166c26.515 17.912 57.315 26.878 88.12 26.878 18.077 0 36.151-3.094 53.361-9.262l-19.279 19.278c-9.916 9.916-15.377 23.1-15.377 37.124 0 11.781 3.867 22.96 10.978 32.116-7.038 11.545-5.576 26.852 4.399 36.827 5.849 5.848 13.531 8.771 21.213 8.771s15.365-2.924 21.213-8.772c11.697-11.696 11.697-30.729 0-42.426-5.666-5.667-13.2-8.787-21.213-8.787-5.252 0-10.295 1.349-14.744 3.868-4.443-6.277-6.846-13.75-6.846-21.597 0-10.018 3.901-19.435 10.984-26.517zm-307.592-222.738c-5.848-5.85-5.848-15.365 0-21.215 5.849-5.848 15.366-5.846 21.213 0 5.848 5.85 5.848 15.365 0 21.214-2.833 2.834-6.6 4.394-10.607 4.394-4.005-.001-7.772-1.56-10.606-4.393zm34.247 252.131c9.283 6.95 20.356 10.433 31.435 10.433.191 0 .381-.012.571-.014l-16.487 16.486c-12.806 12.801-32.641 14.388-47.191 4.765zm-85.238 127.664c-5.848 5.849-15.365 5.849-21.213 0-5.849-5.849-5.849-15.364 0-21.213l21.591-21.591c9.027 6.78 19.951 10.452 31.441 10.452.183 0 .364-.011.546-.013zm58.329-58.329c-7.082 7.078-16.496 10.976-26.509 10.976-7.468 0-14.601-2.171-20.683-6.21l31.675-31.675c9.283 6.95 20.355 10.433 31.435 10.433.19 0 .38-.012.571-.014zm84.861-84.86c-12.805 12.805-32.644 14.394-47.196 4.77l96.432-96.432c3.161 3.824 6.521 7.537 10.099 11.115 3.577 3.577 7.291 6.938 11.114 10.098zm69.941-91.155c-55.561-55.561-55.561-145.965 0-201.525 27.784-27.784 64.267-41.671 100.763-41.671 36.487 0 72.986 13.894 100.763 41.671 55.561 55.561 55.561 145.965 0 201.525-55.561 55.561-145.966 55.561-201.526 0zm166.665 140.926c5.848 5.85 5.848 15.365 0 21.214-5.848 5.85-15.365 5.847-21.213.001-5.848-5.85-5.848-15.365 0-21.215 2.833-2.833 6.6-4.393 10.607-4.393 4.006 0 7.773 1.56 10.606 4.393z"/><path d="m354.486 29.926c-28.605 0-55.64 9.262-78.184 26.784-3.27 2.542-3.86 7.254-1.318 10.524s7.253 3.86 10.524 1.319c19.886-15.458 43.738-23.628 68.978-23.628 62.033 0 112.5 50.468 112.5 112.5s-50.467 112.5-112.5 112.5-112.5-50.468-112.5-112.5c0-25.241 8.17-49.093 23.628-68.979 2.542-3.27 1.952-7.981-1.318-10.524-3.271-2.541-7.982-1.95-10.524 1.319-17.523 22.542-26.785 49.577-26.785 78.184 0 70.304 57.196 127.5 127.5 127.5s127.5-57.196 127.5-127.5-57.197-127.499-127.501-127.499z"/></g></svg>