<svg id="Capa_1" enable-background="new 0 0 512 512" height="512" viewBox="0 0 512 512" width="512" xmlns="http://www.w3.org/2000/svg"><g><path d="m256 0c-116.346 0-211 94.654-211 211 0 17.912 2.252 35.715 6.693 52.912l29.048 112.476c20.622 79.846 92.691 135.612 175.259 135.612s154.637-55.766 175.258-135.612l29.048-112.475c4.442-17.196 6.694-34.999 6.694-52.913 0-116.346-94.654-211-211-211zm-67.5 26.98v26.52c0 4.143 3.358 7.5 7.5 7.5s7.5-3.357 7.5-7.5v-31.349c16.716-4.653 34.321-7.151 52.5-7.151s35.784 2.498 52.5 7.151v61.349c0 16.542-13.458 30-30 30-6.551 0-12.774-2.073-17.995-5.996-2.668-2.006-6.342-2.006-9.01 0-5.221 3.923-11.444 5.996-17.995 5.996-16.542 0-30-13.458-30-30 0-4.143-3.358-7.5-7.5-7.5s-7.5 3.357-7.5 7.5c0 24.813 20.187 45 45 45 8.006 0 15.688-2.066 22.5-6.019 6.812 3.952 14.494 6.019 22.5 6.019 24.813 0 45-20.187 45-45v-56.52c30.88 11.363 58.127 30.296 79.498 54.529-35.92 13.612-67.929 37.681-90.99 68.635-26.174 35.131-40.008 76.923-40.008 120.856v36.5c0 8.822-7.178 16-16 16s-16-7.178-16-16v-36.5c0-43.933-13.834-85.725-40.008-120.856-23.061-30.954-55.07-55.023-90.99-68.635 21.371-24.232 48.618-43.166 79.498-54.529zm98.475 281.52h7.525c4.136 0 7.5 3.364 7.5 7.5s-3.364 7.5-7.5 7.5h-11.958c2.666-4.406 4.258-9.527 4.433-15zm-61.95 0c.175 5.473 1.767 10.594 4.433 15h-11.958c-4.136 0-7.5-3.364-7.5-7.5s3.364-7.5 7.5-7.5zm-51.525 166.587v-24.087c0-28.559 14.591-53.769 36.706-68.584 6.89 9.976 18.236 16.084 30.794 16.084h30c12.558 0 23.904-6.107 30.794-16.084 22.115 14.815 36.706 40.025 36.706 68.584v24.087c-24.498 14.019-52.755 21.913-82.5 21.913s-58.002-7.894-82.5-21.913zm50.013-99.91c9.976-4.291 20.956-6.677 32.487-6.677s22.511 2.386 32.487 6.677c-4.186 5.196-10.526 8.323-17.487 8.323h-30c-6.96 0-13.301-3.128-17.487-8.323zm193.222-2.539c-9.913 38.384-32.798 70.693-63.235 92.755v-14.393c0-53.762-43.738-97.5-97.5-97.5s-97.5 43.738-97.5 97.5v14.393c-30.437-22.062-53.321-54.371-63.235-92.755l-29.048-112.476c-2.147-8.314-3.73-16.784-4.767-25.341 23.952 27.413 58.847 43.679 96.05 43.679h45c4.142 0 7.5-3.357 7.5-7.5 0-28.948-23.551-52.5-52.5-52.5h-45c-4.142 0-7.5 3.357-7.5 7.5 0 10.495 3.094 20.279 8.42 28.49-22.1-9.423-40.975-25.849-53.372-47.306.815-42.43 15.168-81.604 38.927-113.361 75.601 26.156 126.025 96.691 126.025 177.177v22.5h-7.5c-12.407 0-22.5 10.094-22.5 22.5s10.093 22.5 22.5 22.5h77c12.407 0 22.5-10.094 22.5-22.5s-10.093-22.5-22.5-22.5h-7.5v-22.5c0-80.486 50.424-151.021 126.025-177.176 23.758 31.757 38.112 70.931 38.927 113.361-12.397 21.457-31.272 37.882-53.372 47.305 5.326-8.211 8.42-17.995 8.42-28.49 0-4.143-3.358-7.5-7.5-7.5h-45c-28.949 0-52.5 23.552-52.5 52.5 0 4.143 3.358 7.5 7.5 7.5h45c37.203 0 72.098-16.266 96.05-43.679-1.037 8.557-2.62 17.027-4.767 25.341zm-295.982-139.138h36.747c18.109 0 33.262 12.904 36.747 30h-36.747c-18.109 0-33.262-12.904-36.747-30zm270.494 0c-3.485 17.096-18.637 30-36.747 30h-36.747c3.485-17.096 18.637-30 36.747-30z"/></g></svg>