<svg id="Capa_1" enable-background="new 0 0 511.985 511.985" height="512" viewBox="0 0 511.985 511.985" width="512" xmlns="http://www.w3.org/2000/svg"><g><path d="m452.675 59.311c-38.248-38.247-89.1-59.311-143.19-59.311s-104.941 21.064-143.189 59.311c-32.553 32.554-53.198 75.64-58.133 121.321-4.613 42.71 4.574 86.142 25.896 123.091-8.333 8.804-8.207 22.733.417 31.36l5.084 5.084-129.884 119.76c-.302.276-.6.557-.904.86-11.695 11.696-11.695 30.729.001 42.427 5.847 5.847 13.526 8.771 21.208 8.771 7.687 0 15.374-2.928 21.23-8.782.291-.293.571-.591.838-.882l119.77-129.896 5.085 5.085c8.623 8.621 22.547 8.748 31.352.422 30.708 17.721 65.893 27.055 101.422 27.055 7.222 0 14.461-.386 21.676-1.165 45.682-4.935 88.768-25.58 121.321-58.133 38.247-38.248 59.311-89.1 59.311-143.189s-21.064-104.941-59.311-143.189zm-254.56 307.592c-2.923 2.925-7.681 2.924-10.605.001l-10.606-10.607c-1.443-1.444-3.458-2.217-5.455-2.195-2.042.041-3.979.913-5.362 2.414l-125.075 135.648c-.142.153-.283.307-.419.443-5.849 5.85-15.365 5.849-21.214.001-5.849-5.849-5.849-15.366-.012-21.202.148-.148.302-.29.466-.441l135.638-125.065c1.501-1.384 2.373-3.32 2.414-5.362.042-2.041-.751-4.011-2.195-5.455l-10.606-10.605c-2.924-2.925-2.925-7.683 0-10.606 1.462-1.463 3.383-2.193 5.304-2.193 1.92 0 3.841.73 5.303 2.193 2.93 2.928 7.678 2.928 10.607 0 8.771-8.773 23.047-8.773 31.818 0 8.773 8.772 8.773 23.046 0 31.818-2.929 2.93-2.929 7.678 0 10.607 2.924 2.923 2.924 7.682-.001 10.606zm243.952-31.821c-60.761 60.764-153.338 72.524-226.971 29.473.587-4.465-.15-9.073-2.235-13.172.967-1.37 1.83-2.791 2.592-4.252 27.985 18.263 60.287 27.869 94.032 27.869 95.117 0 172.5-77.383 172.5-172.5s-77.383-172.5-172.5-172.5c-48.99 0-95.846 20.954-128.554 57.49-2.763 3.087-2.501 7.828.585 10.591 3.087 2.763 7.828 2.5 10.591-.585 29.867-33.362 72.649-52.496 117.378-52.496 86.846 0 157.5 70.654 157.5 157.5s-70.654 157.5-157.5 157.5c-32.437 0-63.409-9.723-89.859-28.151.564-10.281-3.067-20.751-10.903-28.586-7.837-7.837-18.306-11.468-28.587-10.904-18.427-26.45-28.15-57.422-28.15-89.859 0-28.919 7.904-57.192 22.858-81.763 2.154-3.538 1.031-8.152-2.507-10.306-3.536-2.155-8.152-1.031-10.306 2.507-16.386 26.921-25.046 57.891-25.046 89.562 0 33.745 9.607 66.047 27.869 94.032-1.461.761-2.882 1.625-4.252 2.592-4.099-2.085-8.706-2.821-13.171-2.234-43.051-73.633-31.292-166.208 29.472-226.972 35.414-35.414 82.499-54.918 132.582-54.918s97.168 19.504 132.582 54.918 54.918 82.499 54.918 132.582-19.504 97.168-54.918 132.582z"/></g></svg>