<svg id="Capa_1" enable-background="new 0 0 512.001 512.001" height="512" viewBox="0 0 512.001 512.001" width="512" xmlns="http://www.w3.org/2000/svg"><g><path d="m511.937 297.661-9.882-75.363c-.086-.65-.256-1.287-.507-1.893l-29.059-70.197c-.095-.229-.2-.451-.316-.667-.196-.372-.426-.729-.686-1.068l-46.312-60.271c-.397-.518-.86-.98-1.377-1.378l-60.237-46.291c-.165-.127-.335-.245-.509-.356-.385-.251-.795-.468-1.226-.646l-70.231-29.078c-.606-.251-1.243-.421-1.894-.507l-75.363-9.882c-.646-.084-1.303-.084-1.949 0l-75.363 9.882c-.65.086-1.287.256-1.894.507l-70.23 29.077c-.607.252-1.18.582-1.7.982l-60.271 46.312c-1.712 1.315-2.774 3.305-2.915 5.459s.654 4.265 2.181 5.792l169.126 169.126c-13.899 18.565-13.899 44.304 0 62.87l-11.912 11.913c-2.989-1.429-6.273-2.208-9.685-2.208-6.011 0-11.661 2.341-15.909 6.59-4.25 4.249-6.591 9.899-6.591 15.91 0 3.412.778 6.696 2.208 9.685l-12.456 12.456c-8.36-3.977-18.677-2.534-25.588 4.374l-89.193 89.192c-2.929 2.93-2.929 7.678 0 10.607 2.931 2.928 7.679 2.927 10.607 0l73.281-73.282 10.606 10.606-73.281 73.281c-2.929 2.93-2.929 7.678 0 10.607 1.465 1.464 3.385 2.196 5.304 2.196s3.839-.732 5.304-2.196l89.191-89.191c6.911-6.911 8.353-17.228 4.375-25.588l12.456-12.456c2.989 1.429 6.273 2.208 9.685 2.208 6.01 0 11.66-2.34 15.909-6.59 4.251-4.25 6.591-9.9 6.591-15.91 0-3.412-.778-6.696-2.208-9.685l11.912-11.912c9.283 6.949 20.356 10.433 31.435 10.433s22.152-3.484 31.435-10.433l169.126 169.126c1.411 1.411 3.321 2.196 5.303 2.196.163 0 .326-.005.489-.016 2.154-.141 4.144-1.203 5.459-2.915l46.254-60.196c.423-.536.773-1.132 1.04-1.774l29.078-70.231c.251-.606.421-1.243.507-1.894l9.882-75.363c.085-.647.085-1.303 0-1.95zm-202.777 18.879c.639-3.446 1.08-6.919 1.346-10.404h185.447l-7.658 58.403zm-148.576-81.292c32.378-27.001 80.74-25.328 111.117 5.051 30.378 30.377 32.051 78.738 5.051 111.117zm52.781-134.68c4.143 0 7.5-3.357 7.5-7.5v-77.02l58.403 7.658-47.999 179.136c-3.446-.639-6.918-1.079-10.404-1.346v-78.427c0-4.143-3.357-7.5-7.5-7.5s-7.5 3.357-7.5 7.5v78.427c-3.485.267-6.958.707-10.404 1.346l-47.999-179.136 58.403-7.658v77.021c0 4.142 3.357 7.499 7.5 7.499zm63.415 124.045c-2.684-2.302-5.461-4.437-8.323-6.399l92.719-160.596 46.706 35.893zm-21.313-13.901c-3.176-1.517-6.41-2.869-9.701-4.023l47.991-179.106 54.428 22.535zm-74.504-4.024c-3.291 1.154-6.526 2.506-9.701 4.023l-92.72-160.593 54.429-22.536zm129.543 84.448c-.266-3.485-.707-6.958-1.346-10.404l179.135-47.999 7.658 58.403zm173.913-72.893-179.106 47.991c-1.154-3.291-2.507-6.526-4.023-9.701l160.598-92.721zm-30.04-67.417-160.593 92.718c-1.963-2.863-4.097-5.64-6.4-8.324l131.102-131.102zm-388.825-93.204 92.719 160.592c-2.863 1.963-5.64 4.097-8.324 6.4l-131.102-131.102zm31.138 347.079 5.303-5.303c2.924-2.922 7.679-2.924 10.602-.004 2.929 2.934 2.928 7.689.005 10.611l-5.303 5.303zm58.337-37.123c-1.417 1.417-3.301 2.197-5.304 2.197-2 0-3.882-.779-5.298-2.192-1.423-1.425-2.202-3.307-2.202-5.308 0-2.003.78-3.887 2.197-5.304 1.416-1.416 3.3-2.196 5.303-2.196 2 0 3.882.779 5.298 2.192 1.423 1.425 2.202 3.307 2.202 5.308 0 2.003-.78 3.887-2.196 5.303zm31.825-42.419c-12.812-12.819-14.399-32.653-4.776-47.202l51.966 51.966c-14.549 9.623-34.384 8.033-47.19-4.764zm231.635 167.994-131.102-131.101c2.302-2.684 4.437-5.461 6.4-8.324l160.592 92.718zm43.394-59.695-160.594-92.719c1.517-3.175 2.869-6.41 4.023-9.701l179.106 47.991z"/></g></svg>