<svg id="Capa_1" enable-background="new 0 0 512.004 512.004" height="512" viewBox="0 0 512.004 512.004" width="512" xmlns="http://www.w3.org/2000/svg"><g><path d="m511.695 502.379-104.746-354.897 12.758-12.758c11.697-11.697 11.697-30.729 0-42.427-11.697-11.697-30.729-11.697-42.426 0l-12.758 12.758-354.898-104.746c-3.973-1.172-8.144 1.098-9.317 5.07-1.173 3.973 1.098 8.144 5.07 9.317l28.266 8.343 76.514 76.514-2.891-.141c-4.138-.202-7.655 2.989-7.857 7.126-.107 2.2.745 4.226 2.19 5.67 1.271 1.271 3 2.091 4.936 2.187l19.41.946 81.958 81.958-4.751 2.197c-3.759 1.739-5.398 6.196-3.659 9.956.382.825.895 1.548 1.502 2.155 2.16 2.16 5.52 2.86 8.454 1.503l9.754-4.511 47.405 47.405-146.451 146.449-10.607-10.607 130.541-130.541c2.929-2.929 2.929-7.678 0-10.607s-7.677-2.929-10.607 0l-131.452 131.454c-8.362-3.983-18.691-2.522-25.604 4.391-6.759 6.759-8.31 16.784-4.655 25.042l-56.927 47.332c-.743.617-1.416 1.229-2.058 1.871-11.697 11.697-11.697 30.729 0 42.427 11.697 11.697 30.729 11.697 42.426 0 .642-.642 1.254-1.315 1.871-2.057l47.333-56.928c8.259 3.656 18.284 2.104 25.043-4.655 6.913-6.913 8.374-17.242 4.391-25.604l147.363-147.363 26.191 26.191-4.511 9.754c-1.358 2.935-.657 6.293 1.503 8.454.607.607 1.33 1.12 2.155 1.502 3.76 1.739 8.217.1 9.956-3.659l2.197-4.751 81.958 81.958.946 19.41c.095 1.937.916 3.665 2.187 4.936 1.444 1.444 3.47 2.297 5.67 2.19 4.137-.202 7.328-3.719 7.126-7.857l-.141-2.891 76.514 76.514 8.343 28.266c.367 1.243 1.028 2.319 1.884 3.176 1.88 1.88 4.703 2.699 7.432 1.894 3.972-1.172 6.242-5.343 5.069-9.316zm-396.84-73.41c-2.924 2.925-7.682 2.925-10.607 0-1.491-1.491-3.541-2.286-5.647-2.189s-4.075 1.076-5.423 2.698l-51.627 62.092c-.32.385-.629.726-.943 1.039-5.849 5.849-15.365 5.849-21.213 0-5.848-5.848-5.849-15.364 0-21.213.314-.313.654-.622 1.04-.943l62.091-51.626c1.621-1.348 2.601-3.317 2.698-5.423s-.698-4.156-2.189-5.647c-2.924-2.924-2.924-7.682 0-10.607 2.924-2.924 7.682-2.924 10.607 0l21.213 21.213c2.924 2.924 2.924 7.682 0 10.606zm-51.115-397.048 265.29 78.299-196.572-9.581zm84.506 84.506 212.147 10.341-137.985 63.822zm161.869 161.869-76.407-76.407 142.16-65.753zm11.3 11.3 63.822-137.985 10.34 212.147zm77.079-154.872-21.213-21.213 10.607-10.607c5.849-5.849 15.365-5.849 21.213 0 5.848 5.848 5.849 15.364 0 21.213zm12.872 244.822-9.581-196.572 78.299 265.29z"/></g></svg>