<svg id="Capa_1" enable-background="new 0 0 512 512" height="512" viewBox="0 0 512 512" width="512" xmlns="http://www.w3.org/2000/svg"><g><path d="m406 255c-4.142 0-7.5 3.357-7.5 7.5 0 78.575-63.925 142.5-142.5 142.5s-142.5-63.925-142.5-142.5c0-4.143-3.358-7.5-7.5-7.5s-7.5 3.357-7.5 7.5c0 79.837 59.712 145.984 136.82 156.141-1.17 2.72-1.82 5.715-1.82 8.859 0 6.786 3.024 12.875 7.79 17.004-9.643 9.8-15.29 23.263-15.29 37.496 0 16.542 13.458 30 30 30s30-13.458 30-30c0-14.233-5.647-27.696-15.29-37.496 4.766-4.129 7.79-10.218 7.79-17.004 0-3.144-.651-6.138-1.82-8.859 77.108-10.157 136.82-76.304 136.82-156.141 0-4.143-3.358-7.5-7.5-7.5zm-150 242c-8.271 0-15-6.729-15-15 0-12.111 5.652-23.429 15-30.511 9.348 7.082 15 18.399 15 30.511 0 8.271-6.729 15-15 15zm7.5-69.5c0 4.136-3.364 7.5-7.5 7.5s-7.5-3.364-7.5-7.5 3.364-7.5 7.5-7.5 7.5 3.364 7.5 7.5z"/><path d="m503.911 200.225-233.502-195.001c-4.035-3.369-9.153-5.224-14.409-5.224s-10.374 1.855-14.411 5.225l-233.497 194.998c-5.143 4.291-8.092 10.589-8.092 17.277 0 12.406 10.093 22.5 22.5 22.5h467c12.407 0 22.5-10.094 22.5-22.5 0-6.687-2.949-12.984-8.089-17.275zm-14.411 24.775h-467c-4.136 0-7.5-3.364-7.5-7.5 0-2.228.985-4.327 2.705-5.762l233.498-194.999c.95-.793 2.554-1.739 4.797-1.739s3.847.946 4.795 1.738l233.5 195c1.72 1.435 2.705 3.534 2.705 5.762 0 4.136-3.364 7.5-7.5 7.5z"/></g></svg>