<svg id="Capa_1" enable-background="new 0 0 512 512" height="512" viewBox="0 0 512 512" width="512" xmlns="http://www.w3.org/2000/svg"><g><path d="m384.431 176.67 54.923-27.462c2.54-1.271 4.146-3.867 4.146-6.708 0-53.762-43.738-97.5-97.5-97.5h-22.5v-37.5c0-4.143-3.357-7.5-7.5-7.5h-15c-19.073 0-35.805 10.226-45 25.481-9.195-15.255-25.926-25.481-45-25.481h-15c-4.142 0-7.5 3.357-7.5 7.5v37.5h-22.5c-53.762 0-97.5 43.738-97.5 97.5 0 2.841 1.605 5.438 4.146 6.708l54.923 27.461c-3.41 59.517-15.711 93.56-28.622 129.281-14.969 41.413-30.447 84.237-30.447 168.55 0 20.678 16.822 37.5 37.5 37.5 12.254 0 23.153-5.909 30-15.026 6.847 9.117 17.746 15.026 30 15.026h240c20.678 0 37.5-16.822 37.5-37.5 0-84.313-15.479-127.137-30.446-168.55-12.912-35.721-25.212-69.764-28.623-129.28zm-83.431-161.67h7.5v30h-44.245c3.484-17.096 18.635-30 36.745-30zm-97.5 0h7.5c18.11 0 33.261 12.904 36.745 30h-44.245zm202.5 482h-240c-12.407 0-22.5-10.094-22.5-22.5 0-81.687 14.355-121.404 29.553-163.454 10.834-29.976 22.037-60.973 27.298-107.707.463-4.116-2.498-7.828-6.614-8.292-4.113-.466-7.828 2.498-8.292 6.614-5.063 44.977-15.476 73.786-26.499 104.286-14.968 41.414-30.446 84.24-30.446 168.553 0 12.406-10.093 22.5-22.5 22.5s-22.5-10.094-22.5-22.5c0-81.687 14.355-121.402 29.553-163.45 14.969-41.413 30.447-84.236 30.447-168.55v-30c0-4.143-3.358-7.5-7.5-7.5s-7.5 3.357-7.5 7.5v30c0 6.148-.083 12.054-.24 17.745l-44.635-22.317c2.383-43.371 38.42-77.928 82.375-77.928h47.639c-13.485 10.902-22.699 26.877-24.712 45h-7.927c-4.142 0-7.5 3.357-7.5 7.5s3.358 7.5 7.5 7.5h7.5v15h-7.5c-4.142 0-7.5 3.357-7.5 7.5s3.358 7.5 7.5 7.5h7.456c-.087 7.593-.308 15.009-.659 22.131-.204 4.137 2.984 7.656 7.121 7.86.126.006.251.009.376.009 3.972 0 7.287-3.119 7.484-7.131.363-7.362.589-15.028.677-22.869h7.545c4.142 0 7.5-3.357 7.5-7.5s-3.358-7.5-7.5-7.5h-7.5v-15h7.5c4.142 0 7.5-3.357 7.5-7.5s-3.358-7.5-7.5-7.5h-6.956c3.651-25.407 25.554-45 51.956-45h90c43.955 0 79.992 34.557 82.375 77.928l-44.635 22.317c-.157-5.691-.24-11.597-.24-17.745v-30c0-4.143-3.357-7.5-7.5-7.5s-7.5 3.357-7.5 7.5v30c0 84.313 15.479 127.137 30.446 168.55 15.198 42.048 29.554 81.764 29.554 163.45 0 12.406-10.094 22.5-22.5 22.5z"/></g></svg>