<svg id="Capa_1" enable-background="new 0 0 512 512" height="512" viewBox="0 0 512 512" width="512" xmlns="http://www.w3.org/2000/svg"><g><path d="m492.23 154.482-94.107-94.106c-9.916-9.915-23.101-15.376-37.123-15.376h-37.5v-37.5c0-4.143-3.357-7.5-7.5-7.5h-15c-19.073 0-35.805 10.226-45 25.481-9.195-15.255-25.927-25.481-45-25.481h-15c-4.143 0-7.5 3.357-7.5 7.5v37.5h-37.5c-14.022 0-27.207 5.461-37.124 15.376l-94.106 94.107c-12.749 12.749-19.77 29.701-19.77 47.73v197.287c0 4.143 3.357 7.5 7.5 7.5h83.5c4.143 0 7.5-3.357 7.5-7.5v-175.253l15-15v295.253c0 4.143 3.357 7.5 7.5 7.5h105c12.254 0 23.153-5.909 30-15.026 6.847 9.117 17.746 15.026 30 15.026h105c4.143 0 7.5-3.357 7.5-7.5v-295.253l15 15v175.253c0 4.143 3.357 7.5 7.5 7.5h83.5c4.143 0 7.5-3.357 7.5-7.5v-197.287c0-18.029-7.021-34.981-19.77-47.731zm-191.23-139.482h7.5v30h-44.245c3.484-17.096 18.635-30 36.745-30zm-97.5 0h7.5c18.11 0 33.261 12.904 36.745 30h-44.245zm-188.5 377v-189.787c0-14.022 5.461-27.207 15.377-37.123l53.123-53.124v280.034zm383.5-203.968v-45.532c0-4.143-3.357-7.5-7.5-7.5s-7.5 3.357-7.5 7.5v354.5h-97.5c-12.406 0-22.5-10.094-22.5-22.5v-152c0-4.143-3.357-7.5-7.5-7.5s-7.5 3.357-7.5 7.5v152c0 12.406-10.094 22.5-22.5 22.5h-97.5v-354.5c0-4.143-3.357-7.5-7.5-7.5s-7.5 3.357-7.5 7.5v45.532l-15 15v-106.066l25.982-25.982c7.084-7.084 16.501-10.984 26.518-10.984h97.5v75h-22.5c-4.143 0-7.5 3.357-7.5 7.5s3.357 7.5 7.5 7.5h22.5v45h-22.5c-4.143 0-7.5 3.357-7.5 7.5s3.357 7.5 7.5 7.5h22.5v45h-22.5c-4.143 0-7.5 3.357-7.5 7.5s3.357 7.5 7.5 7.5h22.5v22.5c0 4.143 3.357 7.5 7.5 7.5s7.5-3.357 7.5-7.5v-22.5h22.5c4.143 0 7.5-3.357 7.5-7.5s-3.357-7.5-7.5-7.5h-22.5v-45h22.5c4.143 0 7.5-3.357 7.5-7.5s-3.357-7.5-7.5-7.5h-22.5v-45h22.5c4.143 0 7.5-3.357 7.5-7.5s-3.357-7.5-7.5-7.5h-22.5v-75h97.5c10.017 0 19.434 3.9 26.517 10.983l25.983 25.983v106.066zm98.5 203.968h-68.5v-280.034l53.123 53.123c9.916 9.917 15.377 23.101 15.377 37.124z"/></g></svg>