<svg id="Capa_1" enable-background="new 0 0 512 512" height="512" viewBox="0 0 512 512" width="512" xmlns="http://www.w3.org/2000/svg"><g><circle cx="339.5" cy="301" r="7.5"/><circle cx="369.5" cy="271" r="7.5"/><circle cx="369.5" cy="331" r="7.5"/><circle cx="399.5" cy="301" r="7.5"/><circle cx="414.5" cy="444.5" r="7.5"/><circle cx="444.5" cy="414.5" r="7.5"/><circle cx="444.5" cy="474.5" r="7.5"/><circle cx="474.5" cy="444.5" r="7.5"/><circle cx="414.5" cy="157.5" r="7.5"/><circle cx="444.5" cy="127.5" r="7.5"/><circle cx="444.5" cy="187.5" r="7.5"/><circle cx="474.5" cy="157.5" r="7.5"/><circle cx="264.5" cy="444.5" r="7.5"/><circle cx="294.5" cy="414.5" r="7.5"/><circle cx="294.5" cy="474.5" r="7.5"/><circle cx="324.5" cy="444.5" r="7.5"/><path d="m97.5 165c37.22 0 67.5-30.28 67.5-67.5s-30.28-67.5-67.5-67.5c-12.067 0-23.923 3.237-34.285 9.36-3.566 2.107-4.749 6.707-2.642 10.272 2.108 3.567 6.708 4.748 10.272 2.642 8.053-4.758 17.27-7.274 26.655-7.274 28.948 0 52.5 23.552 52.5 52.5s-23.552 52.5-52.5 52.5-52.5-23.552-52.5-52.5c0-9.383 2.516-18.601 7.274-26.654 2.107-3.566.925-8.165-2.642-10.272-3.568-2.107-8.165-.923-10.272 2.642-6.124 10.363-9.36 22.219-9.36 34.284 0 37.22 30.28 67.5 67.5 67.5z"/><path d="m97.5 135c20.678 0 37.5-16.822 37.5-37.5s-16.822-37.5-37.5-37.5-37.5 16.822-37.5 37.5 16.822 37.5 37.5 37.5zm0-60c12.406 0 22.5 10.094 22.5 22.5s-10.094 22.5-22.5 22.5-22.5-10.094-22.5-22.5 10.094-22.5 22.5-22.5z"/><path d="m459.5 0h-362c-53.762 0-97.5 43.738-97.5 97.5v317c0 53.762 43.738 97.5 97.5 97.5 51.239 0 93.372-39.729 97.214-90h22.166c-4.313 23.633-6.88 50.651-6.88 82.5 0 4.143 3.357 7.5 7.5 7.5h242c28.948 0 52.5-23.552 52.5-52.5v-407c0-28.948-23.552-52.5-52.5-52.5zm-362 15c45.49 0 82.5 37.01 82.5 82.5s-37.01 82.5-82.5 82.5-82.5-37.01-82.5-82.5 37.01-82.5 82.5-82.5zm0 482c-45.49 0-82.5-37.01-82.5-82.5v-265.097c17.284 27.374 47.802 45.597 82.5 45.597s65.216-18.223 82.5-45.597v265.097c0 45.49-37.01 82.5-82.5 82.5zm97.5-90v-309.5c0-34.698-18.223-65.216-45.597-82.5h310.097c20.678 0 37.5 16.822 37.5 37.5s-16.822 37.5-37.5 37.5h-137c-4.143 0-7.5 3.357-7.5 7.5 0 99.929-25.096 148.567-51.665 200.061-16.399 31.783-33.147 64.244-43.394 109.439zm302 52.5c0 20.678-16.822 37.5-37.5 37.5h-234.448c1.227-94.89 25.718-142.374 51.613-192.561 25.581-49.579 52.012-100.798 53.287-199.439h129.548c14.679 0 27.963-6.063 37.5-15.808z"/></g></svg>