<svg id="Capa_1" enable-background="new 0 0 512 512" height="512" viewBox="0 0 512 512" width="512" xmlns="http://www.w3.org/2000/svg"><g><path d="m327 105.197v-30.197h7.5c12.407 0 22.5-10.094 22.5-22.5s-10.093-22.5-22.5-22.5h-8.255c-3.484-17.096-18.635-30-36.745-30h-67c-18.11 0-33.261 12.904-36.745 30h-8.255c-12.407 0-22.5 10.094-22.5 22.5s10.093 22.5 22.5 22.5h7.5v30.195c-75.099 3.916-135 66.248-135 142.305 0 16.642 2.85 32.956 8.47 48.489l62.047 171.479c9.638 26.636 35.15 44.532 63.483 44.532h144c28.333 0 53.845-17.896 63.484-44.531l62.045-171.479c5.621-15.531 8.47-31.846 8.47-48.489.001-76.06-59.897-138.391-134.999-142.304zm-104.5-90.197h67c9.777 0 18.114 6.271 21.21 15h-109.42c3.096-8.729 11.433-15 21.21-15zm-102.484 407h271.968l-5.427 15h-261.113zm207.984 75h-144c-22.039 0-41.882-13.919-49.378-34.635l-3.751-10.365h250.259l-3.75 10.365c-7.498 20.716-27.341 34.635-49.38 34.635zm111.425-206.114-42.013 116.114h-282.823l-42.014-116.114c-5.026-13.892-7.575-28.49-7.575-43.386 0-70.304 57.196-127.5 127.5-127.5 4.142 0 7.5-3.357 7.5-7.5v-45c0-4.143-3.358-7.5-7.5-7.5h-15c-4.136 0-7.5-3.364-7.5-7.5s3.364-7.5 7.5-7.5h157c4.136 0 7.5 3.364 7.5 7.5s-3.364 7.5-7.5 7.5h-112c-4.142 0-7.5 3.357-7.5 7.5s3.358 7.5 7.5 7.5h89.5v30h-89.5c-4.142 0-7.5 3.357-7.5 7.5s3.358 7.5 7.5 7.5h97c70.304 0 127.5 57.196 127.5 127.5 0 14.898-2.548 29.495-7.575 43.386z"/><circle cx="376" cy="247.5" r="7.5"/><circle cx="136" cy="247.5" r="7.5"/><path d="m312.345 224.155c.957-8.924-2.123-17.893-8.616-24.386-6.493-6.492-15.461-9.57-24.385-8.614-5.632-6.99-14.156-11.155-23.344-11.155-9.189 0-17.712 4.165-23.345 11.155-8.928-.966-17.894 2.122-24.385 8.615-6.492 6.492-9.572 15.462-8.615 24.385-6.99 5.633-11.155 14.156-11.155 23.345s4.165 17.712 11.155 23.345c-.957 8.924 2.123 17.893 8.616 24.386 6.492 6.492 15.462 9.573 24.384 8.614 5.633 6.99 14.156 11.155 23.345 11.155 9.188 0 17.712-4.165 23.345-11.155 8.925.957 17.893-2.123 24.385-8.615s9.572-15.462 8.615-24.385c6.99-5.633 11.155-14.156 11.155-23.345s-4.165-17.712-11.155-23.345zm-11.842 36.61c-3.18 1.685-4.716 5.391-3.659 8.83 1.639 5.336.213 11.094-3.721 15.028s-9.693 5.359-15.029 3.721c-3.438-1.055-7.146.479-8.83 3.659-2.612 4.933-7.695 7.997-13.264 7.997-5.57 0-10.652-3.064-13.265-7.996-1.327-2.507-3.909-3.991-6.628-3.991-.731 0-1.473.107-2.202.331-5.337 1.641-11.096.213-15.028-3.72-3.935-3.936-5.361-9.693-3.722-15.029 1.057-3.439-.479-7.146-3.659-8.83-4.933-2.612-7.997-7.695-7.997-13.265s3.064-10.652 7.997-13.265c3.18-1.685 4.716-5.391 3.659-8.83-1.639-5.336-.213-11.094 3.721-15.028 3.935-3.934 9.692-5.361 15.029-3.721 3.439 1.055 7.145-.48 8.83-3.66 2.613-4.932 7.695-7.996 13.265-7.996 5.569 0 10.652 3.064 13.265 7.997 1.685 3.18 5.392 4.714 8.83 3.659 5.335-1.643 11.094-.214 15.028 3.72 3.935 3.936 5.361 9.693 3.722 15.029-1.057 3.439.479 7.146 3.659 8.83 4.933 2.612 7.997 7.695 7.997 13.265s-3.065 10.652-7.998 13.265z"/></g></svg>