<svg id="Capa_1" enable-background="new 0 0 512 512" height="512" viewBox="0 0 512 512" width="512" xmlns="http://www.w3.org/2000/svg"><g><path d="m504.5 75c4.142 0 7.5-3.357 7.5-7.5v-15c0-28.948-23.551-52.5-52.5-52.5h-317c-28.949 0-52.5 23.552-52.5 52.5v167.059c-27.847 2.284-73.342 9.493-88.714 32.242-1.714 2.537-1.714 5.861 0 8.398 15.368 22.742 60.84 29.954 88.714 32.24v144.561h-82.5c-4.142 0-7.5 3.357-7.5 7.5v15c0 28.948 23.551 52.5 52.5 52.5h317c28.949 0 52.5-23.552 52.5-52.5v-151c0-4.143-3.358-7.5-7.5-7.5s-7.5 3.357-7.5 7.5v151c0 20.678-16.822 37.5-37.5 37.5s-37.5-16.822-37.5-37.5v-15c0-4.143-3.358-7.5-7.5-7.5h-219.5v-143.666c4.232.155 6.962.166 7.57.166 40.869-.414 82.031-2.713 122.467-6.835 3.278 8.382 11.439 14.335 20.963 14.335 9.777 0 18.114-6.271 21.21-15h204.79c16.542 0 30-13.458 30-30s-13.458-30-30-30h-60v-151zm-171.707 422h-280.293c-20.678 0-37.5-16.822-37.5-37.5v-7.5h302v7.5c0 14.676 6.052 27.964 15.793 37.5zm164.207-444.5v7.5h-75v-7.5c0-20.678 16.822-37.5 37.5-37.5s37.5 16.822 37.5 37.5zm-392 181.13v44.738c-29.165-.959-71.5-7.403-87.63-22.368 16.141-14.975 58.519-21.418 87.63-22.37zm151 52.37c-4.109 0-7.457-3.329-7.5-7.437 0-.05 0-.101 0-.15v-14.913c0-4.143-3.358-7.5-7.5-7.5s-7.5 3.357-7.5 7.5v8.243c-37.5 3.824-75.629 6.038-113.5 6.638v-44.758c40.172.637 80.568 3.085 120.2 7.334 2.116.229 4.229-.456 5.813-1.878 1.583-1.423 2.487-3.451 2.487-5.579 0-4.136 3.364-7.5 7.5-7.5s7.5 3.364 7.5 7.5v45c0 4.136-3.364 7.5-7.5 7.5zm241-30c0 8.271-6.729 15-15 15h-203.5v-30h203.5c8.271 0 15 6.729 15 15zm-219.79-30c-3.096-8.729-11.432-15-21.21-15-9.528 0-17.692 5.952-20.967 14.335-40.433-4.122-81.6-6.421-122.533-6.835-.583 0-3.29.011-7.5.164v-166.164c0-20.678 16.822-37.5 37.5-37.5h280.308c-9.745 9.537-15.808 22.821-15.808 37.5v173.5z"/></g></svg>