<svg id="Capa_1" enable-background="new 0 0 512 512" height="512" viewBox="0 0 512 512" width="512" xmlns="http://www.w3.org/2000/svg"><g><path d="m504.5 188.5h-112.5v-181c0-4.143-3.357-7.5-7.5-7.5h-377c-4.142 0-7.5 3.357-7.5 7.5v497c0 4.143 3.358 7.5 7.5 7.5h377c4.143 0 7.5-3.357 7.5-7.5v-158.5c0-4.143-3.357-7.5-7.5-7.5s-7.5 3.357-7.5 7.5v151h-362v-482h362v173.5h-15v-121c0-20.678-16.822-37.5-37.5-37.5h-257c-20.678 0-37.5 16.822-37.5 37.5v362c0 20.678 16.822 37.5 37.5 37.5h257c20.678 0 37.5-16.822 37.5-37.5v-106h142.5c4.143 0 7.5-3.357 7.5-7.5v-120c0-4.143-3.357-7.5-7.5-7.5zm-180 263.5h-257c-12.407 0-22.5-10.094-22.5-22.5v-75.954c72.851.892 109.559 14.785 148.345 29.469 38.346 14.515 77.956 29.51 153.655 30.439v16.046c0 12.406-10.094 22.5-22.5 22.5zm22.5-53.546c-72.851-.892-109.559-14.785-148.345-29.469-38.346-14.515-77.956-29.509-153.655-30.439v-271.046c0-12.406 10.093-22.5 22.5-22.5h257c12.406 0 22.5 10.094 22.5 22.5v121h-219.5c-4.142 0-7.5 3.357-7.5 7.5v120c0 4.143 3.358 7.5 7.5 7.5h219.5zm-212-89.954v-105h57.789c13.276 14.333 20.564 32.853 20.564 52.5s-7.288 38.167-20.564 52.5zm362 0h-285.021c10.63-15.315 16.374-33.461 16.374-52.5s-5.744-37.185-16.374-52.5h285.021z"/></g></svg>