<svg id="Capa_1" enable-background="new 0 0 512 512" height="512" viewBox="0 0 512 512" width="512" xmlns="http://www.w3.org/2000/svg"><g><path d="m338.833 30c-78.942 0-143.166 64.225-143.166 143.167s64.224 143.166 143.166 143.166 143.167-64.224 143.167-143.166-64.225-143.167-143.167-143.167zm0 271.333c-70.671 0-128.166-57.495-128.166-128.166 0-70.672 57.495-128.167 128.166-128.167 70.672 0 128.167 57.495 128.167 128.167 0 70.671-57.495 128.166-128.167 128.166z"/><path d="m338.833 60c-24.692 0-48.158 7.814-67.859 22.598-3.313 2.486-3.983 7.188-1.497 10.501 2.486 3.312 7.188 3.983 10.501 1.497 17.083-12.82 37.435-19.596 58.855-19.596 54.13 0 98.167 44.037 98.167 98.167 0 54.129-44.037 98.166-98.167 98.166-54.129 0-98.166-44.037-98.166-98.166 0-21.42 6.775-41.772 19.595-58.856 2.486-3.313 1.815-8.014-1.498-10.5s-8.014-1.815-10.5 1.498c-14.783 19.701-22.597 43.166-22.597 67.858 0 62.4 50.766 113.166 113.166 113.166s113.167-50.766 113.167-113.166-50.767-113.167-113.167-113.167z"/><path d="m271.333 173.167c0 9.188 4.165 17.712 11.155 23.345-.958 8.925 2.123 17.893 8.615 24.384 6.492 6.494 15.468 9.571 24.385 8.616 5.633 6.99 14.156 11.155 23.345 11.155s17.713-4.166 23.345-11.155c8.93.956 17.893-2.123 24.386-8.615 6.492-6.493 9.572-15.462 8.615-24.385 6.989-5.633 11.154-14.156 11.154-23.345s-4.165-17.713-11.154-23.345c.957-8.924-2.123-17.893-8.616-24.386-6.492-6.492-15.455-9.57-24.385-8.615-5.632-6.989-14.156-11.154-23.345-11.154s-17.712 4.165-23.345 11.154c-8.92-.952-17.892 2.123-24.384 8.615-6.493 6.492-9.574 15.461-8.616 24.386-6.989 5.632-11.155 14.157-11.155 23.345zm22.996-13.265c3.181-1.684 4.716-5.39 3.66-8.83-1.64-5.336-.213-11.095 3.722-15.028 3.934-3.935 9.694-5.359 15.026-3.722 3.445 1.06 7.147-.478 8.831-3.658 2.612-4.933 7.695-7.997 13.265-7.997s10.652 3.063 13.265 7.996c1.685 3.181 5.392 4.718 8.831 3.659 5.333-1.639 11.093-.213 15.027 3.722 3.935 3.934 5.36 9.692 3.722 15.027-1.058 3.44.479 7.147 3.659 8.831 4.933 2.612 7.996 7.694 7.996 13.265 0 5.569-3.064 10.652-7.997 13.265-3.18 1.685-4.716 5.391-3.658 8.831 1.639 5.334.213 11.093-3.722 15.026-3.934 3.935-9.693 5.362-15.028 3.722-3.44-1.053-7.146.48-8.83 3.66-2.612 4.933-7.694 7.996-13.265 7.996-5.569 0-10.652-3.064-13.265-7.997-1.327-2.506-3.909-3.99-6.628-3.99-.731 0-1.473.107-2.202.331-5.335 1.642-11.094.212-15.028-3.722s-5.359-9.691-3.721-15.027c1.056-3.44-.479-7.146-3.659-8.83-4.933-2.612-7.997-7.695-7.997-13.265s3.063-10.652 7.996-13.265z"/><path d="m512 173.167c0-95.484-77.683-173.167-173.167-173.167-93.027 0-169.142 73.738-173 165.833-92.095 3.858-165.833 79.973-165.833 173 0 95.484 77.683 173.167 173.167 173.167 93.027 0 169.142-73.738 173-165.833 92.095-3.858 165.833-79.973 165.833-173zm-210.712 169.055c-1.803 69.111-58.583 124.778-128.121 124.778-70.672 0-128.167-57.495-128.167-128.167 0-69.538 55.667-126.318 124.778-128.121 14.515 65.399 66.111 116.995 131.51 131.51zm-128.121 154.778c-87.214 0-158.167-70.953-158.167-158.167 0-84.759 67.018-154.152 150.846-157.99.221 5.045.655 10.035 1.3 14.96-76.16 3.167-137.146 66.105-137.146 143.03 0 78.942 64.225 143.167 143.167 143.167 76.925 0 139.863-60.986 143.03-137.146 4.925.646 9.915 1.079 14.96 1.3-3.838 83.828-73.231 150.846-157.99 150.846zm165.666-165.667c-87.213 0-158.166-70.953-158.166-158.166 0-87.214 70.953-158.167 158.166-158.167 87.214 0 158.167 70.953 158.167 158.167 0 87.213-70.953 158.166-158.167 158.166z"/></g></svg>