<svg id="Capa_1" enable-background="new 0 0 512.739 512.739" height="512" viewBox="0 0 512.739 512.739" width="512" xmlns="http://www.w3.org/2000/svg"><g><path d="m505.239 316.631c-77.684 0-144.525 47.302-173.239 114.616v-228.377c0-34.685-26.298-63.343-60-67.086v-30.414h7.5c12.406 0 22.5-10.094 22.5-22.5s-10.094-22.5-22.5-22.5h-37.5v-52.5c0-4.143-3.357-7.5-7.5-7.5h-137c-4.143 0-7.5 3.357-7.5 7.5v52.5h-37.5c-12.406 0-22.5 10.094-22.5 22.5s10.094 22.5 22.5 22.5h7.5v30.414c-33.702 3.743-60 32.401-60 67.086v272c0 20.678 16.822 37.5 37.5 37.5h257c3.094 0 6.164-.405 9.161-1.159 6.845.757 13.796 1.159 20.839 1.159 103.796 0 188.239-84.443 188.239-188.238 0-4.143-3.357-7.501-7.5-7.501zm-41.207 19.963c-23.91 14.578-48.117 33.817-70.685 56.385-22.574 22.573-41.812 46.786-56.391 70.701 15.302-62.488 64.59-111.78 127.076-127.086zm-312.386-.913c63.42 29.342 131.961 97.885 161.303 161.304-86.336-5.714-155.589-74.968-161.303-161.304zm160.396 127.996c-14.578-23.915-33.816-48.127-56.388-70.699-22.568-22.567-46.776-41.807-70.685-56.385 62.484 15.306 111.772 64.598 127.073 127.084zm-207.042-448.307h122v45h-122zm-67.5 482c-12.406 0-22.5-10.094-22.5-22.5v-272c0-28.948 23.552-52.5 52.5-52.5 4.143 0 7.5-3.357 7.5-7.5v-45c0-4.143-3.357-7.5-7.5-7.5h-15c-4.136 0-7.5-3.364-7.5-7.5s3.364-7.5 7.5-7.5h227c4.136 0 7.5 3.364 7.5 7.5s-3.364 7.5-7.5 7.5h-182c-4.143 0-7.5 3.357-7.5 7.5v45c0 4.143 3.357 7.5 7.5 7.5h137c4.143 0 7.5-3.357 7.5-7.5v-37.5h15v37.5c0 4.143 3.357 7.5 7.5 7.5 28.948 0 52.5 23.552 52.5 52.5v228.378c-4.208-9.866-9.239-19.299-15-28.219v-200.159c0-4.143-3.357-7.5-7.5-7.5-18.207 0-27.707 5.915-36.09 11.133-7.643 4.758-14.243 8.867-28.162 8.867s-20.52-4.109-28.162-8.867c-8.383-5.218-17.883-11.133-36.09-11.133-18.206 0-27.706 5.915-36.088 11.133-7.643 4.758-14.242 8.867-28.161 8.867-13.917 0-20.518-4.109-28.159-8.867-8.382-5.218-17.882-11.133-36.088-11.133-4.143 0-7.5 3.357-7.5 7.5v212c0 4.143 3.357 7.5 7.5 7.5s7.5-3.357 7.5-7.5v-204.04c9.084 1.2 14.538 4.595 20.66 8.407 8.382 5.218 17.882 11.133 36.087 11.133 18.206 0 27.707-5.915 36.089-11.133 7.643-4.758 14.242-8.867 28.16-8.867 13.919 0 20.52 4.109 28.162 8.867 8.383 5.218 17.883 11.133 36.09 11.133s27.707-5.915 36.09-11.133c6.123-3.813 11.576-7.208 20.662-8.407v172.04c-34.553-40.508-85.947-66.238-143.238-66.238-4.143 0-7.5 3.357-7.5 7.5 0 57.295 25.738 108.685 66.251 143.238h-157.513v-22.5c0-4.143-3.357-7.5-7.5-7.5s-7.5 3.357-7.5 7.5v30c0 4.143 3.357 7.5 7.5 7.5h185.154c8.921 5.762 18.358 10.791 28.225 15zm189.5-392v30h-122v-30zm109.051 391.615c29.342-63.42 97.884-131.962 161.305-161.304-5.714 86.336-74.968 155.59-161.305 161.304z"/></g></svg>