<svg id="Capa_1" enable-background="new 0 0 512 512" height="512" viewBox="0 0 512 512" width="512" xmlns="http://www.w3.org/2000/svg"><g><circle cx="211" cy="52.5" r="7.5"/><circle cx="241" cy="52.5" r="7.5"/><circle cx="271" cy="52.5" r="7.5"/><circle cx="301" cy="52.5" r="7.5"/><circle cx="459.5" cy="231" r="7.5"/><circle cx="459.5" cy="261" r="7.5"/><circle cx="459.5" cy="291" r="7.5"/><circle cx="459.5" cy="321" r="7.5"/><circle cx="52.5" cy="231" r="7.5"/><circle cx="52.5" cy="261" r="7.5"/><circle cx="52.5" cy="291" r="7.5"/><circle cx="52.5" cy="321" r="7.5"/><path d="m384.5 0h-257c-4.142 0-7.5 3.357-7.5 7.5v90c0 4.143 3.358 7.5 7.5 7.5h257c4.142 0 7.5-3.357 7.5-7.5v-90c0-4.143-3.358-7.5-7.5-7.5zm-7.5 90h-242v-75h242z"/><path d="m504.5 120h-90c-4.142 0-7.5 3.357-7.5 7.5v297c0 4.143 3.358 7.5 7.5 7.5h90c4.142 0 7.5-3.357 7.5-7.5v-297c0-4.143-3.358-7.5-7.5-7.5zm-7.5 297h-75v-282h75z"/><path d="m97.5 120h-90c-4.142 0-7.5 3.357-7.5 7.5v297c0 4.143 3.358 7.5 7.5 7.5h90c4.142 0 7.5-3.357 7.5-7.5v-297c0-4.143-3.358-7.5-7.5-7.5zm-7.5 297h-75v-282h75z"/><path d="m384.5 120h-257c-4.142 0-7.5 3.357-7.5 7.5v377c0 4.143 3.358 7.5 7.5 7.5h257c4.142 0 7.5-3.357 7.5-7.5v-377c0-4.143-3.358-7.5-7.5-7.5zm-33.107 30h-190.786l-15-15h220.786zm-216.393-4.393 15 15v233.893c0 4.143 3.358 7.5 7.5 7.5s7.5-3.357 7.5-7.5v-229.5h182v332h-182v-72.5c0-4.143-3.358-7.5-7.5-7.5s-7.5 3.357-7.5 7.5v72.5h-15zm227 351.393v-336.393l15-15v351.393z"/><path d="m309.5 353.5c12.407 0 22.5-10.094 22.5-22.5s-10.093-22.5-22.5-22.5-22.5 10.094-22.5 22.5 10.093 22.5 22.5 22.5zm0-30c4.136 0 7.5 3.364 7.5 7.5s-3.364 7.5-7.5 7.5-7.5-3.364-7.5-7.5 3.364-7.5 7.5-7.5z"/></g></svg>