<svg id="Capa_1" enable-background="new 0 0 512 512" height="512" viewBox="0 0 512 512" width="512" xmlns="http://www.w3.org/2000/svg"><g><path d="m504.5 242h-76.176c-1.042-24.748-7.233-48.456-18.479-70.57.001.003-62.159-122.327-62.159-122.327-1.637-3.22-5.335-4.82-8.801-3.798l-29.361 8.627-48.038-51.545c-1.418-1.523-3.405-2.387-5.486-2.387s-4.068.864-5.487 2.387l-48.037 51.545-29.362-8.627c-3.464-1.022-7.164.577-8.801 3.798l-62.158 122.327c-11.247 22.114-17.438 45.822-18.479 70.57h-76.176c-4.142 0-7.5 3.357-7.5 7.5v255c0 4.143 3.358 7.5 7.5 7.5h497c4.143 0 7.5-3.357 7.5-7.5v-255c0-4.143-3.357-7.5-7.5-7.5zm-37.5 171.747v53.253h-156.943c27.854-16.767 47.386-46.112 50.495-80.395 31.754-24.273 54.861-59.304 63.83-99.605h42.618v53.253c-17.096 3.485-30 18.638-30 36.747s12.904 33.262 30 36.747zm-422-73.494v-53.253h42.617c8.969 40.302 32.076 75.332 63.83 99.605 3.11 34.283 22.642 63.627 50.496 80.395h-156.943v-53.253c17.095-3.485 30-18.638 30-36.747s-12.905-33.262-30-36.747zm123.518 57.862c25.666 15.166 55.573 23.885 87.482 23.885s61.816-8.719 87.481-23.885c-9.535 39.681-45.296 68.885-87.481 68.885s-77.946-29.204-87.482-68.885zm-52.992-219.887 59.337-116.775 27.827 8.177c2.723.803 5.666-.005 7.601-2.082l45.709-49.047 45.709 49.046c1.934 2.076 4.876 2.884 7.601 2.082l27.827-8.177 59.337 116.775c11.299 22.215 17.026 46.193 17.026 71.272 0 86.846-70.654 157.5-157.5 157.5s-157.5-70.653-157.5-157.499c0-25.079 5.728-49.058 17.026-71.272zm381.474 318.772h-482v-240h68.673c.218 5.059.648 10.062 1.294 15h-47.467c-4.142 0-7.5 3.357-7.5 7.5v67.5c0 4.143 3.358 7.5 7.5 7.5 12.407 0 22.5 10.094 22.5 22.5s-10.093 22.5-22.5 22.5c-4.142 0-7.5 3.357-7.5 7.5v67.5c0 4.143 3.358 7.5 7.5 7.5h437c4.143 0 7.5-3.357 7.5-7.5v-67.5c0-4.143-3.357-7.5-7.5-7.5-12.406 0-22.5-10.094-22.5-22.5s10.094-22.5 22.5-22.5c4.143 0 7.5-3.357 7.5-7.5v-67.5c0-4.143-3.357-7.5-7.5-7.5h-47.467c.646-4.938 1.077-9.941 1.294-15h68.673z"/><path d="m308.5 309.5c0-17.074-7.663-28.88-14.092-35.775l-32.922-35.326c-1.418-1.522-3.405-2.387-5.486-2.387s-4.068.864-5.487 2.387l-32.932 35.337c-6.424 6.891-14.082 18.688-14.082 35.765 0 28.948 23.551 52.5 52.5 52.5 28.949-.001 52.501-23.553 52.501-52.501zm-90 0c0-12.193 5.467-20.617 10.054-25.537l27.446-29.45 27.436 29.439c4.592 4.925 10.064 13.355 10.064 25.548 0 20.678-16.822 37.5-37.5 37.5s-37.5-16.822-37.5-37.5z"/><path d="m176.436 348.351c3.314-2.483 3.988-7.185 1.503-10.499-12.717-16.967-19.439-37.145-19.439-58.352 0-15.535 3.535-30.363 10.507-44.073l36.766-72.355 15.55 4.569c2.722.802 5.666-.005 7.601-2.082l27.076-29.053 27.076 29.053c1.935 2.075 4.876 2.883 7.601 2.082l15.551-4.569 36.757 72.34c6.978 13.719 10.516 28.553 10.516 44.089 0 53.762-43.738 97.5-97.5 97.5-21.208 0-41.385-6.722-58.351-19.438-3.314-2.486-8.015-1.813-10.5 1.503-2.484 3.314-1.811 8.015 1.503 10.499 19.581 14.677 42.87 22.435 67.347 22.435 62.032 0 112.5-50.468 112.5-112.5 0-17.922-4.086-35.044-12.144-50.887l-39.579-77.892c-1.637-3.22-5.336-4.821-8.801-3.798l-17.085 5.02-29.405-31.552c-1.418-1.522-3.405-2.387-5.486-2.387s-4.068.864-5.487 2.387l-29.405 31.552-17.084-5.02c-3.466-1.021-7.165.577-8.801 3.798l-39.587 77.908c-8.053 15.834-12.136 32.949-12.136 50.87 0 24.477 7.758 47.765 22.436 67.348 2.485 3.315 7.185 3.99 10.5 1.504z"/></g></svg>