<svg id="Capa_1" enable-background="new 0 0 512 512" height="512" viewBox="0 0 512 512" width="512" xmlns="http://www.w3.org/2000/svg"><g><path d="m241 173.5h30c4.143 0 7.5-3.357 7.5-7.5s-3.357-7.5-7.5-7.5h-30c-4.143 0-7.5 3.357-7.5 7.5s3.357 7.5 7.5 7.5z"/><path d="m241 143.5h30c4.143 0 7.5-3.357 7.5-7.5s-3.357-7.5-7.5-7.5h-30c-4.143 0-7.5 3.357-7.5 7.5s3.357 7.5 7.5 7.5z"/><path d="m241 203.5h30c4.143 0 7.5-3.357 7.5-7.5s-3.357-7.5-7.5-7.5h-30c-4.143 0-7.5 3.357-7.5 7.5s3.357 7.5 7.5 7.5z"/><path d="m321.529 287c2.68 0 5.155-1.43 6.495-3.75l65.529-113.5c1.34-2.32 1.34-5.18 0-7.5l-65.529-113.5c-1.34-2.32-3.815-3.75-6.495-3.75h-52.546l6.492-11.256c1.979-3.423 3.024-7.311 3.024-11.244.001-12.406-10.093-22.5-22.499-22.5s-22.5 10.094-22.5 22.5c0 3.934 1.046 7.821 3.021 11.237l6.495 11.263h-52.546c-2.68 0-5.155 1.43-6.495 3.75l-65.529 113.5c-1.34 2.32-1.34 5.18 0 7.5l65.529 113.5c1.34 2.32 3.815 3.75 6.495 3.75h58.03v217.5c0 4.143 3.357 7.5 7.5 7.5s7.5-3.357 7.5-7.5v-217.5zm-65.529-272c4.136 0 7.5 3.364 7.5 7.5 0 1.319-.34 2.576-1.015 3.743l-6.485 11.245-6.489-11.252c-.671-1.16-1.011-2.417-1.011-3.736 0-4.136 3.364-7.5 7.5-7.5zm-122.398 151 61.199-106h122.398l61.199 106-61.199 106h-122.398z"/><path d="m309.479 251.127 46.983-81.377c1.34-2.32 1.34-5.18 0-7.5l-46.983-81.377c-1.34-2.32-3.815-3.75-6.495-3.75h-93.967c-2.68 0-5.155 1.43-6.495 3.75l-15.992 27.697c-2.071 3.587-.842 8.174 2.745 10.245 3.585 2.068 8.173.843 10.245-2.745l13.827-23.947h85.307l42.653 73.877-42.653 73.877h-85.307l-42.654-73.877 13.826-23.949c2.071-3.588.842-8.175-2.745-10.245-3.589-2.07-8.176-.843-10.245 2.745l-15.991 27.699c-1.34 2.32-1.34 5.18 0 7.5l46.983 81.377c1.34 2.32 3.815 3.75 6.495 3.75h93.967c2.68 0 5.156-1.43 6.496-3.75z"/><path d="m226 302h-180c-4.143 0-7.5 3.357-7.5 7.5v45c0 4.143 3.357 7.5 7.5 7.5h180c4.143 0 7.5-3.357 7.5-7.5v-45c0-4.143-3.357-7.5-7.5-7.5zm-37.5 15v30h-105v-30zm-135 0h15v30h-15zm165 30h-15v-30h15z"/><path d="m226 377h-180c-4.143 0-7.5 3.357-7.5 7.5v45c0 4.143 3.357 7.5 7.5 7.5h180c4.143 0 7.5-3.357 7.5-7.5v-45c0-4.143-3.357-7.5-7.5-7.5zm-37.5 15v30h-105v-30zm-135 0h15v30h-15zm165 30h-15v-30h15z"/><path d="m226 452h-180c-4.143 0-7.5 3.357-7.5 7.5v45c0 4.143 3.357 7.5 7.5 7.5h180c4.143 0 7.5-3.357 7.5-7.5v-45c0-4.143-3.357-7.5-7.5-7.5zm-37.5 15v30h-105v-30zm-135 0h15v30h-15zm165 30h-15v-30h15z"/><path d="m466 302h-180c-4.143 0-7.5 3.357-7.5 7.5v45c0 4.143 3.357 7.5 7.5 7.5h180c4.143 0 7.5-3.357 7.5-7.5v-45c0-4.143-3.357-7.5-7.5-7.5zm-37.5 15v30h-105v-30zm-135 0h15v30h-15zm165 30h-15v-30h15z"/><path d="m466 377h-180c-4.143 0-7.5 3.357-7.5 7.5v45c0 4.143 3.357 7.5 7.5 7.5h180c4.143 0 7.5-3.357 7.5-7.5v-45c0-4.143-3.357-7.5-7.5-7.5zm-37.5 15v30h-105v-30zm-135 0h15v30h-15zm165 30h-15v-30h15z"/><path d="m466 452h-180c-4.143 0-7.5 3.357-7.5 7.5v45c0 4.143 3.357 7.5 7.5 7.5h180c4.143 0 7.5-3.357 7.5-7.5v-45c0-4.143-3.357-7.5-7.5-7.5zm-37.5 15v30h-105v-30zm-135 0h15v30h-15zm165 30h-15v-30h15z"/></g></svg>