<svg id="Capa_1" enable-background="new 0 0 512 512" height="512" viewBox="0 0 512 512" width="512" xmlns="http://www.w3.org/2000/svg"><g><path d="m504.5 218.5c0-93.154-73.799-169.385-166-173.328v-37.672c0-4.143-3.357-7.5-7.5-7.5-9.354 0-18.205 3.461-25 9.547-6.795-6.086-15.646-9.547-25-9.547s-18.205 3.461-25 9.547c-6.795-6.086-15.646-9.547-25-9.547s-18.205 3.461-25 9.547c-6.795-6.086-15.646-9.547-25-9.547-4.143 0-7.5 3.357-7.5 7.5v37.672c-92.201 3.943-166 80.174-166 173.328s73.799 169.385 166 173.328v112.672c0 4.143 3.357 7.5 7.5 7.5s7.5-3.357 7.5-7.5v-67.5h15v67.5c0 4.143 3.357 7.5 7.5 7.5s7.5-3.357 7.5-7.5v-67.5h15v67.5c0 4.143 3.357 7.5 7.5 7.5s7.5-3.357 7.5-7.5v-67.5h15v67.5c0 4.143 3.357 7.5 7.5 7.5s7.5-3.357 7.5-7.5v-67.5h15v67.5c0 4.143 3.357 7.5 7.5 7.5s7.5-3.357 7.5-7.5v-67.5h15v67.5c0 4.143 3.357 7.5 7.5 7.5s7.5-3.357 7.5-7.5v-112.672c92.201-3.943 166-80.174 166-173.328zm-305.301 114.979c-10.339-30.601-16.033-71.434-16.033-114.979s5.694-84.379 16.033-114.979c9.208-27.251 21.378-43.521 32.555-43.521h16.746v317h-16.746c-11.177 0-23.347-16.27-32.555-43.521zm64.301-273.479h16.746c11.177 0 23.347 16.27 32.555 43.521 10.339 30.601 16.033 71.434 16.033 114.979s-5.694 84.379-16.033 114.979c-9.208 27.251-21.378 43.521-32.555 43.521h-16.746zm43.854 316.938c7.397-9.002 14.014-21.955 19.657-38.658 10.848-32.106 16.822-74.645 16.822-119.78s-5.975-87.674-16.822-119.78c-5.644-16.703-12.26-29.656-19.657-38.658 56.4 2.305 101.813 72.491 101.813 158.438s-45.412 156.133-101.813 158.438zm-107.6-351.867c1.39 2.092 3.734 3.349 6.246 3.349s4.856-1.257 6.246-3.349c4.192-6.306 11.202-10.071 18.754-10.071s14.563 3.765 18.754 10.071c1.39 2.092 3.734 3.349 6.246 3.349s4.856-1.257 6.246-3.349c4.192-6.306 11.202-10.071 18.754-10.071s14.563 3.765 18.754 10.071c1.39 2.092 3.734 3.349 6.246 3.349s4.856-1.257 6.246-3.349c2.751-4.14 6.717-7.185 11.254-8.788v28.717h-135v-28.717c4.537 1.604 8.503 4.649 11.254 8.788zm-177.254 193.429c0-78.726 57.697-144.219 133.024-156.443-10.874 7.569-20.974 17.553-29.945 29.757-21.46 29.194-34.696 68.697-37.271 111.232-.25 4.135 2.898 7.689 7.033 7.939.154.01.308.014.46.014 3.935 0 7.238-3.066 7.479-7.047 2.402-39.688 14.614-76.357 34.385-103.254 18.575-25.269 42.26-39.602 66.977-40.633-7.396 9.002-14.011 21.953-19.653 38.654-10.848 32.106-16.822 74.645-16.822 119.78s5.975 87.674 16.822 119.78c5.643 16.7 12.257 29.651 19.653 38.654-24.716-1.031-48.402-15.364-66.977-40.633-19.771-26.896-31.982-63.566-34.385-103.254-.25-4.135-3.785-7.305-7.939-7.033-4.135.25-7.283 3.805-7.033 7.939 2.575 42.535 15.812 82.038 37.271 111.232 8.971 12.204 19.071 22.188 29.945 29.757-75.327-12.222-133.024-77.715-133.024-156.441zm166 203.5v-30h135v30zm168.097-47.077c12.3-8.59 23.597-20.294 33.428-34.844 22.017-32.58 34.142-75.758 34.142-121.579s-12.125-88.999-34.142-121.579c-9.832-14.549-21.128-26.254-33.428-34.844 75.268 12.275 132.903 77.739 132.903 156.423s-57.635 144.148-132.903 156.423z"/></g></svg>