<svg id="Capa_1" enable-background="new 0 0 512 512" height="512" viewBox="0 0 512 512" width="512" xmlns="http://www.w3.org/2000/svg"><g><path d="m218.641 425.652c3.735-1.791 5.311-6.271 3.52-10.005-2.429-5.066-3.661-10.499-3.661-16.147 0-12.193 5.467-20.617 10.054-25.537l27.446-29.45 27.436 29.439c4.591 4.925 10.064 13.354 10.064 25.548 0 20.678-16.822 37.5-37.5 37.5-5.647 0-11.08-1.231-16.147-3.66-3.736-1.794-8.215-.214-10.005 3.521-1.791 3.735-.214 8.215 3.521 10.005 7.107 3.406 14.721 5.134 22.631 5.134 28.949 0 52.5-23.552 52.5-52.5 0-17.075-7.664-28.88-14.091-35.775l-32.922-35.326c-1.419-1.522-3.406-2.387-5.487-2.387s-4.068.864-5.487 2.387l-32.932 35.337c-6.424 6.891-14.082 18.688-14.082 35.765 0 7.911 1.728 15.525 5.135 22.632 1.792 3.734 6.271 5.312 10.007 3.519z"/><path d="m256 482c62.033 0 112.5-50.468 112.5-112.5 0-17.921-4.086-35.043-12.144-50.887l-39.579-77.892c-1.636-3.22-5.335-4.819-8.801-3.798l-17.084 5.02-29.405-31.552c-1.419-1.522-3.406-2.387-5.487-2.387s-4.068.864-5.487 2.387l-29.405 31.552-17.084-5.02c-3.466-1.021-7.165.577-8.801 3.798l-39.587 77.908c-8.053 15.834-12.136 32.949-12.136 50.87 0 62.033 50.467 112.501 112.5 112.501zm-86.993-156.573 36.766-72.355 15.55 4.569c2.721.802 5.666-.005 7.601-2.082l27.076-29.053 27.076 29.053c1.937 2.077 4.88 2.884 7.601 2.082l15.55-4.569 36.757 72.34c6.978 13.72 10.516 28.553 10.516 44.089 0 53.762-43.738 97.5-97.5 97.5s-97.5-43.738-97.5-97.5c0-15.536 3.535-30.364 10.507-44.074z"/><path d="m504.514 75.018-45-60c-7.158-9.544-18.097-15.018-30.014-15.018h-347c-11.917 0-22.856 5.474-30.014 15.018l-45 60c-4.898 6.529-7.486 14.303-7.486 22.482 0 1.971.159 3.967.472 5.931l60 377c2.911 18.293 18.484 31.569 37.028 31.569h317c18.544 0 34.117-13.276 37.028-31.569l60-376.999c.313-1.965.472-3.961.472-5.932 0-8.179-2.588-15.953-7.486-22.482zm-57-51 45 60c1.383 1.844 2.446 3.858 3.197 5.982h-58.939c-.608-4.136-1.885-8.165-3.855-11.929l-30.329-57.958c-.948-1.812-2.044-3.511-3.244-5.113h30.156c7.15 0 13.716 3.287 18.014 9.018zm-304.876-9.018h226.725c8.401 0 16.04 4.624 19.936 12.068l30.329 57.958c.832 1.59 1.457 3.26 1.886 4.974h-331.027c.429-1.714 1.054-3.384 1.886-4.974l30.33-57.959c3.895-7.443 11.533-12.067 19.935-12.067zm-78.152 9.018c4.298-5.731 10.864-9.018 18.014-9.018h30.155c-1.199 1.602-2.295 3.3-3.243 5.112l-30.33 57.959c-1.97 3.764-3.248 7.792-3.855 11.929h-58.938c.751-2.124 1.814-4.138 3.197-5.982zm10.799 454.055-59.375-373.073h59.727l9.031 81.333c.426 3.835 3.674 6.673 7.445 6.673.276 0 .556-.016.837-.047 4.117-.457 7.083-4.165 6.626-8.282l-8.847-79.677h330.541l-41.307 371.982c-1.267 11.413-10.88 20.018-22.362 20.018h-203.202c-11.481 0-21.095-8.605-22.363-20.018l-29.127-262.306c-.457-4.116-4.163-7.088-8.282-6.626-4.117.457-7.083 4.165-6.626 8.282l29.127 262.306c.765 6.889 3.363 13.159 7.265 18.361h-26.893c-11.126.001-20.469-7.959-22.215-18.926zm361.43 0c-1.746 10.967-11.089 18.927-22.215 18.927h-26.893c3.902-5.203 6.5-11.472 7.265-18.361l41.49-373.639h59.727z"/></g></svg>