<svg id="Capa_1" enable-background="new 0 0 512 512" height="512" viewBox="0 0 512 512" width="512" xmlns="http://www.w3.org/2000/svg"><g><path d="m456.143 245.143c30.8 0 55.857-25.058 55.857-55.857s-25.057-55.856-55.857-55.856h-10.857v-21.715h10.857c30.8 0 55.857-25.057 55.857-55.856s-25.057-55.859-55.857-55.859-55.857 25.058-55.857 55.857v10.856h-21.715v-10.856c0-30.8-25.057-55.857-55.857-55.857s-55.857 25.058-55.857 55.857v10.856h-21.715v-10.856c0-30.8-25.057-55.857-55.857-55.857s-55.857 25.058-55.857 55.857v10.856h-21.715v-10.856c.001-30.799-25.056-55.857-55.856-55.857s-55.857 25.058-55.857 55.857 25.057 55.856 55.857 55.856h10.857v21.715h-10.857c-30.8.001-55.857 25.057-55.857 55.857 0 8.884 2.04 17.396 6.062 25.3 1.324 2.603 3.958 4.101 6.69 4.101 1.145 0 2.306-.264 3.396-.817 3.691-1.879 5.161-6.395 3.282-10.086-2.939-5.776-4.43-12-4.43-18.497 0-22.528 18.328-40.856 40.857-40.856h77.572v15h-77.572c-14.257-.001-25.857 11.598-25.857 25.855 0 14.258 11.6 25.857 25.857 25.857h10.857v15h-10.857c-6.497 0-12.72-1.49-18.496-4.431-3.691-1.879-8.208-.408-10.086 3.283-1.879 3.691-.409 8.207 3.282 10.086 7.904 4.022 16.416 6.062 25.3 6.062h10.857v21.715h-10.857c-30.8 0-55.857 25.058-55.857 55.858s25.057 55.856 55.857 55.856h10.857v21.715h-10.857c-30.8 0-55.857 25.057-55.857 55.857s25.057 55.857 55.857 55.857 55.857-25.058 55.857-55.857v-10.856h21.715v10.856c0 30.8 25.057 55.857 55.857 55.857s55.857-25.058 55.857-55.857v-10.856h21.715v10.856c0 30.8 25.057 55.857 55.857 55.857s55.857-25.058 55.857-55.857v-10.856h21.715v10.856c0 30.8 25.057 55.857 55.857 55.857s55.856-25.058 55.856-55.857-25.057-55.856-55.857-55.856h-10.857v-21.715h10.857c30.8 0 55.857-25.057 55.857-55.856s-25.057-55.857-55.857-55.857h-10.857v-21.715h10.857zm0-96.714c22.529 0 40.857 18.328 40.857 40.856 0 22.529-18.328 40.857-40.857 40.857h-77.572v-15h77.572c14.257 0 25.857-11.6 25.857-25.857s-11.6-25.856-25.857-25.856h-10.857v-15zm-77.572 185.142v-21.714h21.715v21.714zm21.715 66.715h-21.715v-21.715h21.715zm-51.715 0v-88.429h15v88.429zm-36.714 0v-21.715h21.714v21.715zm0 45h21.714v10.856c0 5.986-4.871 10.857-10.857 10.857s-10.857-4.871-10.857-10.857zm-45-45h-21.715v-21.715h21.715zm-51.714 0v-88.429h15v88.429zm-36.714 0v-21.715h21.714v21.715zm0 45h21.714v10.856c0 5.986-4.871 10.857-10.857 10.857s-10.857-4.871-10.857-10.857zm-45-45h-21.715v-21.715h21.715zm0-88.429v21.714h-21.715v-21.714zm15-200.143h15v88.429h-15zm51.714 0v21.715h-21.714v-21.715zm0-45h-21.714v-10.857c0-5.986 4.871-10.857 10.857-10.857s10.857 4.871 10.857 10.857zm45 45h21.715v21.715h-21.715zm51.714 0v88.429h-15v-88.429zm36.714 0v21.715h-21.714v-21.715zm0-45h-21.714v-10.857c0-5.986 4.871-10.857 10.857-10.857s10.857 4.871 10.857 10.857zm45 45h21.715v21.715h-21.715zm0 88.429v-21.714h21.715v21.714zm21.715 96.714h-88.429v-15h88.429zm-66.715 36.714h-21.714v-21.714h21.714zm-51.714 0v-88.429h15v88.429zm-36.714 0v-21.714h21.715v21.714zm-45 0h-21.714v-21.714h21.714zm-51.714 0v-88.429h15v88.429zm51.714-88.428v21.715h-21.714v-21.715zm-21.714-66.714h21.714v21.714h-21.714zm51.714 0v88.429h-15v-88.429zm36.714 0v21.714h-21.715v-21.714zm45 0h21.714v21.714h-21.714zm0 88.428v-21.715h21.714v21.715zm21.714-51.714v15h-88.429v-15zm-66.714 51.714h-21.715v-21.715h21.715zm-88.428 30v-15h88.429v15zm170.142-30v-88.429h15v88.429zm51.715-118.428v15h-88.429v-15zm-133.429 0v15h-88.429v-15zm-66.714 66.714v15h-88.429v-15zm-88.429 30h21.715v21.715h-21.715zm0 118.428v-15h88.429v15zm133.429 0v-15h88.429v15zm155.143-96.714h-21.715v-21.715h21.715zm45-88.428h10.857c5.986 0 10.857 4.87 10.857 10.856s-4.871 10.857-10.857 10.857h-10.857zm-15 21.714h-15v-88.429h15zm25.857-118.429c14.258 0 25.857-11.6 25.857-25.856 0-14.258-11.599-25.858-25.857-25.858-14.257 0-25.857 11.6-25.857 25.857v10.856h-15v-10.856c0-22.529 18.328-40.857 40.857-40.857s40.857 18.328 40.857 40.857c0 22.528-18.328 40.856-40.857 40.856h-77.572v-15h77.572zm-10.857-15v-10.857c0-5.986 4.871-10.857 10.857-10.857s10.857 4.871 10.857 10.857-4.871 10.856-10.857 10.856h-10.857zm-163.429-10.857c0-22.529 18.328-40.857 40.857-40.857s40.857 18.328 40.857 40.857v77.571h-15v-77.571c0-14.258-11.6-25.857-25.857-25.857s-25.857 11.6-25.857 25.857v10.856h-15zm51.714 25.857v15h-88.429v-15zm-185.142-25.857c0-22.529 18.328-40.857 40.857-40.857s40.857 18.328 40.857 40.857v77.571h-15v-77.571c0-14.258-11.6-25.857-25.857-25.857s-25.857 11.6-25.857 25.857v10.856h-15zm51.714 25.857v15h-88.429v-15zm-133.429-15h-10.857c-5.986 0-10.857-4.87-10.857-10.857s4.871-10.857 10.857-10.857 10.857 4.871 10.857 10.857zm15-10.857c0-14.257-11.6-25.857-25.857-25.857-14.258 0-25.857 11.6-25.857 25.857s11.599 25.856 25.857 25.856h10.857v15h-10.857c-22.529.001-40.857-18.327-40.857-40.856s18.328-40.857 40.857-40.857 40.857 18.328 40.857 40.857v77.571h-15zm30 77.572v-21.715h21.715v21.715zm21.715 66.714h-21.715v-21.714h21.715zm-77.572 0c-5.986 0-10.857-4.871-10.857-10.857s4.871-10.856 10.857-10.856h10.857v21.714h-10.857zm25.857-21.714h15v88.429h-15zm-25.857 185.142c-22.529 0-40.857-18.328-40.857-40.856 0-22.529 18.328-40.857 40.857-40.857h77.572v15h-77.572c-14.257-.001-25.857 11.599-25.857 25.857 0 14.257 11.6 25.856 25.857 25.856h10.857v15zm10.857-30h-10.857c-5.986 0-10.857-4.87-10.857-10.856s4.871-10.857 10.857-10.857h10.857zm15-21.714h15v88.429h-15zm-25.857 118.429c-14.258 0-25.857 11.6-25.857 25.856 0 14.258 11.599 25.858 25.857 25.858 14.257 0 25.857-11.6 25.857-25.857v-10.856h15v10.856c0 22.529-18.328 40.857-40.857 40.857s-40.857-18.328-40.857-40.857c0-22.528 18.328-40.856 40.857-40.856h77.572v15h-77.572zm10.857 15v10.856c0 5.986-4.871 10.857-10.857 10.857s-10.857-4.87-10.857-10.856 4.871-10.856 10.857-10.856h10.857zm163.429 10.857c0 22.529-18.328 40.857-40.857 40.857s-40.857-18.328-40.857-40.857v-77.571h15v77.571c0 14.258 11.6 25.857 25.857 25.857s25.857-11.6 25.857-25.857v-10.856h15zm-51.714-25.857v-15h88.429v15zm185.142 25.857c0 22.529-18.328 40.857-40.857 40.857s-40.857-18.328-40.857-40.857v-77.571h15v77.571c0 14.258 11.6 25.857 25.857 25.857s25.857-11.6 25.857-25.857v-10.856h15zm-51.714-25.857v-15h88.429v15zm133.429 15h10.857c5.986 0 10.857 4.87 10.857 10.856s-4.871 10.858-10.857 10.858-10.857-4.871-10.857-10.857zm-15 10.857c0 14.258 11.6 25.857 25.857 25.857 14.258 0 25.857-11.6 25.857-25.857s-11.599-25.856-25.857-25.856h-10.857v-15h10.857c22.529 0 40.857 18.328 40.857 40.856 0 22.529-18.328 40.857-40.857 40.857s-40.857-18.328-40.857-40.857v-77.571h15zm25.857-174.286c22.529 0 40.857 18.328 40.857 40.857 0 22.528-18.328 40.856-40.857 40.856h-77.572v-15h77.572c14.257 0 25.857-11.6 25.857-25.856 0-14.258-11.6-25.857-25.857-25.857h-10.857v-15zm-10.857 30h10.857c5.986 0 10.857 4.871 10.857 10.857s-4.871 10.856-10.857 10.856h-10.857zm-15 21.714h-15v-88.429h15z"/></g></svg>