<svg id="Capa_1" enable-background="new 0 0 512 512" height="512" viewBox="0 0 512 512" width="512" xmlns="http://www.w3.org/2000/svg"><g><path d="m256 308.5c-31.292 0-56.75 25.458-56.75 56.75s25.458 56.75 56.75 56.75 56.75-25.458 56.75-56.75-25.458-56.75-56.75-56.75zm0 98.5c-23.021 0-41.75-18.729-41.75-41.75s18.729-41.75 41.75-41.75 41.75 18.729 41.75 41.75-18.729 41.75-41.75 41.75z"/><path d="m312.75 146.75c0-31.292-25.458-56.75-56.75-56.75s-56.75 25.458-56.75 56.75 25.458 56.75 56.75 56.75 56.75-25.458 56.75-56.75zm-98.5 0c0-23.021 18.729-41.75 41.75-41.75s41.75 18.729 41.75 41.75-18.729 41.75-41.75 41.75-41.75-18.729-41.75-41.75z"/><path d="m415.806 96.194c-42.686-42.686-99.44-66.194-159.806-66.194-54.612 0-107.335 19.748-148.458 55.605-3.122 2.722-3.446 7.459-.724 10.581 2.722 3.123 7.46 3.447 10.582.724 38.391-33.474 87.613-51.91 138.6-51.91 56.105 0 101.75 45.645 101.75 101.75s-45.645 101.75-101.75 101.75c-64.376 0-116.75 52.374-116.75 116.75 0 34.429 14.984 65.421 38.769 86.809-77.858-31.078-133.019-107.245-133.019-196.059 0-50.987 18.436-100.21 51.911-138.601 2.722-3.122 2.398-7.859-.724-10.582-3.122-2.721-7.859-2.398-10.582.725-35.857 41.122-55.605 93.846-55.605 148.458 0 60.366 23.508 117.12 66.194 159.806s99.439 66.194 159.806 66.194c60.366 0 117.12-23.508 159.806-66.194s66.194-99.44 66.194-159.806-23.508-117.12-66.194-159.806zm-159.806 370.806c-56.105 0-101.75-45.645-101.75-101.75s45.645-101.75 101.75-101.75c64.376 0 116.75-52.374 116.75-116.75 0-34.429-14.984-65.421-38.769-86.809 77.858 31.078 133.019 107.245 133.019 196.059 0 116.346-94.654 211-211 211z"/><path d="m437.02 74.98c-48.352-48.351-112.64-74.98-181.02-74.98s-132.667 26.629-181.02 74.98c-48.351 48.352-74.98 112.64-74.98 181.02s26.629 132.668 74.98 181.02c48.353 48.351 112.64 74.98 181.02 74.98s132.668-26.629 181.02-74.98 74.98-112.64 74.98-181.02-26.629-132.668-74.98-181.02zm-181.02 422.02c-132.888 0-241-108.112-241-241s108.112-241 241-241 241 108.112 241 241-108.112 241-241 241z"/></g></svg>