<svg id="Capa_1" enable-background="new 0 0 512 512" height="512" viewBox="0 0 512 512" width="512" xmlns="http://www.w3.org/2000/svg"><g><path d="m504.5 120h-98.5c-4.143 0-7.5 3.357-7.5 7.5s3.357 7.5 7.5 7.5h91v285h-121.021c4.719-6.272 7.521-14.064 7.521-22.5v-300c0-20.678-16.822-37.5-37.5-37.5h-271.755c-2.99-14.672-14.573-26.255-29.245-29.245v-8.255c0-12.406-10.094-22.5-22.5-22.5s-22.5 10.094-22.5 22.5v482c0 4.143 3.357 7.5 7.5 7.5h30c4.143 0 7.5-3.357 7.5-7.5v-100.255c14.672-2.99 26.255-14.573 29.245-29.245h234.255v22.5c0 20.678 16.822 37.5 37.5 37.5h158.5c4.143 0 7.5-3.357 7.5-7.5v-300c0-4.143-3.357-7.5-7.5-7.5zm-474.5 377h-15v-474.5c0-4.136 3.364-7.5 7.5-7.5s7.5 3.364 7.5 7.5zm15-108.29v-342.42c8.729 3.096 15 11.433 15 21.21v300c0 9.777-6.271 18.114-15 21.21zm30-28.71v-285h271c12.406 0 22.5 10.094 22.5 22.5v270.021c-6.272-4.72-14.064-7.521-22.5-7.521zm248.5 37.5v-22.5h22.5c12.406 0 22.5 10.094 22.5 22.5s-10.094 22.5-22.5 22.5-22.5-10.094-22.5-22.5z"/><path d="m225.517 144.349-35.527-5.163-15.889-32.193c-1.264-2.56-3.871-4.181-6.726-4.181s-5.462 1.621-6.726 4.181l-15.889 32.193-35.527 5.163c-2.825.41-5.173 2.39-6.055 5.104s-.146 5.695 1.897 7.688l25.709 25.059-6.068 35.385c-.483 2.813.674 5.657 2.983 7.335 1.307.949 2.854 1.433 4.409 1.433 1.193 0 2.392-.284 3.489-.861l31.776-16.706 31.777 16.706c2.529 1.33 5.589 1.105 7.898-.571 2.31-1.678 3.467-4.521 2.983-7.335l-6.068-35.385 25.708-25.059c2.044-1.993 2.779-4.974 1.897-7.688-.879-2.717-3.226-4.695-6.051-5.105zm-34.845 29.863c-1.768 1.723-2.574 4.205-2.156 6.638l4.166 24.293-21.816-11.47c-1.093-.574-2.291-.861-3.49-.861s-2.397.287-3.49.861l-21.815 11.47 4.166-24.293c.418-2.433-.389-4.915-2.156-6.639l-17.65-17.204 24.391-3.544c2.443-.354 4.555-1.889 5.647-4.103l10.908-22.103 10.908 22.103c1.093 2.214 3.204 3.748 5.647 4.103l24.391 3.544z"/></g></svg>